<svg
        xmlns="http://www.w3.org/2000/svg"
        xmlns:xlink="http://www.w3.org/1999/xlink"
        width="14px" height="13px">
    <path fill-rule="evenodd"  fill="rgb(255, 200, 0)"
          d="M6.650,3.421 L7.700,3.421 L7.700,6.910 L4.410,8.826 L3.850,7.937 L6.650,6.295 L6.650,3.421 M6.650,0.000 C9.100,0.000 11.270,1.300 12.390,3.284 L14.000,1.710 L14.000,6.158 L9.450,6.158 L11.410,4.242 C10.500,2.531 8.750,1.368 6.650,1.368 C3.780,1.368 1.400,3.695 1.400,6.500 C1.400,9.305 3.780,11.632 6.650,11.632 C8.960,11.632 10.850,10.195 11.620,8.211 L13.090,8.211 C12.320,10.947 9.730,13.000 6.650,13.000 C2.940,13.000 -0.000,10.058 -0.000,6.500 C-0.000,2.942 3.010,0.000 6.650,0.000 "/>
</svg>