<?xml version="1.0" encoding="UTF-8" standalone="no"?>
<svg width="347px" height="60px" viewBox="0 0 347 60" version="1.1" xmlns="http://www.w3.org/2000/svg" xmlns:xlink="http://www.w3.org/1999/xlink">
    <!-- Generator: Sketch 40.1 (33804) - http://www.bohemiancoding.com/sketch -->
    <title>vb_3</title>
    <desc>Created with Sketch.</desc>
    <defs></defs>
    <g id="Page-1" stroke="none" stroke-width="1" fill="none" fill-rule="evenodd">
        <g id="vb_3">
            <rect id="Rectangle" fill="#FFDE00" x="206" y="0" width="141" height="60"></rect>
            <path d="M17.472,5.976 L25.608,26.856 L33.816,5.976 L50.592,5.976 L31.872,54 L19.416,54 L0.696,5.976 L17.472,5.976 Z M53.672,5.976 L81.968,5.976 L81.968,18.576 L69.008,18.576 L69.008,23.904 L81.752,23.904 L81.752,35.856 L69.008,35.856 L69.008,41.4 L82.472,41.4 L82.472,54 L53.672,54 L53.672,5.976 Z M85.792,5.976 L101.776,5.976 L101.776,41.4 L115.024,41.4 L115.024,54 L85.792,54 L85.792,5.976 Z M115.304,30.024 C115.304,26.5679827 115.963993,23.3040154 117.284,20.232 C118.604007,17.1599846 120.403989,14.4840114 122.684,12.204 C124.964011,9.9239886 127.639985,8.1240066 130.712,6.804 C133.784015,5.4839934 137.047983,4.824 140.504,4.824 C143.960017,4.824 147.223985,5.4839934 150.296,6.804 C153.368015,8.1240066 156.043989,9.9239886 158.324,12.204 C160.604011,14.4840114 162.403993,17.1599846 163.724,20.232 C165.044007,23.3040154 165.704,26.5679827 165.704,30.024 C165.704,33.4800173 165.044007,36.7439846 163.724,39.816 C162.403993,42.8880154 160.604011,45.5639886 158.324,47.844 C156.043989,50.1240114 153.368015,51.9239934 150.296,53.244 C147.223985,54.5640066 143.960017,55.224 140.504,55.224 C137.047983,55.224 133.784015,54.5640066 130.712,53.244 C127.639985,51.9239934 124.964011,50.1240114 122.684,47.844 C120.403989,45.5639886 118.604007,42.8880154 117.284,39.816 C115.963993,36.7439846 115.304,33.4800173 115.304,30.024 L115.304,30.024 Z M130.424,30.024 C130.424,31.416007 130.687997,32.7239939 131.216,33.948 C131.744003,35.1720061 132.463995,36.2399954 133.376,37.152 C134.288005,38.0640046 135.355994,38.7839974 136.58,39.312 C137.804006,39.8400026 139.111993,40.104 140.504,40.104 C141.896007,40.104 143.203994,39.8400026 144.428,39.312 C145.652006,38.7839974 146.719995,38.0640046 147.632,37.152 C148.544005,36.2399954 149.263997,35.1720061 149.792,33.948 C150.320003,32.7239939 150.584,31.416007 150.584,30.024 C150.584,28.631993 150.320003,27.3240061 149.792,26.1 C149.263997,24.8759939 148.544005,23.8080046 147.632,22.896 C146.719995,21.9839954 145.652006,21.2640026 144.428,20.736 C143.203994,20.2079974 141.896007,19.944 140.504,19.944 C139.111993,19.944 137.804006,20.2079974 136.58,20.736 C135.355994,21.2640026 134.288005,21.9839954 133.376,22.896 C132.463995,23.8080046 131.744003,24.8759939 131.216,26.1 C130.687997,27.3240061 130.424,28.631993 130.424,30.024 L130.424,30.024 Z M172.984,29.16 L160.24,5.976 L177.016,5.976 L181.336,13.824 L185.656,5.976 L202.504,5.976 L189.76,29.16 L203.44,54 L186.664,54 L181.336,44.424 L176.08,54 L159.304,54 L172.984,29.16 Z" id="VELOX" fill="#FFFFFF"></path>
            <path d="M211.592,5.976 L230.384,5.976 C232.784012,5.976 234.97999,6.25199724 236.972,6.804 C238.96401,7.35600276 240.667993,8.1719946 242.084,9.252 C243.500007,10.3320054 244.603996,11.675992 245.396,13.284 C246.188004,14.892008 246.584,16.7759892 246.584,18.936 C246.584,20.4720077 246.392002,21.7799946 246.008,22.86 C245.623998,23.9400054 245.216002,24.8399964 244.784,25.56 C244.255997,26.4240043 243.656003,27.1439971 242.984,27.72 C244.040005,28.3920034 244.999996,29.2559947 245.864,30.312 C246.584004,31.2240046 247.243997,32.375993 247.844,33.768 C248.444003,35.160007 248.744,36.8639899 248.744,38.88 C248.744,41.1840115 248.336004,43.2719906 247.52,45.144 C246.703996,47.0160094 245.540008,48.6119934 244.028,49.932 C242.515992,51.2520066 240.668011,52.2599965 238.484,52.956 C236.299989,53.6520035 233.864013,54 231.176,54 L211.592,54 L211.592,5.976 Z M228.152,42.696 C231.800018,42.696 233.624,41.3040139 233.624,38.52 C233.624,35.7359861 231.800018,34.344 228.152,34.344 L226.424,34.344 L226.424,42.696 L228.152,42.696 Z M231.752,20.592 C231.752,18.383989 230.552012,17.28 228.152,17.28 L226.424,17.28 L226.424,23.904 L228.152,23.904 C230.552012,23.904 231.752,22.800011 231.752,20.592 L231.752,20.592 Z M251.904,30.024 C251.904,26.5679827 252.563993,23.3040154 253.884,20.232 C255.204007,17.1599846 257.003989,14.4840114 259.284,12.204 C261.564011,9.9239886 264.239985,8.1240066 267.312,6.804 C270.384015,5.4839934 273.647983,4.824 277.104,4.824 C280.560017,4.824 283.823985,5.4839934 286.896,6.804 C289.968015,8.1240066 292.643989,9.9239886 294.924,12.204 C297.204011,14.4840114 299.003993,17.1599846 300.324,20.232 C301.644007,23.3040154 302.304,26.5679827 302.304,30.024 C302.304,33.4800173 301.644007,36.7439846 300.324,39.816 C299.003993,42.8880154 297.204011,45.5639886 294.924,47.844 C292.643989,50.1240114 289.968015,51.9239934 286.896,53.244 C283.823985,54.5640066 280.560017,55.224 277.104,55.224 C273.647983,55.224 270.384015,54.5640066 267.312,53.244 C264.239985,51.9239934 261.564011,50.1240114 259.284,47.844 C257.003989,45.5639886 255.204007,42.8880154 253.884,39.816 C252.563993,36.7439846 251.904,33.4800173 251.904,30.024 L251.904,30.024 Z M267.024,30.024 C267.024,31.416007 267.287997,32.7239939 267.816,33.948 C268.344003,35.1720061 269.063995,36.2399954 269.976,37.152 C270.888005,38.0640046 271.955994,38.7839974 273.18,39.312 C274.404006,39.8400026 275.711993,40.104 277.104,40.104 C278.496007,40.104 279.803994,39.8400026 281.028,39.312 C282.252006,38.7839974 283.319995,38.0640046 284.232,37.152 C285.144005,36.2399954 285.863997,35.1720061 286.392,33.948 C286.920003,32.7239939 287.184,31.416007 287.184,30.024 C287.184,28.631993 286.920003,27.3240061 286.392,26.1 C285.863997,24.8759939 285.144005,23.8080046 284.232,22.896 C283.319995,21.9839954 282.252006,21.2640026 281.028,20.736 C279.803994,20.2079974 278.496007,19.944 277.104,19.944 C275.711993,19.944 274.404006,20.2079974 273.18,20.736 C271.955994,21.2640026 270.888005,21.9839954 269.976,22.896 C269.063995,23.8080046 268.344003,24.8759939 267.816,26.1 C267.287997,27.3240061 267.024,28.631993 267.024,30.024 L267.024,30.024 Z M312.984,29.16 L300.24,5.976 L317.016,5.976 L321.336,13.824 L325.656,5.976 L342.504,5.976 L329.76,29.16 L343.44,54 L326.664,54 L321.336,44.424 L316.08,54 L299.304,54 L312.984,29.16 Z" id="box" fill="#40424E"></path>
        </g>
    </g>
</svg>