<svg xmlns="http://www.w3.org/2000/svg" xmlns:xlink="http://www.w3.org/1999/xlink" preserveAspectRatio="xMidYMid" width="19" height="19" viewBox="0 0 19 19">
    <g>
        <path d="M15.697,9.466 C15.610,9.541 15.495,9.577 15.382,9.559 C15.100,9.519 14.866,9.500 14.646,9.500 C11.809,9.500 9.501,11.809 9.501,14.646 C9.501,14.866 9.520,15.100 9.560,15.381 C9.576,15.495 9.542,15.610 9.467,15.697 C9.392,15.783 9.283,15.833 9.168,15.833 L0.397,15.833 C0.178,15.833 0.001,15.656 0.001,15.438 L0.001,5.937 C0.001,5.719 0.178,5.542 0.397,5.542 L5.147,5.542 C5.366,5.542 5.543,5.719 5.543,5.937 L5.543,7.521 C5.543,7.739 5.720,7.917 5.938,7.917 L9.896,7.917 C10.115,7.917 10.292,7.739 10.292,7.521 L10.291,5.938 C10.291,5.833 10.332,5.732 10.407,5.658 C10.481,5.583 10.581,5.542 10.686,5.542 L15.438,5.542 C15.657,5.542 15.834,5.719 15.834,5.937 L15.834,9.167 C15.834,9.282 15.784,9.391 15.697,9.466 ZM15.438,4.750 L10.685,4.750 C10.467,4.750 10.290,4.573 10.290,4.355 L10.289,3.949 L9.973,0.431 C9.963,0.320 10.000,0.211 10.075,0.129 C10.150,0.047 10.256,-0.000 10.367,-0.000 L13.289,-0.000 C13.434,-0.000 13.568,0.079 13.637,0.207 L15.786,4.165 C15.852,4.288 15.849,4.437 15.778,4.557 C15.706,4.677 15.577,4.750 15.438,4.750 ZM5.147,4.750 L0.397,4.750 C0.257,4.750 0.128,4.677 0.057,4.557 C-0.015,4.437 -0.017,4.288 0.049,4.165 L2.198,0.207 C2.267,0.079 2.401,-0.000 2.546,-0.000 L5.469,-0.000 C5.580,-0.000 5.686,0.047 5.761,0.129 C5.836,0.211 5.873,0.320 5.863,0.431 L5.543,4.354 C5.543,4.573 5.366,4.750 5.147,4.750 Z" fill-rule="evenodd" fill="#40434e"/>
        <path d="M14.646,10.292 C12.245,10.292 10.292,12.245 10.292,14.646 C10.292,17.047 12.245,19.000 14.646,19.000 C17.047,19.000 19.000,17.047 19.000,14.646 C19.000,12.245 17.047,10.292 14.646,10.292 ZM14.646,17.417 C14.428,17.417 14.250,17.239 14.250,17.021 C14.250,16.802 14.428,16.625 14.646,16.625 C14.865,16.625 15.042,16.802 15.042,17.021 C15.042,17.239 14.865,17.417 14.646,17.417 ZM15.042,15.438 C15.042,15.656 14.865,15.833 14.646,15.833 C14.427,15.833 14.250,15.656 14.250,15.438 L14.250,12.271 C14.250,12.052 14.427,11.875 14.646,11.875 C14.865,11.875 15.042,12.052 15.042,12.271 L15.042,15.438 Z" fill-rule="evenodd" fill="#ffde00"/>
    </g>
</svg>