<svg xmlns="http://www.w3.org/2000/svg" xmlns:xlink="http://www.w3.org/1999/xlink" preserveAspectRatio="xMidYMid" width="18" height="20" viewBox="0 0 18 20">

    <g>
        <path d="M17.507,15.728 L17.023,15.231 C17.205,15.139 17.332,14.944 17.332,14.717 L17.332,14.006 L17.332,11.002 L17.332,5.437 C17.332,5.121 17.088,4.864 16.788,4.864 L6.904,4.864 L6.233,4.176 L16.788,4.176 C17.458,4.176 18.003,4.742 18.003,5.437 L18.003,14.717 C18.003,15.132 17.806,15.497 17.507,15.728 ZM13.730,14.006 L14.982,15.289 L15.652,15.976 L17.563,17.934 L17.837,20.005 L13.906,15.977 L13.235,15.289 L11.983,14.006 L9.051,11.002 L3.059,4.864 L2.388,4.176 L0.330,2.066 L0.055,-0.005 L4.136,4.176 L4.807,4.864 L10.798,11.002 L13.730,14.006 ZM0.518,4.408 L1.006,4.908 C0.810,4.995 0.672,5.199 0.672,5.437 L0.672,11.002 L0.672,14.006 L0.672,14.716 C0.672,15.032 0.916,15.289 1.216,15.289 L11.138,15.289 L11.809,15.977 L1.216,15.977 C0.546,15.977 0.001,15.411 0.001,14.716 L0.001,5.437 C0.001,5.012 0.206,4.637 0.518,4.408 Z" fill-rule="evenode" fill="#2d303b"/>
        <path d="M15.827,14.006 L12.895,11.002 L17.332,11.002 L17.332,14.006 L15.827,14.006 ZM0.672,11.002 L6.954,11.002 L9.886,14.006 L0.672,14.006 L0.672,11.002 Z" fill-rule="evenode" fill="#ffde00"/>
    </g>
</svg>