<svg xmlns="http://www.w3.org/2000/svg" xmlns:xlink="http://www.w3.org/1999/xlink" preserveAspectRatio="xMidYMid" width="17" height="17" viewBox="0 0 17 17">
    <g>
        <path d="M13.832,8.500 C13.832,8.732 13.909,9.041 13.909,9.273 C13.909,10.895 13.291,12.364 12.286,13.445 C12.055,12.827 11.514,12.364 10.818,12.364 L10.045,12.364 L10.045,10.045 C10.045,9.582 9.736,9.273 9.273,9.273 L4.636,9.273 L4.636,7.727 L6.182,7.727 C6.645,7.727 6.955,7.418 6.955,6.955 L6.955,5.409 L8.500,5.409 C9.350,5.409 10.045,4.714 10.045,3.864 L10.045,1.932 C9.350,1.700 8.500,1.545 7.727,1.545 C3.477,1.545 -0.000,5.023 -0.000,9.273 C-0.000,13.523 3.477,17.000 7.727,17.000 C11.977,17.000 15.455,13.523 15.455,9.273 C15.455,9.041 15.455,8.732 15.377,8.500 L13.832,8.500 ZM6.955,15.377 C3.941,14.991 1.545,12.364 1.545,9.273 C1.545,8.809 1.623,8.345 1.700,7.882 L5.409,11.591 L5.409,12.364 C5.409,13.214 6.105,13.909 6.955,13.909 L6.955,15.377 Z" fill-rule="evenode" fill="#40434e"/>
        <path d="M16.227,2.318 L16.227,1.932 C16.227,0.850 15.377,-0.000 14.295,-0.000 C13.214,-0.000 12.364,0.850 12.364,1.932 L12.364,2.318 C11.900,2.318 11.591,2.627 11.591,3.091 L11.591,6.182 C11.591,6.645 11.900,6.955 12.364,6.955 L16.227,6.955 C16.691,6.955 17.000,6.645 17.000,6.182 L17.000,3.091 C17.000,2.627 16.691,2.318 16.227,2.318 ZM15.609,2.318 L12.982,2.318 L12.982,1.932 C12.982,1.236 13.600,0.618 14.295,0.618 C14.991,0.618 15.609,1.236 15.609,1.932 L15.609,2.318 L15.609,2.318 Z" fill-rule="evenode" fill="#fbdb02"/>
    </g>
</svg>