<svg xmlns="http://www.w3.org/2000/svg" xmlns:xlink="http://www.w3.org/1999/xlink" preserveAspectRatio="xMidYMid" width="23" height="16" viewBox="0 0 23 16">
    <g>
        <path d="M22.543,12.677 L21.088,12.677 C21.128,12.864 21.151,13.056 21.151,13.254 C21.151,14.768 19.919,16.000 18.405,16.000 C16.891,16.000 15.658,14.768 15.658,13.254 C15.658,13.056 15.682,12.864 15.721,12.677 L12.363,12.677 L11.649,12.677 L8.055,12.677 C8.095,12.864 8.117,13.056 8.117,13.254 C8.117,14.768 6.886,16.000 5.371,16.000 C3.857,16.000 2.625,14.768 2.625,13.254 C2.625,13.056 2.648,12.864 2.688,12.677 L0.479,12.677 C0.214,12.677 0.000,12.463 0.000,12.198 L0.000,11.386 C0.000,11.122 0.214,10.907 0.479,10.907 L3.967,10.907 C4.379,10.659 4.856,10.508 5.371,10.508 C5.886,10.508 6.364,10.659 6.776,10.907 L9.832,10.907 L10.820,11.964 C11.046,12.206 11.353,12.329 11.660,12.329 C11.942,12.329 12.223,12.226 12.445,12.019 C12.909,11.585 12.934,10.857 12.500,10.393 L11.704,9.542 L13.073,2.509 C13.114,2.294 13.303,2.139 13.522,2.139 L18.235,2.139 C18.428,2.139 18.601,2.260 18.666,2.441 L20.357,7.110 C20.422,7.289 20.592,7.410 20.784,7.411 L21.212,7.415 C22.202,7.423 23.000,8.227 23.000,9.217 L23.000,12.220 C23.000,12.473 22.795,12.677 22.543,12.677 ZM5.371,12.041 C4.703,12.041 4.158,12.585 4.158,13.254 C4.158,13.923 4.703,14.467 5.371,14.467 C6.041,14.467 6.584,13.923 6.584,13.254 C6.584,12.585 6.041,12.041 5.371,12.041 ZM17.627,3.659 C17.600,3.569 17.518,3.508 17.425,3.508 L14.519,3.508 C14.417,3.508 14.329,3.582 14.312,3.683 L13.998,5.574 C13.987,5.635 14.004,5.698 14.044,5.745 C14.084,5.792 14.143,5.819 14.204,5.819 L17.982,5.819 C18.048,5.819 18.110,5.788 18.150,5.735 C18.190,5.682 18.202,5.613 18.183,5.549 L17.627,3.659 ZM18.404,12.041 C17.736,12.041 17.192,12.585 17.192,13.254 C17.192,13.923 17.736,14.467 18.404,14.467 C19.074,14.467 19.617,13.923 19.617,13.254 C19.617,12.585 19.074,12.041 18.404,12.041 ZM11.922,11.459 C11.847,11.528 11.754,11.562 11.660,11.562 C11.558,11.562 11.455,11.521 11.380,11.440 L1.285,0.645 C1.141,0.490 1.149,0.248 1.304,0.103 C1.458,-0.041 1.701,-0.034 1.845,0.121 L11.940,10.917 C12.084,11.071 12.077,11.314 11.922,11.459 Z" fill-rule="evenode" fill="#40434e"/>
        <path d="M7.586,5.138 L10.254,5.138 C10.519,5.138 10.733,5.353 10.733,5.617 L10.733,8.504 L7.586,5.138 ZM9.209,4.178 L6.688,4.178 L4.898,2.264 L4.898,1.811 C4.898,1.546 5.113,1.332 5.377,1.332 L9.209,1.332 C9.474,1.332 9.688,1.546 9.688,1.811 L9.688,3.699 C9.688,3.963 9.474,4.178 9.209,4.178 ZM3.519,9.973 L0.479,9.973 C0.214,9.973 -0.000,9.759 0.000,9.494 L0.000,7.382 C0.000,7.117 0.214,6.903 0.479,6.903 L3.519,6.903 C3.784,6.903 3.998,7.117 3.998,7.382 L3.998,9.494 C3.998,9.759 3.784,9.973 3.519,9.973 ZM3.519,6.024 L2.208,6.024 C1.944,6.024 1.729,5.810 1.729,5.545 L1.729,2.241 L3.998,4.668 L3.998,5.545 C3.998,5.810 3.784,6.024 3.519,6.024 ZM3.519,0.550 C3.784,0.550 3.998,0.764 3.998,1.029 L3.998,1.301 L3.296,0.550 L3.519,0.550 ZM5.377,9.973 C5.113,9.973 4.898,9.759 4.898,9.494 L4.898,5.631 L8.959,9.973 L5.377,9.973 Z" fill-rule="evenode" fill="#fbdb02"/>
    </g>
</svg>