<svg xmlns="http://www.w3.org/2000/svg" xmlns:xlink="http://www.w3.org/1999/xlink" preserveAspectRatio="xMidYMid" width="64" height="64" viewBox="0 0 64 64">
    <defs>
        <style>
            .cls-1 {
            fill: #f3f3f3;
            }

            .cls-2 {
            fill: #fff;
            fill-rule: evenodd;
            }
        </style>
    </defs>
    <g>
        <circle cx="33" cy="33" r="33" class="cls-1"/>
        <path d="M42.965,37.733 L37.150,34.868 C36.602,34.597 36.261,34.054 36.261,33.449 L36.261,31.420 C36.400,31.252 36.547,31.061 36.699,30.850 C37.453,29.800 38.057,28.631 38.497,27.370 C39.356,26.982 39.913,26.145 39.913,25.200 L39.913,22.800 C39.913,22.222 39.694,21.662 39.304,21.225 L39.304,18.034 C39.338,17.704 39.472,15.739 38.031,14.119 C36.781,12.713 34.752,12.000 32.000,12.000 C29.248,12.000 27.219,12.713 25.969,14.118 C24.528,15.739 24.662,17.704 24.696,18.034 L24.696,21.225 C24.306,21.662 24.087,22.222 24.087,22.800 L24.087,25.200 C24.087,25.930 24.424,26.611 24.998,27.065 C25.556,29.242 26.723,30.881 27.130,31.408 L27.130,33.393 C27.130,33.974 26.809,34.507 26.292,34.785 L20.862,37.705 C19.096,38.654 18.000,40.475 18.000,42.457 L18.000,44.400 C18.000,47.248 27.158,48.000 32.000,48.000 C36.842,48.000 46.000,47.248 46.000,44.400 L46.000,42.574 C46.000,40.511 44.837,38.656 42.965,37.733 Z" class="cls-2"/>
    </g>
</svg>
