<svg xmlns="http://www.w3.org/2000/svg" width="17" height="17" viewBox="0 0 17 17">
  <metadata><?xpacket begin="﻿" id="W5M0MpCehiHzreSzNTczkc9d"?>
<x:xmpmeta xmlns:x="adobe:ns:meta/" x:xmptk="Adobe XMP Core 5.6-c138 79.159824, 2016/09/14-01:09:01        ">
   <rdf:RDF xmlns:rdf="http://www.w3.org/1999/02/22-rdf-syntax-ns#">
      <rdf:Description rdf:about=""/>
   </rdf:RDF>
</x:xmpmeta>
                                                                                                    
                                                                                                    
                                                                                                    
                                                                                                    
                                                                                                    
                                                                                                    
                                                                                                    
                                                                                                    
                                                                                                    
                                                                                                    
                                                                                                    
                                                                                                    
                                                                                                    
                                                                                                    
                                                                                                    
                                                                                                    
                                                                                                    
                                                                                                    
                                                                                                    
                                                                                                    
                           
<?xpacket end="w"?></metadata>
<defs>
    <style>
      .cls-1 {
        fill: #40434e;
        fill-rule: evenodd;
      }
    </style>
  </defs>
  <path id="Forma_1_copy_6" data-name="Forma 1 copy 6" class="cls-1" d="M702.735,465.588a1.184,1.184,0,0,0,1.2-1.176V463.18a1.2,1.2,0,0,0-2.393,0v1.232A1.184,1.184,0,0,0,702.735,465.588Zm4.252-1.547h-2.41v0.6a1.822,1.822,0,0,1-3.643,0v-0.6h-4.863v0.6a1.823,1.823,0,0,1-3.645,0v-0.6l-2.431-.03V479H705.79l1.215,0Zm-1.2,13.764H691.21V468.23h14.58v9.575h0Zm-11.56-12.217a1.185,1.185,0,0,0,1.2-1.176V463.18a1.2,1.2,0,0,0-2.393,0v1.232A1.184,1.184,0,0,0,694.23,465.588Zm1.845,3.927h1.915v1.664h-1.915v-1.664Zm3.095,0h1.916v1.664H699.17v-1.664Zm2.872,0h1.915v1.664h-1.915v-1.664Zm-5.967,2.765h1.915v1.663h-1.915V472.28Zm3.095,0h1.916v1.663H699.17V472.28Zm2.872,0h1.915v1.663h-1.915V472.28Zm-5.967,2.819h1.915v1.663h-1.915V475.1Zm-3.041-2.819h1.913v1.663h-1.913V472.28Zm0,2.819h1.913v1.663h-1.913V475.1Zm6.136,0h1.916v1.663H699.17V475.1Zm2.872,0h1.915v1.663h-1.915V475.1Z" transform="translate(-690 -462)"/>
</svg>
