<svg xmlns="http://www.w3.org/2000/svg" xmlns:xlink="http://www.w3.org/1999/xlink" preserveAspectRatio="xMidYMid" width="29.75" height="26.719" viewBox="0 0 29.75 26.719">
    <defs>
        <style>
            .cls-1 {
            fill: #40434e;
            }

            .cls-1, .cls-2 {
            fill-rule: evenodd;
            }

            .cls-2 {
            fill: #fac70f;
            }
        </style>
    </defs>
    <g>
        <path d="M29.605,5.686 L21.819,13.316 L15.871,13.316 L13.888,11.373 L13.888,11.851 C13.888,15.671 12.208,19.312 9.342,21.847 L6.537,21.847 C3.671,19.312 1.991,15.671 1.991,11.851 L1.991,5.829 C1.991,5.670 2.070,5.522 2.203,5.431 C2.335,5.340 2.504,5.319 2.657,5.372 C4.593,6.062 6.641,6.359 8.675,6.265 L8.085,5.686 C7.992,5.596 7.940,5.472 7.940,5.343 L7.940,0.486 C7.940,0.290 8.061,0.112 8.246,0.037 C8.307,0.012 8.371,0.004 8.435,0.004 L8.435,0.000 L29.254,0.000 L29.254,0.004 C29.318,0.004 29.382,0.012 29.444,0.037 C29.629,0.112 29.750,0.290 29.750,0.486 L29.750,5.343 C29.750,5.472 29.698,5.596 29.605,5.686 ZM13.888,9.999 L16.572,12.629 L17.648,12.629 L13.888,8.944 L13.888,9.999 ZM13.888,7.571 L19.050,12.629 L20.127,12.629 L13.888,6.516 L13.888,7.571 ZM18.845,9.999 L24.092,4.857 L13.597,4.857 L18.845,9.999 ZM25.084,3.886 L26.075,2.914 L11.615,2.914 L12.606,3.886 L25.084,3.886 ZM2.983,6.507 L2.983,11.851 C2.983,15.714 4.829,19.383 7.940,21.736 C11.050,19.382 12.897,15.714 12.897,11.851 L12.897,6.507 C9.675,7.504 6.204,7.504 2.983,6.507 ZM10.886,6.003 L8.931,4.087 L8.931,5.142 L9.963,6.153 C10.272,6.113 10.579,6.061 10.886,6.003 ZM8.931,2.713 L12.024,5.744 C12.301,5.670 12.575,5.586 12.848,5.497 L8.931,1.658 L8.931,2.713 ZM9.632,0.971 L10.623,1.943 L27.066,1.943 L28.058,0.971 L9.632,0.971 ZM28.759,1.658 L19.546,10.686 L20.084,11.214 L28.759,2.713 L28.759,1.658 ZM28.759,4.087 L20.785,11.900 L21.323,12.428 L28.759,5.142 L28.759,4.087 Z" class="cls-1"/>
        <path d="M18.845,23.315 C16.385,23.315 14.384,21.354 14.384,18.944 C14.384,17.653 14.961,16.495 15.871,15.694 L15.871,12.692 L21.819,12.692 L21.819,15.694 C22.729,16.495 23.306,17.653 23.306,18.944 C23.306,21.354 21.304,23.315 18.845,23.315 ZM20.828,13.600 L16.862,13.600 L16.862,15.033 C17.460,14.741 18.132,14.572 18.845,14.572 C19.558,14.572 20.229,14.741 20.828,15.033 L20.828,13.600 ZM18.845,15.543 C16.932,15.543 15.375,17.069 15.375,18.944 C15.375,20.818 16.932,22.344 18.845,22.344 C20.758,22.344 22.315,20.818 22.315,18.944 C22.315,17.069 20.758,15.543 18.845,15.543 ZM18.845,21.372 C17.478,21.372 16.366,20.283 16.366,18.944 C16.366,17.604 17.478,16.515 18.845,16.515 C20.211,16.515 21.323,17.604 21.323,18.944 C21.323,20.283 20.211,21.372 18.845,21.372 ZM18.845,17.486 C18.025,17.486 17.358,18.140 17.358,18.944 C17.358,19.747 18.025,20.401 18.845,20.401 C19.665,20.401 20.332,19.747 20.332,18.944 C20.332,18.140 19.665,17.486 18.845,17.486 ZM15.871,26.230 C15.871,26.498 15.649,26.715 15.375,26.715 L0.504,26.715 C0.231,26.715 0.009,26.498 0.009,26.230 C0.009,24.890 1.120,23.801 2.487,23.801 L2.537,23.801 C2.767,22.694 3.768,21.858 4.966,21.858 L6.549,21.858 L9.331,21.858 L10.914,21.858 C12.110,21.858 13.112,22.694 13.342,23.801 L13.392,23.801 C14.759,23.801 15.871,24.890 15.871,26.230 ZM13.392,24.772 L12.897,24.772 C12.623,24.772 12.401,24.555 12.401,24.287 C12.401,23.483 11.734,22.829 10.914,22.829 L4.966,22.829 C4.146,22.829 3.478,23.483 3.478,24.287 C3.478,24.555 3.256,24.772 2.983,24.772 L2.487,24.772 C1.841,24.772 1.289,25.178 1.085,25.744 L14.795,25.744 C14.590,25.178 14.039,24.772 13.392,24.772 ZM10.418,16.515 L9.427,16.515 L9.427,15.543 L10.418,15.543 L10.418,16.515 ZM8.435,16.515 L7.444,16.515 L7.444,15.543 L8.435,15.543 L8.435,16.515 ZM6.453,16.515 L5.461,16.515 L5.461,15.543 L6.453,15.543 L6.453,16.515 ZM7.940,14.572 C6.299,14.572 4.966,13.265 4.966,11.658 C4.966,10.050 6.299,8.743 7.940,8.743 C9.580,8.743 10.914,10.050 10.914,11.658 C10.914,13.265 9.580,14.572 7.940,14.572 ZM7.940,9.715 C6.846,9.715 5.957,10.586 5.957,11.658 C5.957,12.729 6.846,13.600 7.940,13.600 C9.033,13.600 9.922,12.729 9.922,11.658 C9.922,10.586 9.033,9.715 7.940,9.715 Z" class="cls-2"/>
    </g>
</svg>