<svg xmlns="http://www.w3.org/2000/svg" xmlns:xlink="http://www.w3.org/1999/xlink" preserveAspectRatio="xMidYMid" width="31" height="31" viewBox="0 0 31 31">
    <defs>
        <style>
            .cls-1 {
            fill: #2d303b;
            }

            .cls-1, .cls-2 {
            fill-rule: evenodd;
            }

            .cls-2 {
            fill: #ffc800;
            }
        </style>
    </defs>
    <g>
        <path d="M29.781,12.645 C29.578,12.459 29.400,12.351 29.269,12.273 C29.191,12.226 29.138,12.194 29.080,12.148 C28.883,11.921 28.864,11.696 29.020,11.443 C29.315,10.963 29.472,10.336 29.460,9.678 C29.457,9.498 29.441,9.336 29.411,9.192 L29.422,9.191 C29.250,7.891 28.400,6.726 27.204,6.151 C26.550,5.837 25.983,5.821 25.875,5.821 L25.874,5.821 C25.483,5.803 25.477,5.798 25.303,5.638 C25.236,5.577 25.215,5.518 25.175,5.120 C25.108,4.447 25.006,3.429 23.753,2.421 C23.047,1.853 22.160,1.540 21.254,1.540 C20.788,1.540 20.349,1.623 19.948,1.786 C19.741,1.871 19.593,1.954 19.485,2.014 C19.444,2.037 19.387,2.069 19.372,2.074 C19.372,2.074 19.335,2.084 19.222,2.084 L19.190,2.084 C18.941,2.048 18.892,1.996 18.649,1.602 C18.166,0.821 17.011,0.023 15.515,0.000 L15.500,-0.000 L15.484,0.000 L15.433,0.001 C14.018,0.042 12.899,0.693 12.184,1.885 C12.138,1.960 11.988,2.080 11.778,2.080 C11.697,2.080 11.611,2.062 11.522,2.027 L11.442,1.982 C11.237,1.864 11.095,1.787 10.752,1.682 C10.447,1.589 10.099,1.541 9.718,1.541 C9.716,1.541 9.714,1.541 9.712,1.541 C9.558,1.541 9.382,1.542 9.207,1.576 C8.295,1.694 7.461,2.134 6.787,2.854 C5.905,3.795 5.852,4.681 5.820,5.210 C5.814,5.309 5.808,5.411 5.798,5.459 C5.783,5.531 5.640,5.823 5.254,5.823 L5.229,5.822 L5.155,5.821 C4.614,5.821 4.001,6.005 3.473,6.326 C3.136,6.531 2.819,6.753 2.616,7.018 C1.870,7.796 1.472,8.915 1.550,10.035 C1.599,10.738 1.801,11.112 1.948,11.386 C2.023,11.526 2.058,11.592 2.082,11.714 C2.087,11.940 2.031,12.061 1.857,12.199 L1.671,12.309 C0.810,12.821 0.201,13.803 0.042,14.937 C-0.128,16.147 0.242,17.336 1.056,18.198 C1.239,18.392 1.449,18.540 1.633,18.670 C2.084,18.987 2.141,19.040 2.064,19.382 C2.036,19.456 2.000,19.524 1.952,19.614 C1.796,19.906 1.583,20.307 1.544,21.074 C1.471,22.481 2.150,23.801 3.359,24.606 C4.073,25.081 4.710,25.144 5.176,25.190 C5.647,25.236 5.647,25.236 5.793,25.529 C5.807,25.558 5.815,25.714 5.820,25.807 C5.846,26.311 5.884,27.074 6.685,28.034 C7.431,28.927 8.573,29.460 9.738,29.460 C9.953,29.460 10.171,29.442 10.384,29.407 C10.835,29.333 11.172,29.168 11.418,29.047 C11.593,28.961 11.696,28.913 11.764,28.913 C11.797,28.913 11.868,28.920 11.995,28.970 C12.133,29.045 12.147,29.069 12.236,29.218 C12.377,29.456 12.592,29.816 13.143,30.233 C13.798,30.728 14.630,31.000 15.487,31.000 C16.036,31.000 16.575,30.890 17.089,30.674 C18.086,30.255 18.464,29.681 18.714,29.301 C18.879,29.051 18.913,28.999 19.098,28.936 C19.184,28.919 19.238,28.915 19.269,28.915 C19.324,28.915 19.351,28.924 19.566,29.034 C19.650,29.077 19.739,29.122 19.839,29.169 C20.124,29.301 20.471,29.388 20.701,29.421 L20.701,29.421 C20.865,29.448 21.056,29.462 21.268,29.462 C21.326,29.462 21.381,29.459 21.433,29.454 L21.433,29.458 C21.532,29.455 21.631,29.447 21.729,29.436 L21.793,29.436 L21.794,29.428 C23.468,29.205 24.908,27.858 25.152,26.223 C25.185,26.003 25.187,25.831 25.189,25.705 C25.190,25.554 25.191,25.541 25.271,25.413 C25.433,25.206 25.486,25.203 25.842,25.184 L26.001,25.175 C26.906,25.115 27.804,24.648 28.463,23.893 C29.173,23.080 29.524,22.042 29.451,20.969 C29.405,20.306 29.234,19.947 29.048,19.607 C28.973,19.470 28.940,19.410 28.918,19.287 C28.904,19.001 28.932,18.981 29.321,18.697 C29.829,18.326 30.598,17.765 30.907,16.366 C31.206,15.010 30.764,13.549 29.781,12.645 ZM29.931,16.150 C29.472,18.229 27.826,17.654 27.923,19.392 C28.028,20.122 28.391,20.130 28.453,21.037 C28.570,22.754 27.232,24.091 25.934,24.178 C25.433,24.211 24.964,24.166 24.449,24.841 C24.083,25.424 24.238,25.574 24.163,26.075 C23.970,27.367 22.730,28.413 21.399,28.459 C21.401,28.459 21.402,28.459 21.403,28.459 C21.409,28.459 21.353,28.462 21.268,28.462 C21.158,28.462 21.000,28.457 20.863,28.434 C20.870,28.435 20.872,28.436 20.871,28.436 C20.860,28.436 20.531,28.388 20.260,28.262 C19.878,28.084 19.665,27.915 19.269,27.915 C19.147,27.915 19.008,27.931 18.840,27.968 C17.687,28.330 18.099,29.164 16.701,29.753 C16.295,29.923 15.883,30.000 15.487,30.000 C14.825,30.000 14.209,29.785 13.746,29.435 C12.915,28.807 13.233,28.495 12.420,28.063 C12.161,27.955 11.950,27.913 11.764,27.913 C11.195,27.913 10.877,28.312 10.221,28.421 C10.059,28.447 9.897,28.460 9.738,28.460 C8.818,28.460 7.984,28.029 7.453,27.393 C6.536,26.295 6.989,25.684 6.687,25.082 C6.008,23.724 5.116,24.575 3.913,23.774 C2.929,23.119 2.493,22.080 2.542,21.126 C2.585,20.308 2.856,20.165 3.025,19.664 C3.359,18.267 2.256,18.012 1.783,17.511 C0.469,16.120 0.956,13.897 2.182,13.169 C2.182,13.169 2.314,13.093 2.399,13.042 C2.890,12.686 3.113,12.236 3.078,11.610 C2.969,10.889 2.609,10.853 2.548,9.966 C2.481,9.007 2.874,8.162 3.395,7.653 C3.393,7.654 3.392,7.655 3.392,7.655 C3.390,7.655 3.628,7.402 3.992,7.181 C4.396,6.935 4.831,6.821 5.155,6.821 C5.170,6.821 5.184,6.821 5.197,6.822 C5.217,6.822 5.235,6.823 5.254,6.823 C6.111,6.823 6.667,6.204 6.778,5.658 C6.880,5.157 6.688,4.422 7.517,3.537 C8.080,2.936 8.743,2.626 9.414,2.559 C9.397,2.561 9.387,2.561 9.382,2.561 C9.359,2.561 9.504,2.541 9.718,2.541 C9.929,2.541 10.207,2.561 10.459,2.638 C10.773,2.734 10.809,2.775 11.079,2.926 C11.322,3.034 11.558,3.080 11.778,3.080 C12.354,3.080 12.824,2.762 13.041,2.400 C13.617,1.440 14.458,1.029 15.449,1.001 L15.500,1.000 C16.655,1.018 17.488,1.626 17.798,2.127 C18.107,2.629 18.362,2.987 19.114,3.082 C19.152,3.084 19.188,3.084 19.222,3.084 C19.805,3.084 19.853,2.906 20.326,2.712 C20.607,2.598 20.924,2.540 21.254,2.540 C21.891,2.540 22.575,2.756 23.126,3.200 C24.729,4.489 23.763,5.583 24.627,6.375 C25.071,6.783 25.358,6.799 25.868,6.822 C25.862,6.822 25.864,6.821 25.875,6.821 C25.944,6.821 26.329,6.840 26.771,7.053 C27.714,7.506 28.311,8.419 28.431,9.322 L28.431,9.322 C28.431,9.322 28.457,9.484 28.461,9.695 C28.469,10.206 28.340,10.639 28.168,10.919 C27.779,11.551 27.830,12.283 28.385,12.870 C28.670,13.119 28.850,13.148 29.104,13.382 C29.815,14.035 30.160,15.110 29.931,16.150 Z" class="cls-1"/>
        <path d="M24.304,9.671 C23.204,8.599 21.748,8.013 20.194,8.013 C18.641,8.013 17.181,8.603 16.081,9.675 L15.507,10.235 L14.923,9.667 C13.824,8.595 12.359,8.000 10.806,8.000 C9.256,8.000 7.796,8.590 6.701,9.658 C5.601,10.730 4.996,12.154 5.000,13.669 C5.000,15.183 5.610,16.603 6.710,17.675 L15.070,25.826 C15.186,25.939 15.342,26.000 15.493,26.000 C15.645,26.000 15.801,25.944 15.916,25.831 L24.295,17.692 C25.394,16.620 26.000,15.197 26.000,13.682 C26.004,12.167 25.403,10.743 24.304,9.671 ZM23.449,16.863 L15.493,24.589 L7.556,16.850 C6.683,16.000 6.202,14.871 6.202,13.669 C6.202,12.466 6.679,11.338 7.551,10.492 C8.419,9.645 9.577,9.176 10.806,9.176 C12.039,9.176 13.201,9.645 14.073,10.496 L15.079,11.477 C15.315,11.707 15.694,11.707 15.930,11.477 L16.927,10.504 C17.799,9.654 18.961,9.185 20.190,9.185 C21.419,9.185 22.576,9.654 23.449,10.500 C24.321,11.351 24.798,12.479 24.798,13.682 C24.802,14.884 24.321,16.013 23.449,16.863 Z" class="cls-2"/>
    </g>
</svg>