<svg xmlns="http://www.w3.org/2000/svg" xmlns:xlink="http://www.w3.org/1999/xlink" preserveAspectRatio="xMidYMid" width="30" height="26.688" viewBox="0 0 30 26.688">
    <defs>
        <style>
            .cls-1 {
            fill: #2d303b;
            }

            .cls-1, .cls-2 {
            fill-rule: evenodd;
            }

            .cls-2 {
            fill: #fdcb12;
            }
        </style>
    </defs>
    <g>
        <path d="M28.131,21.493 C27.005,23.744 25.572,25.287 23.871,26.079 C21.424,27.218 18.603,26.505 17.139,25.980 C16.232,25.653 15.495,25.124 15.000,24.693 C14.505,25.124 13.768,25.653 12.861,25.980 C11.972,26.299 10.581,26.687 9.077,26.687 C8.107,26.688 7.089,26.526 6.129,26.079 C4.428,25.287 2.994,23.744 1.869,21.492 C0.706,19.167 0.034,14.653 0.006,14.462 C-0.018,14.295 0.032,14.126 0.143,13.998 C0.255,13.871 0.416,13.797 0.586,13.797 C0.586,13.797 0.587,13.797 0.587,13.797 L5.938,13.807 L9.297,13.760 L9.814,13.247 L12.141,10.941 L12.679,10.408 C11.902,9.366 11.111,7.906 11.111,6.276 C11.111,2.874 14.495,0.212 14.639,0.100 C14.851,-0.064 15.149,-0.064 15.361,0.100 C15.505,0.212 18.889,2.874 18.889,6.276 C18.889,7.906 18.098,9.366 17.321,10.408 L17.859,10.941 L20.667,13.842 L24.062,13.807 L29.413,13.798 C29.413,13.798 29.414,13.798 29.414,13.798 C29.584,13.798 29.745,13.871 29.857,13.998 C29.968,14.126 30.018,14.295 29.994,14.462 C29.966,14.653 29.294,19.167 28.131,21.493 ZM17.717,6.276 C17.717,4.038 15.814,2.066 15.000,1.326 C14.187,2.066 12.283,4.038 12.283,6.276 C12.283,7.530 12.888,8.699 13.518,9.576 L14.586,8.517 C14.600,8.503 14.615,8.490 14.630,8.478 C14.845,8.304 15.155,8.304 15.370,8.478 C15.385,8.490 15.400,8.503 15.414,8.517 L16.482,9.576 C17.112,8.699 17.717,7.530 17.717,6.276 ZM17.835,12.560 L16.127,10.867 C16.127,10.867 16.127,10.867 16.127,10.866 L15.000,9.750 L13.873,10.866 C13.873,10.867 13.873,10.867 13.873,10.867 L12.165,12.560 C12.165,12.560 12.164,12.560 12.164,12.560 L10.315,14.393 L15.000,19.038 L19.685,14.394 L17.835,12.560 ZM20.757,14.974 L15.414,20.270 C15.400,20.284 15.385,20.297 15.370,20.309 C15.155,20.483 14.845,20.483 14.630,20.309 C14.615,20.297 14.600,20.284 14.586,20.270 L9.243,14.974 L1.275,14.960 C1.505,16.297 2.090,19.319 2.919,20.977 C3.924,22.987 5.171,24.350 6.627,25.027 C8.691,25.988 11.169,25.352 12.462,24.887 C13.458,24.529 14.217,23.857 14.581,23.488 C14.691,23.376 14.842,23.313 15.000,23.313 C15.158,23.313 15.309,23.376 15.419,23.488 C15.783,23.857 16.541,24.529 17.538,24.887 C18.831,25.352 21.309,25.988 23.373,25.027 C24.828,24.350 26.076,22.987 27.081,20.977 C27.910,19.319 28.495,16.297 28.726,14.960 L20.757,14.974 ZM14.586,17.299 L12.069,14.804 C11.840,14.577 11.840,14.210 12.069,13.983 L14.586,11.488 C14.814,11.261 15.186,11.261 15.414,11.488 L17.931,13.983 C18.160,14.210 18.160,14.577 17.931,14.804 L15.414,17.299 C15.300,17.413 15.150,17.469 15.000,17.469 C14.850,17.469 14.700,17.413 14.586,17.299 ZM16.688,14.393 L15.000,12.720 L13.312,14.394 L15.000,16.067 L16.688,14.393 Z" class="cls-1"/>
        <path d="M24.015,7.825 C24.036,7.793 24.061,7.764 24.088,7.737 C24.224,7.602 24.426,7.540 24.616,7.578 C24.654,7.585 24.691,7.597 24.726,7.611 C24.762,7.626 24.796,7.644 24.827,7.665 C24.859,7.686 24.889,7.710 24.916,7.737 C24.943,7.764 24.968,7.793 24.989,7.825 C25.010,7.857 25.028,7.890 25.043,7.926 C25.057,7.961 25.069,7.997 25.076,8.034 C25.084,8.071 25.088,8.110 25.088,8.148 C25.088,8.185 25.084,8.224 25.076,8.261 C25.069,8.298 25.057,8.335 25.043,8.370 C25.028,8.405 25.010,8.439 24.989,8.470 C24.968,8.502 24.943,8.531 24.916,8.558 C24.807,8.666 24.656,8.728 24.502,8.728 C24.348,8.728 24.197,8.666 24.088,8.558 C24.061,8.531 24.036,8.502 24.015,8.470 C23.994,8.439 23.976,8.405 23.961,8.370 C23.947,8.335 23.935,8.298 23.928,8.261 C23.920,8.224 23.916,8.185 23.916,8.148 C23.916,8.110 23.920,8.071 23.928,8.034 C23.935,7.997 23.947,7.961 23.961,7.926 C23.976,7.890 23.994,7.857 24.015,7.825 ZM25.061,13.095 C24.791,13.363 24.443,13.599 24.062,13.807 L20.690,13.807 L19.384,12.399 L22.513,9.298 C22.742,9.071 23.113,9.071 23.342,9.298 C23.571,9.524 23.571,9.892 23.342,10.119 L20.186,13.247 L20.703,13.760 C21.647,13.547 23.486,13.013 24.232,12.273 C25.829,10.691 25.890,7.962 25.842,6.868 C24.739,6.822 21.986,6.882 20.390,8.464 C19.434,9.412 19.042,10.771 18.882,11.858 L17.900,10.800 C18.218,9.501 18.777,8.420 19.561,7.643 C21.988,5.237 26.280,5.727 26.462,5.749 C26.729,5.781 26.940,5.990 26.972,6.255 C26.994,6.435 27.488,10.689 25.061,13.095 ZM5.985,8.470 C5.964,8.502 5.939,8.531 5.912,8.558 C5.803,8.666 5.652,8.728 5.498,8.728 C5.460,8.728 5.421,8.725 5.384,8.717 C5.346,8.710 5.309,8.699 5.273,8.684 C5.238,8.670 5.204,8.652 5.173,8.631 C5.140,8.609 5.111,8.585 5.084,8.558 C5.057,8.531 5.032,8.502 5.011,8.470 C4.989,8.439 4.972,8.405 4.957,8.369 C4.942,8.335 4.931,8.298 4.923,8.261 C4.916,8.224 4.912,8.185 4.912,8.148 C4.912,8.110 4.916,8.071 4.923,8.034 C4.931,7.997 4.942,7.961 4.957,7.926 C4.972,7.890 4.989,7.857 5.011,7.825 C5.032,7.793 5.057,7.764 5.084,7.737 C5.111,7.710 5.140,7.686 5.173,7.665 C5.204,7.644 5.238,7.626 5.273,7.611 C5.309,7.597 5.346,7.585 5.384,7.578 C5.573,7.540 5.776,7.602 5.912,7.737 C5.939,7.764 5.964,7.793 5.985,7.825 C6.006,7.857 6.024,7.890 6.039,7.926 C6.053,7.961 6.065,7.997 6.072,8.034 C6.080,8.071 6.084,8.110 6.084,8.148 C6.084,8.185 6.080,8.224 6.072,8.261 C6.065,8.298 6.053,8.335 6.039,8.369 C6.024,8.405 6.006,8.439 5.985,8.470 ZM11.120,11.867 C10.960,10.779 10.568,9.414 9.610,8.464 C8.008,6.876 5.260,6.819 4.157,6.868 C4.111,7.960 4.171,10.690 5.768,12.273 C6.513,13.013 8.353,13.547 9.297,13.760 L9.814,13.247 L6.658,10.119 C6.429,9.892 6.429,9.524 6.658,9.298 C6.887,9.071 7.258,9.071 7.487,9.298 L10.623,12.407 L9.335,13.807 L5.938,13.807 C5.556,13.599 5.209,13.362 4.939,13.094 C2.512,10.688 3.006,6.434 3.028,6.255 C3.060,5.990 3.271,5.781 3.538,5.749 C3.720,5.727 8.012,5.237 10.439,7.643 C11.223,8.420 11.782,9.502 12.100,10.801 L11.120,11.867 ZM10.043,17.321 C12.297,18.074 13.233,21.010 13.272,21.135 C13.346,21.373 13.258,21.632 13.053,21.778 C12.965,21.840 11.219,23.060 9.345,23.060 C8.949,23.060 8.547,23.006 8.153,22.874 C5.899,22.121 4.963,19.185 4.924,19.061 C4.850,18.822 4.938,18.563 5.143,18.417 C5.250,18.342 7.789,16.567 10.043,17.321 ZM8.528,21.774 C9.708,22.168 11.200,21.533 11.998,21.070 C11.693,20.339 10.931,18.844 9.668,18.421 C8.407,18.000 6.890,18.730 6.200,19.129 C6.505,19.860 7.267,21.352 8.528,21.774 ZM15.419,23.488 L14.581,23.488 C14.691,23.376 14.842,23.313 15.000,23.313 C15.158,23.313 15.309,23.376 15.419,23.488 ZM19.957,17.321 C22.211,16.567 24.750,18.342 24.857,18.417 C25.062,18.563 25.150,18.822 25.076,19.061 C25.037,19.185 24.101,22.121 21.847,22.874 C21.453,23.006 21.051,23.060 20.655,23.060 C18.780,23.060 17.035,21.840 16.947,21.778 C16.742,21.632 16.654,21.373 16.728,21.135 C16.767,21.010 17.703,18.074 19.957,17.321 ZM21.472,21.774 C22.733,21.352 23.495,19.861 23.800,19.129 C23.110,18.730 21.593,18.000 20.332,18.421 C19.071,18.843 18.309,20.335 18.003,21.066 C18.694,21.465 20.211,22.195 21.472,21.774 Z" class="cls-2"/>
    </g>
</svg>