<svg xmlns="http://www.w3.org/2000/svg" xmlns:xlink="http://www.w3.org/1999/xlink" preserveAspectRatio="xMidYMid" width="25" height="27" viewBox="0 0 25 27">
    <defs>
        <style>
            .cls-1 {
            fill: #303030;
            }

            .cls-1, .cls-2 {
            fill-rule: evenodd;
            }

            .cls-2 {
            fill: #fed53e;
            }
        </style>
    </defs>
    <g>
        <path d="M25.000,13.410 C25.000,13.365 24.999,13.320 24.998,13.275 C24.997,13.214 24.997,13.153 24.995,13.091 C24.995,13.076 24.994,13.061 24.994,13.046 C24.909,9.362 23.791,6.041 22.043,3.671 C20.488,1.553 18.435,0.188 16.161,0.000 C16.116,0.000 16.116,0.000 16.071,0.000 C16.040,0.003 16.008,0.007 15.976,0.010 C15.860,0.004 15.743,0.000 15.625,0.000 L9.375,0.000 C7.053,0.000 4.929,1.222 3.292,3.239 C3.245,3.279 3.207,3.327 3.178,3.382 C1.229,5.860 -0.000,9.482 -0.000,13.500 C-0.000,20.925 4.196,27.000 9.375,27.000 L15.625,27.000 C15.752,27.000 15.879,26.995 16.005,26.988 C16.042,26.992 16.079,26.997 16.116,27.000 C20.402,26.640 23.973,22.230 24.821,16.155 C24.826,16.108 24.831,16.060 24.836,16.013 C24.943,15.198 25.000,14.358 25.000,13.500 L25.000,13.410 L25.000,13.410 ZM10.235,20.585 C10.225,20.533 10.205,20.483 10.177,20.440 C9.386,18.448 8.929,16.063 8.929,13.500 C8.929,6.857 12.041,1.407 16.006,0.913 C20.516,1.211 24.107,6.759 24.107,13.500 C24.107,20.242 20.516,25.790 16.005,26.087 C13.581,25.788 11.500,23.677 10.235,20.585 ZM1.448,17.981 C1.546,17.951 1.644,17.886 1.741,17.820 L2.321,16.920 L3.259,17.865 C3.437,18.045 3.705,18.045 3.884,17.865 L4.911,16.830 L5.982,17.910 C6.161,18.090 6.429,18.090 6.607,17.910 L7.679,16.830 L8.412,17.492 C8.568,18.294 8.769,19.066 9.012,19.797 L8.214,19.395 C7.991,19.260 7.768,19.350 7.634,19.530 L7.054,20.430 L6.116,19.485 C5.938,19.305 5.670,19.305 5.491,19.485 L4.464,20.520 L3.437,19.485 C3.259,19.305 2.991,19.305 2.812,19.485 L2.168,20.135 C1.884,19.457 1.643,18.736 1.448,17.981 ZM0.895,13.722 L2.009,14.355 C2.187,14.445 2.411,14.400 2.545,14.265 L3.571,13.230 L4.643,14.265 C4.821,14.445 5.089,14.445 5.268,14.265 L6.339,13.185 L8.048,14.226 C8.070,14.874 8.119,15.509 8.196,16.129 L7.857,15.840 C7.679,15.705 7.411,15.750 7.277,15.885 L6.250,16.920 L5.223,15.885 C5.045,15.705 4.777,15.705 4.598,15.885 L3.571,16.920 L2.545,15.885 C2.455,15.795 2.321,15.750 2.187,15.750 C2.054,15.750 1.920,15.840 1.830,15.930 L1.203,16.878 C1.014,15.870 0.907,14.812 0.895,13.722 ZM2.353,6.441 L3.348,7.110 C3.482,7.200 3.705,7.200 3.839,7.110 L4.911,6.390 L6.027,7.155 C6.161,7.245 6.384,7.245 6.518,7.155 L7.634,6.390 L9.056,7.086 C8.822,7.776 8.624,8.501 8.466,9.254 L7.902,8.685 C7.723,8.505 7.455,8.505 7.277,8.685 L6.250,9.720 L5.223,8.685 C5.045,8.505 4.777,8.505 4.598,8.685 L3.571,9.720 L2.545,8.685 C2.455,8.595 2.366,8.550 2.232,8.550 C2.098,8.550 2.009,8.595 1.920,8.685 L1.395,9.233 C1.636,8.239 1.960,7.302 2.353,6.441 ZM3.791,4.025 L6.607,3.195 L7.768,3.960 C7.902,4.050 8.125,4.050 8.259,3.960 L9.375,3.195 L10.620,3.805 C10.141,4.544 9.718,5.371 9.359,6.269 L7.723,5.445 C7.589,5.400 7.411,5.400 7.277,5.490 L6.205,6.210 L5.134,5.490 C5.000,5.400 4.777,5.400 4.643,5.490 L3.571,6.210 L2.758,5.629 C3.070,5.050 3.415,4.514 3.791,4.025 ZM6.473,12.240 C6.295,12.150 6.071,12.195 5.938,12.330 L4.911,13.365 L3.884,12.330 C3.705,12.150 3.437,12.150 3.259,12.330 L2.143,13.455 L0.909,12.739 C0.936,12.066 0.999,11.407 1.095,10.766 C1.150,10.743 1.206,10.710 1.250,10.665 L2.232,9.630 L3.259,10.665 C3.437,10.845 3.705,10.845 3.884,10.665 L4.911,9.630 L5.938,10.665 C6.116,10.845 6.384,10.845 6.563,10.665 L7.589,9.630 L8.170,10.215 C8.203,10.248 8.239,10.276 8.278,10.297 C8.135,11.227 8.052,12.194 8.038,13.186 L6.473,12.240 ZM13.460,0.900 C12.604,1.430 11.818,2.173 11.124,3.087 L9.554,2.295 C9.420,2.250 9.241,2.250 9.107,2.340 L8.036,3.060 L6.964,2.340 C6.830,2.250 6.696,2.250 6.563,2.250 L5.015,2.695 C6.289,1.557 7.780,0.900 9.375,0.900 L13.460,0.900 L13.460,0.900 ZM2.563,20.997 L3.125,20.430 L4.152,21.465 C4.330,21.645 4.598,21.645 4.777,21.465 L5.804,20.430 L6.830,21.465 C6.920,21.555 7.009,21.600 7.143,21.600 C7.321,21.600 7.455,21.510 7.500,21.375 L8.170,20.340 L9.459,20.990 C9.795,21.789 10.183,22.528 10.617,23.196 L9.777,23.760 L8.705,23.040 C8.571,22.950 8.348,22.950 8.214,23.040 L7.143,23.760 L6.071,23.040 C5.938,22.950 5.714,22.950 5.580,23.040 L4.477,23.781 C3.744,23.008 3.098,22.067 2.563,20.997 ZM9.375,26.100 C7.825,26.100 6.372,25.479 5.122,24.398 L5.804,23.940 L6.920,24.660 C7.054,24.750 7.277,24.750 7.411,24.660 L8.482,23.940 L9.509,24.705 C9.643,24.795 9.866,24.795 10.000,24.705 L11.141,23.938 C11.834,24.841 12.620,25.575 13.475,26.100 L9.375,26.100 L9.375,26.100 Z" class="cls-1"/>
        <path d="M16.518,3.600 C14.207,3.600 12.269,6.207 11.507,9.946 C11.503,9.968 11.498,9.990 11.494,10.012 C11.473,10.114 11.454,10.217 11.435,10.321 C11.429,10.357 11.423,10.393 11.416,10.428 C11.404,10.502 11.392,10.575 11.380,10.649 C11.372,10.698 11.364,10.748 11.357,10.797 C11.345,10.880 11.333,10.963 11.322,11.046 C11.315,11.096 11.308,11.147 11.302,11.197 C11.293,11.272 11.284,11.348 11.275,11.424 C11.268,11.485 11.262,11.546 11.256,11.607 C11.249,11.676 11.242,11.745 11.236,11.815 C11.232,11.860 11.228,11.906 11.224,11.951 C11.216,12.051 11.208,12.152 11.201,12.254 C11.199,12.291 11.197,12.329 11.195,12.367 C11.189,12.457 11.185,12.546 11.180,12.637 C11.179,12.663 11.178,12.689 11.177,12.715 C11.172,12.828 11.169,12.942 11.166,13.056 C11.165,13.085 11.165,13.114 11.164,13.143 C11.162,13.262 11.161,13.380 11.161,13.500 C11.161,13.620 11.162,13.738 11.164,13.857 C11.165,13.886 11.165,13.915 11.166,13.945 C11.169,14.059 11.172,14.172 11.177,14.285 C11.178,14.311 11.179,14.337 11.180,14.363 C11.185,14.454 11.189,14.543 11.195,14.633 C11.197,14.671 11.199,14.709 11.201,14.746 C11.208,14.848 11.216,14.949 11.224,15.049 C11.228,15.095 11.232,15.140 11.236,15.185 C11.242,15.255 11.249,15.324 11.256,15.393 C11.262,15.454 11.268,15.515 11.275,15.577 C11.284,15.652 11.293,15.728 11.302,15.803 C11.308,15.853 11.315,15.904 11.322,15.954 C11.333,16.037 11.345,16.120 11.357,16.203 C11.364,16.252 11.372,16.302 11.380,16.351 C11.392,16.425 11.404,16.498 11.416,16.572 C11.423,16.607 11.429,16.643 11.435,16.679 C11.454,16.783 11.473,16.886 11.494,16.989 C11.498,17.011 11.503,17.032 11.507,17.055 C12.269,20.793 14.206,23.400 16.518,23.400 C19.509,23.400 21.875,19.035 21.875,13.500 C21.875,7.965 19.509,3.600 16.518,3.600 ZM12.113,14.923 C12.111,14.895 12.108,14.868 12.106,14.840 C12.103,14.799 12.100,14.757 12.097,14.716 C12.093,14.657 12.089,14.599 12.085,14.540 C12.083,14.507 12.081,14.474 12.080,14.441 C12.075,14.349 12.070,14.258 12.066,14.166 C12.066,14.149 12.065,14.132 12.065,14.115 C12.062,14.034 12.060,13.952 12.058,13.871 C12.057,13.844 12.057,13.818 12.056,13.792 C12.055,13.695 12.054,13.598 12.054,13.500 C12.054,13.415 12.055,13.330 12.056,13.246 C12.080,11.567 12.349,9.983 12.791,8.635 C13.447,9.763 13.839,11.543 13.839,13.500 C13.839,15.457 13.447,17.237 12.791,18.365 C12.453,17.335 12.217,16.166 12.113,14.923 ZM16.518,22.500 C15.205,22.500 13.998,21.272 13.171,19.368 C14.116,18.196 14.732,15.965 14.732,13.500 C14.732,11.035 14.116,8.804 13.171,7.632 C13.998,5.729 15.205,4.500 16.518,4.500 C18.929,4.500 20.982,8.640 20.982,13.500 C20.982,18.360 18.929,22.500 16.518,22.500 Z" class="cls-2"/>
    </g>
</svg>