<svg xmlns="http://www.w3.org/2000/svg" xmlns:xlink="http://www.w3.org/1999/xlink" preserveAspectRatio="xMidYMid" width="28.031" height="27.062" viewBox="0 0 28.031 27.062">
    <defs>
        <style>
            .cls-1 {
            fill: #212121;
            }

            .cls-1, .cls-2 {
            fill-rule: evenodd;
            }

            .cls-2 {
            fill: #fccb18;
            }
        </style>
    </defs>
    <g>
        <path d="M27.903,5.695 L17.985,5.695 L17.864,3.927 L28.025,3.927 L27.903,5.695 ZM18.844,4.799 L18.904,5.672 L26.985,5.672 L27.045,4.799 L18.844,4.799 ZM9.173,7.417 C8.160,7.417 7.337,8.200 7.337,9.162 L7.337,10.471 L18.312,10.471 L18.245,9.492 L27.643,9.492 L27.122,17.085 L18.767,17.085 L18.373,11.344 L7.337,11.344 L7.337,14.834 L13.304,14.834 C14.317,14.834 15.140,15.617 15.140,16.580 L15.140,17.452 L16.059,17.452 C16.818,17.452 17.436,18.039 17.436,18.761 L18.796,18.761 L18.856,19.634 L17.700,19.634 L17.700,18.991 L16.518,18.991 L16.518,18.761 C16.518,18.521 16.311,18.325 16.059,18.325 L15.140,18.325 L2.287,18.325 L1.369,18.325 C1.116,18.325 0.910,18.521 0.910,18.761 L0.910,18.991 L-0.008,18.991 L-0.008,18.761 C-0.008,18.039 0.610,17.452 1.369,17.452 L2.287,17.452 L2.287,16.580 C2.287,15.617 3.111,14.834 4.123,14.834 L6.418,14.834 L6.418,9.162 C6.418,7.719 7.654,6.544 9.173,6.544 L12.386,6.544 L12.386,4.799 L13.304,4.799 L13.304,6.544 L15.140,6.544 L15.140,4.799 L16.059,4.799 L16.059,6.544 L17.807,6.544 L17.920,7.417 L9.173,7.417 ZM19.682,17.016 L26.206,17.016 L26.715,9.599 L19.173,9.599 L19.682,17.016 ZM4.123,15.707 C3.617,15.707 3.205,16.098 3.205,16.580 L3.205,17.452 L14.222,17.452 L14.222,16.580 C14.222,16.098 13.811,15.707 13.304,15.707 L4.123,15.707 ZM24.780,13.962 L25.699,13.962 L25.699,14.834 L24.780,14.834 L24.780,13.962 ZM20.190,12.217 L25.699,12.217 L25.699,13.089 L20.190,13.089 L20.190,12.217 ZM23.862,14.834 L20.190,14.834 L20.190,13.962 L23.862,13.962 L23.862,14.834 ZM17.436,25.742 C17.436,25.896 17.403,26.041 17.351,26.178 L19.068,26.178 C18.910,25.920 18.813,25.625 18.813,25.306 C18.813,24.885 18.979,24.505 19.242,24.203 L26.647,24.203 C26.909,24.505 27.076,24.885 27.076,25.306 C27.076,26.268 26.252,27.051 25.239,27.051 L20.649,27.051 L16.059,27.051 L15.599,27.051 L1.369,27.051 C0.610,27.051 -0.008,26.463 -0.008,25.742 L-0.008,25.148 L17.436,25.148 L17.436,25.742 ZM20.649,26.178 L25.239,26.178 C25.746,26.178 26.158,25.787 26.158,25.306 C26.158,24.824 25.746,24.433 25.239,24.433 L20.649,24.433 C20.143,24.433 19.731,24.824 19.731,25.306 C19.731,25.787 20.143,26.178 20.649,26.178 ZM16.518,25.306 L0.910,25.306 L0.910,25.742 C0.910,25.982 1.116,26.178 1.369,26.178 L15.599,26.178 L16.059,26.178 C16.311,26.178 16.518,25.982 16.518,25.742 L16.518,25.306 Z" class="cls-1"/>
        <path d="M18.245,9.492 L18.189,8.663 L18.189,6.169 L18.020,6.197 L17.986,5.704 L27.903,5.704 L27.643,9.492 L18.245,9.492 ZM19.113,8.726 L26.776,8.726 L26.925,6.544 L18.963,6.544 L19.113,8.726 ZM9.328,4.799 L1.828,4.799 L1.828,2.182 L11.468,2.182 L11.468,1.309 C11.468,0.587 12.086,-0.000 12.845,-0.000 L15.599,-0.000 C16.359,-0.000 16.977,0.587 16.977,1.309 L16.977,2.182 L16.977,2.618 L16.977,4.731 L9.328,4.731 L9.328,4.799 ZM16.059,1.309 C16.059,1.069 15.852,0.873 15.599,0.873 L12.845,0.873 C12.592,0.873 12.386,1.069 12.386,1.309 L12.386,2.182 L16.059,2.182 L16.059,1.309 ZM16.059,3.927 L16.059,3.054 L2.746,3.054 L2.746,3.927 L16.059,3.927 ZM3.297,7.679 C3.534,7.979 3.664,8.351 3.664,8.726 C3.664,9.689 2.841,10.471 1.828,10.471 C0.815,10.471 -0.008,9.689 -0.008,8.726 C-0.008,8.351 0.122,7.979 0.359,7.679 L1.828,5.817 L3.297,7.679 ZM0.910,8.726 C0.910,9.207 1.322,9.599 1.828,9.599 C2.334,9.599 2.746,9.207 2.746,8.726 C2.746,8.538 2.681,8.353 2.563,8.203 L1.828,7.272 L1.094,8.203 C0.975,8.353 0.910,8.538 0.910,8.726 ZM0.910,19.197 L16.518,19.197 L16.518,18.991 L17.453,18.991 L17.619,19.634 L17.436,19.634 L17.436,25.148 L-0.008,25.148 L-0.008,18.991 L0.910,18.991 L0.910,19.197 ZM0.910,24.433 L16.518,24.433 L16.518,20.070 L0.910,20.070 L0.910,24.433 ZM6.418,21.815 L11.009,21.815 L11.009,22.688 L6.418,22.688 L6.418,21.815 ZM18.680,19.634 L18.680,18.761 L18.882,18.761 L18.767,17.085 L27.122,17.085 L26.635,24.184 C26.641,24.191 26.643,24.201 26.650,24.208 L19.238,24.208 C19.245,24.201 19.247,24.191 19.253,24.184 L18.941,19.634 L18.680,19.634 ZM20.136,23.638 C20.300,23.593 20.470,23.560 20.649,23.560 L25.239,23.560 C25.419,23.560 25.588,23.593 25.752,23.638 L26.147,17.888 L19.742,17.888 L20.136,23.638 Z" class="cls-2"/>
    </g>
</svg>