<svg xmlns="http://www.w3.org/2000/svg" xmlns:xlink="http://www.w3.org/1999/xlink" preserveAspectRatio="xMidYMid" width="29" height="29" viewBox="0 0 29 29">
    <defs>
        <style>
            .cls-1 {fill: #3d3d3d;}
            .cls-1, .cls-2 {fill-rule: evenodd;}
            .cls-2 {fill: #fecf25;}
        </style>
    </defs>
    <g>
        <path d="M26.981,19.135 C26.640,20.909 25.086,22.196 23.285,22.196 L8.591,22.196 L7.641,22.053 C6.778,17.740 4.964,8.674 4.964,8.674 C4.963,8.673 4.963,8.672 4.963,8.671 L4.422,5.923 C4.263,5.153 3.575,4.591 2.787,4.591 L0.451,4.591 C0.202,4.591 -0.000,4.388 -0.000,4.138 C-0.000,3.888 0.202,3.686 0.451,3.686 L2.787,3.686 C4.002,3.686 5.061,4.551 5.307,5.744 L5.777,8.132 L28.548,8.132 C28.682,8.132 28.810,8.192 28.896,8.297 C28.981,8.401 29.016,8.538 28.991,8.671 L26.981,19.135 ZM5.959,9.038 L8.453,21.290 L23.285,21.290 C24.654,21.290 25.836,20.312 26.095,18.963 L28.001,9.038 L5.959,9.038 ZM11.983,25.133 C13.046,25.133 13.911,26.000 13.911,27.067 C13.911,28.133 13.046,29.000 11.983,29.000 C10.920,29.000 10.055,28.133 10.055,27.066 C10.055,26.689 9.847,26.985 10.351,26.038 C10.855,25.091 11.983,25.133 11.983,25.133 ZM11.983,28.095 C12.548,28.095 13.008,27.633 13.008,27.066 C13.008,26.500 12.548,26.038 11.983,26.038 C11.418,26.038 10.958,26.500 10.958,27.066 C10.958,27.633 11.418,28.095 11.983,28.095 ZM23.983,25.133 C25.046,25.133 25.911,26.000 25.911,27.067 C25.911,28.133 25.046,29.000 23.983,29.000 C22.920,29.000 22.055,28.133 22.055,27.066 C22.055,26.689 21.847,26.985 22.351,26.038 C22.855,25.091 23.983,25.133 23.983,25.133 ZM23.983,28.095 C24.548,28.095 25.008,27.633 25.008,27.066 C25.008,26.500 24.548,26.038 23.983,26.038 C23.418,26.038 22.958,26.500 22.958,27.066 C22.958,27.633 23.418,28.095 23.983,28.095 Z" class="cls-1"/>
        <path d="M25.465,8.000 L23.661,1.011 L19.653,2.117 L19.725,2.314 L23.223,2.314 C23.472,2.314 23.674,2.517 23.674,2.767 L23.674,7.532 L24.076,8.000 L22.884,8.000 C22.881,7.997 22.878,7.993 22.875,7.990 L21.281,6.136 L19.291,8.000 L17.969,8.000 L21.008,5.153 C21.098,5.068 21.219,5.026 21.341,5.031 C21.464,5.038 21.578,5.094 21.658,5.188 L22.771,6.482 L22.771,3.219 L19.421,3.219 C19.414,3.220 19.407,3.220 19.400,3.219 L12.052,3.219 L12.052,5.670 C12.052,5.673 12.052,5.677 12.052,5.681 L12.052,8.000 L11.149,8.000 L11.149,6.553 L9.121,8.000 L7.563,8.000 L11.149,5.442 L11.149,2.767 C11.149,2.517 11.351,2.314 11.601,2.314 L18.763,2.314 L18.636,1.967 C18.592,1.848 18.600,1.717 18.658,1.604 C18.715,1.491 18.818,1.408 18.940,1.374 L23.863,0.016 C23.980,-0.016 24.105,-0.000 24.209,0.061 C24.314,0.121 24.390,0.222 24.420,0.339 L26.398,8.000 L25.465,8.000 ZM13.307,8.000 L12.356,8.000 L13.564,4.335 C13.602,4.220 13.685,4.125 13.793,4.071 C13.902,4.018 14.027,4.010 14.142,4.050 L17.561,5.248 C17.791,5.329 17.915,5.578 17.843,5.811 L17.157,8.000 L16.211,8.000 L16.850,5.959 L14.277,5.057 L13.307,8.000 ZM23.285,22.196 L8.591,22.196 L8.973,24.104 C9.092,24.700 9.619,25.133 10.226,25.133 L23.983,25.133 C24.653,25.133 25.243,25.478 25.589,26.000 L9.891,26.000 C9.004,25.859 8.269,25.187 8.087,24.282 L7.631,22.000 L24.453,22.000 C24.083,22.122 23.692,22.196 23.285,22.196 Z" class="cls-2"/>
    </g>
</svg>