<svg xmlns="http://www.w3.org/2000/svg" xmlns:xlink="http://www.w3.org/1999/xlink" preserveAspectRatio="xMidYMid" width="37" height="19" viewBox="0 0 37 19">
    <defs>
        <style>
            .cls-1 {
            fill: #212121;
            }

            .cls-1, .cls-2 {
            fill-rule: evenodd;
            }

            .cls-2 {
            fill: #ffc800;
            }
        </style>
    </defs>
    <g>
        <path d="M36.051,18.500 L30.844,18.500 C30.241,18.500 29.856,18.127 29.814,18.084 L19.913,8.027 C19.505,7.613 19.494,6.899 19.888,6.498 C19.888,6.498 20.629,6.058 20.321,6.058 C20.321,6.058 20.321,6.058 20.321,6.058 L20.992,6.286 L31.118,16.571 L36.344,16.571 L37.000,16.893 L37.000,17.536 C37.000,18.076 36.583,18.500 36.051,18.500 ZM36.367,17.214 L30.988,17.214 C30.904,17.214 30.823,17.180 30.764,17.120 L20.545,6.740 L20.336,6.953 C20.185,7.105 20.197,7.407 20.361,7.573 L30.262,17.630 C30.262,17.630 30.499,17.857 30.844,17.857 L36.051,17.857 C36.231,17.857 36.367,17.719 36.367,17.536 L36.367,17.536 L36.367,17.214 ZM30.351,7.503 C30.336,7.503 30.321,7.502 30.306,7.499 C27.981,7.160 25.996,5.664 24.996,3.497 C24.922,3.336 24.990,3.145 25.148,3.069 C25.307,2.994 25.495,3.063 25.569,3.224 C26.478,5.194 28.283,6.555 30.396,6.863 C30.569,6.888 30.689,7.051 30.664,7.227 C30.642,7.387 30.506,7.503 30.351,7.503 ZM21.811,11.750 C21.811,11.927 21.669,12.071 21.494,12.071 L18.963,12.071 C18.788,12.071 18.646,11.927 18.646,11.750 C18.646,11.572 18.788,11.428 18.963,11.428 L21.494,11.428 C21.669,11.428 21.811,11.572 21.811,11.750 ZM23.709,13.679 C23.709,13.856 23.567,14.000 23.393,14.000 L18.330,14.000 C18.155,14.000 18.013,13.856 18.013,13.679 C18.013,13.501 18.155,13.357 18.330,13.357 L23.393,13.357 C23.567,13.357 23.709,13.501 23.709,13.679 ZM11.142,11.511 C10.982,11.511 10.853,11.377 10.853,11.211 C10.853,11.046 10.982,10.911 11.142,10.911 L13.843,10.911 C14.002,10.911 14.132,11.046 14.132,11.211 C14.132,11.377 14.002,11.511 13.843,11.511 L11.142,11.511 ZM14.711,19.000 L0.868,19.000 C0.389,19.000 -0.000,18.596 -0.000,18.099 L-0.000,2.702 C-0.000,2.206 0.389,1.802 0.868,1.802 L2.831,1.802 L4.678,0.077 C4.681,0.074 4.685,0.072 4.688,0.069 C4.695,0.063 4.701,0.058 4.708,0.053 C4.714,0.049 4.721,0.045 4.727,0.041 C4.734,0.037 4.741,0.033 4.748,0.029 C4.755,0.026 4.762,0.023 4.769,0.020 C4.776,0.017 4.783,0.015 4.791,0.012 C4.798,0.010 4.806,0.008 4.813,0.007 C4.821,0.005 4.828,0.004 4.836,0.003 C4.844,0.002 4.852,0.001 4.860,0.001 C4.864,0.001 4.867,-0.000 4.871,-0.000 L10.708,-0.000 C10.709,-0.000 10.710,0.000 10.712,0.000 C10.724,0.001 10.736,0.002 10.748,0.003 C10.753,0.004 10.757,0.005 10.761,0.006 C10.771,0.008 10.781,0.010 10.791,0.013 C10.797,0.015 10.802,0.017 10.808,0.019 C10.816,0.023 10.824,0.026 10.832,0.030 C10.839,0.033 10.845,0.037 10.851,0.041 C10.858,0.044 10.864,0.049 10.871,0.053 C10.878,0.058 10.884,0.063 10.891,0.069 C10.894,0.072 10.898,0.074 10.901,0.077 L12.748,1.802 L14.711,1.802 C15.190,1.802 15.579,2.206 15.579,2.703 L15.579,5.395 C15.579,5.561 15.449,5.695 15.290,5.695 C15.130,5.695 15.001,5.561 15.001,5.395 L15.001,2.702 C15.001,2.537 14.871,2.402 14.711,2.402 L12.834,2.402 L10.723,7.968 C10.689,8.058 10.614,8.126 10.523,8.149 C10.499,8.155 10.475,8.158 10.451,8.158 C10.442,8.157 10.433,8.157 10.424,8.156 C10.420,8.155 10.417,8.155 10.413,8.154 C10.406,8.153 10.400,8.152 10.393,8.151 C10.389,8.150 10.386,8.149 10.383,8.148 C10.373,8.146 10.364,8.143 10.356,8.140 C10.354,8.139 10.353,8.139 10.352,8.138 C10.343,8.135 10.334,8.131 10.326,8.126 C10.323,8.125 10.320,8.123 10.317,8.121 C10.310,8.118 10.304,8.114 10.298,8.110 C10.295,8.108 10.292,8.106 10.290,8.104 C10.281,8.098 10.273,8.091 10.265,8.084 L9.266,7.184 L8.817,6.800 L7.778,5.863 L6.738,6.800 L6.298,7.198 L5.314,8.084 C5.306,8.092 5.298,8.098 5.289,8.104 C5.287,8.106 5.284,8.108 5.281,8.110 C5.275,8.114 5.268,8.118 5.262,8.122 C5.259,8.123 5.256,8.125 5.253,8.126 C5.245,8.131 5.236,8.135 5.227,8.138 C5.226,8.139 5.225,8.139 5.224,8.140 C5.215,8.143 5.206,8.146 5.196,8.148 C5.193,8.149 5.189,8.150 5.186,8.151 C5.179,8.152 5.172,8.153 5.166,8.154 C5.162,8.155 5.158,8.156 5.155,8.156 C5.146,8.157 5.137,8.157 5.128,8.158 C5.104,8.158 5.080,8.155 5.056,8.149 C4.965,8.126 4.890,8.058 4.856,7.968 L2.745,2.402 L0.868,2.402 C0.708,2.402 0.578,2.537 0.578,2.703 L0.578,18.099 C0.578,18.265 0.708,18.400 0.868,18.400 L14.711,18.400 C14.871,18.400 15.001,18.265 15.001,18.099 L15.001,6.435 C15.001,6.269 15.130,6.135 15.290,6.135 C15.449,6.135 15.579,6.269 15.579,6.435 L15.579,18.099 C15.579,18.596 15.190,19.000 14.711,19.000 ZM10.335,7.353 L12.295,2.186 L11.053,1.026 C11.053,1.028 11.053,1.030 11.052,1.032 C11.052,1.038 11.052,1.043 11.051,1.049 C11.051,1.065 11.050,1.081 11.048,1.098 C11.048,1.103 11.048,1.109 11.047,1.114 C11.046,1.134 11.044,1.154 11.042,1.175 C11.042,1.181 11.041,1.188 11.041,1.194 C11.039,1.212 11.037,1.230 11.035,1.248 C11.034,1.253 11.034,1.257 11.033,1.262 C11.031,1.283 11.028,1.305 11.025,1.328 C11.025,1.334 11.024,1.341 11.023,1.348 C11.020,1.369 11.017,1.390 11.014,1.411 C11.013,1.415 11.012,1.419 11.012,1.423 C11.008,1.445 11.005,1.467 11.001,1.489 C11.000,1.497 10.998,1.504 10.997,1.511 C10.993,1.535 10.989,1.559 10.984,1.583 C10.983,1.587 10.982,1.592 10.981,1.596 C10.977,1.617 10.972,1.639 10.968,1.661 C10.966,1.668 10.965,1.675 10.963,1.682 C10.958,1.707 10.952,1.732 10.946,1.758 C10.944,1.764 10.943,1.770 10.941,1.775 C10.936,1.797 10.931,1.819 10.925,1.841 C10.923,1.848 10.921,1.855 10.919,1.862 C10.912,1.888 10.905,1.914 10.898,1.941 C10.896,1.948 10.894,1.955 10.892,1.961 C10.885,1.984 10.878,2.007 10.871,2.030 C10.869,2.036 10.867,2.043 10.865,2.049 C10.857,2.077 10.848,2.104 10.839,2.132 C10.836,2.139 10.833,2.147 10.831,2.155 C10.823,2.179 10.814,2.203 10.805,2.228 C10.803,2.233 10.802,2.239 10.800,2.244 C10.789,2.273 10.779,2.301 10.768,2.330 C10.765,2.338 10.761,2.346 10.758,2.355 C10.748,2.382 10.737,2.409 10.726,2.437 C10.724,2.440 10.723,2.443 10.722,2.446 C10.710,2.476 10.697,2.506 10.684,2.536 C10.680,2.544 10.676,2.553 10.673,2.561 C10.659,2.592 10.646,2.622 10.632,2.653 C10.630,2.657 10.628,2.661 10.626,2.665 C10.613,2.693 10.600,2.720 10.586,2.748 C10.582,2.757 10.578,2.766 10.574,2.774 C10.558,2.805 10.543,2.836 10.527,2.867 C10.524,2.874 10.520,2.880 10.517,2.886 C10.503,2.913 10.488,2.941 10.473,2.968 C10.469,2.976 10.465,2.984 10.460,2.993 C10.443,3.024 10.425,3.056 10.407,3.088 C10.402,3.096 10.398,3.103 10.393,3.111 C10.377,3.138 10.361,3.166 10.344,3.194 C10.340,3.202 10.335,3.209 10.331,3.217 C10.311,3.249 10.291,3.282 10.270,3.315 C10.265,3.323 10.259,3.332 10.254,3.340 C10.236,3.369 10.217,3.398 10.198,3.427 C10.193,3.434 10.190,3.440 10.185,3.446 C10.163,3.479 10.140,3.513 10.117,3.547 C10.111,3.556 10.104,3.565 10.098,3.574 C10.076,3.605 10.054,3.637 10.031,3.669 C10.028,3.672 10.025,3.676 10.023,3.680 C9.998,3.714 9.972,3.749 9.946,3.783 C9.939,3.793 9.931,3.802 9.924,3.812 C9.898,3.847 9.871,3.881 9.843,3.916 C9.840,3.920 9.837,3.924 9.835,3.927 C9.809,3.960 9.782,3.992 9.755,4.025 C9.748,4.035 9.740,4.044 9.732,4.053 C9.703,4.088 9.673,4.124 9.643,4.159 C9.637,4.165 9.632,4.171 9.627,4.178 C9.600,4.209 9.572,4.240 9.544,4.271 C9.536,4.280 9.528,4.289 9.520,4.298 C9.488,4.334 9.456,4.370 9.422,4.405 C9.415,4.413 9.407,4.421 9.400,4.429 C9.371,4.460 9.342,4.491 9.312,4.522 C9.304,4.530 9.296,4.539 9.288,4.547 C9.253,4.583 9.217,4.619 9.181,4.655 C9.172,4.664 9.163,4.673 9.153,4.682 C9.121,4.714 9.089,4.746 9.056,4.777 C9.048,4.784 9.041,4.791 9.034,4.798 C8.996,4.835 8.956,4.871 8.917,4.908 C8.906,4.918 8.896,4.927 8.886,4.937 C8.848,4.971 8.811,5.005 8.773,5.039 C8.768,5.043 8.763,5.048 8.758,5.052 C8.716,5.089 8.673,5.126 8.630,5.164 C8.618,5.173 8.606,5.183 8.595,5.193 C8.551,5.231 8.506,5.268 8.460,5.306 C8.457,5.309 8.454,5.311 8.451,5.314 C8.407,5.350 8.363,5.386 8.318,5.422 C8.305,5.432 8.293,5.441 8.281,5.451 C8.271,5.459 8.261,5.467 8.252,5.475 L10.335,7.353 ZM7.429,4.795 C7.448,4.811 7.467,4.827 7.487,4.843 C7.525,4.874 7.564,4.906 7.603,4.937 C7.614,4.946 7.625,4.955 7.636,4.964 C7.686,5.004 7.737,5.044 7.789,5.084 C7.840,5.045 7.890,5.006 7.939,4.967 C7.944,4.963 7.948,4.960 7.952,4.957 C9.495,3.725 10.094,2.584 10.323,1.824 C10.490,1.272 10.488,0.841 10.465,0.600 L5.114,0.600 C5.114,0.602 5.114,0.604 5.113,0.607 C5.112,0.617 5.112,0.627 5.111,0.637 C5.110,0.642 5.110,0.646 5.110,0.650 C5.109,0.665 5.108,0.680 5.107,0.696 C5.106,0.700 5.106,0.705 5.106,0.709 C5.105,0.721 5.105,0.734 5.104,0.747 C5.104,0.753 5.104,0.759 5.104,0.766 C5.103,0.778 5.103,0.790 5.103,0.803 C5.103,0.809 5.103,0.815 5.103,0.822 C5.102,0.838 5.102,0.854 5.103,0.871 C5.103,0.874 5.103,0.877 5.103,0.881 C5.103,0.900 5.103,0.921 5.104,0.942 C5.104,0.948 5.105,0.955 5.105,0.961 C5.106,0.976 5.106,0.992 5.107,1.007 C5.108,1.015 5.108,1.023 5.109,1.031 C5.110,1.047 5.111,1.063 5.112,1.080 C5.113,1.087 5.113,1.094 5.114,1.101 C5.116,1.124 5.118,1.148 5.121,1.173 C5.121,1.176 5.122,1.180 5.122,1.184 C5.124,1.205 5.127,1.226 5.130,1.248 C5.131,1.256 5.132,1.265 5.133,1.273 C5.136,1.291 5.139,1.310 5.142,1.328 C5.143,1.337 5.144,1.346 5.146,1.355 C5.149,1.376 5.153,1.398 5.157,1.420 C5.158,1.425 5.159,1.431 5.160,1.437 C5.165,1.465 5.171,1.493 5.177,1.521 C5.179,1.529 5.180,1.536 5.182,1.544 C5.187,1.565 5.192,1.587 5.197,1.609 C5.199,1.619 5.202,1.629 5.204,1.639 C5.210,1.660 5.215,1.682 5.221,1.703 C5.223,1.713 5.226,1.722 5.228,1.731 C5.237,1.762 5.246,1.793 5.255,1.824 C5.263,1.849 5.271,1.875 5.279,1.901 C5.282,1.910 5.285,1.919 5.288,1.928 C5.294,1.945 5.299,1.962 5.305,1.979 C5.309,1.990 5.313,2.002 5.317,2.013 C5.323,2.028 5.328,2.044 5.334,2.060 C5.339,2.072 5.344,2.085 5.349,2.097 C5.354,2.112 5.360,2.127 5.366,2.143 C5.371,2.156 5.377,2.170 5.382,2.183 C5.388,2.198 5.394,2.213 5.401,2.228 C5.406,2.242 5.413,2.256 5.419,2.270 C5.425,2.285 5.431,2.300 5.438,2.315 C5.445,2.330 5.451,2.345 5.458,2.360 C5.465,2.375 5.472,2.390 5.479,2.405 C5.486,2.420 5.493,2.436 5.501,2.451 C5.508,2.466 5.515,2.481 5.523,2.496 C5.530,2.512 5.539,2.528 5.547,2.544 C5.554,2.559 5.562,2.574 5.570,2.590 C5.578,2.606 5.587,2.622 5.596,2.639 C5.604,2.654 5.612,2.670 5.621,2.685 C5.630,2.702 5.639,2.719 5.649,2.735 C5.657,2.751 5.666,2.767 5.675,2.782 C5.685,2.799 5.695,2.817 5.705,2.834 C5.715,2.850 5.724,2.866 5.733,2.881 C5.744,2.899 5.755,2.916 5.765,2.934 C5.775,2.950 5.785,2.966 5.795,2.982 C5.807,3.000 5.818,3.018 5.830,3.036 C5.840,3.052 5.851,3.068 5.861,3.085 C5.873,3.103 5.886,3.121 5.898,3.139 C5.909,3.156 5.920,3.172 5.932,3.189 C5.944,3.207 5.957,3.226 5.970,3.244 C5.982,3.261 5.994,3.277 6.006,3.294 C6.019,3.313 6.033,3.332 6.047,3.351 C6.059,3.367 6.072,3.384 6.085,3.401 C6.099,3.420 6.113,3.439 6.128,3.458 C6.141,3.476 6.154,3.493 6.168,3.510 C6.183,3.529 6.198,3.548 6.213,3.568 C6.227,3.585 6.241,3.602 6.255,3.620 C6.271,3.639 6.287,3.659 6.303,3.678 C6.318,3.696 6.333,3.714 6.348,3.731 C6.365,3.751 6.381,3.770 6.398,3.790 C6.414,3.808 6.430,3.826 6.446,3.844 C6.463,3.863 6.480,3.883 6.498,3.903 C6.514,3.921 6.531,3.939 6.548,3.958 C6.566,3.978 6.584,3.997 6.603,4.017 C6.620,4.036 6.638,4.054 6.656,4.073 C6.675,4.093 6.693,4.112 6.713,4.132 C6.731,4.151 6.750,4.170 6.769,4.189 C6.788,4.209 6.808,4.229 6.828,4.249 C6.847,4.268 6.867,4.287 6.887,4.306 C6.907,4.326 6.928,4.346 6.948,4.366 C6.969,4.386 6.990,4.405 7.012,4.425 C7.032,4.445 7.053,4.464 7.074,4.484 C7.097,4.504 7.120,4.525 7.142,4.545 C7.164,4.565 7.184,4.584 7.206,4.603 C7.230,4.624 7.256,4.646 7.281,4.668 C7.302,4.686 7.322,4.704 7.343,4.722 C7.371,4.746 7.400,4.770 7.429,4.795 ZM5.244,7.353 L6.169,6.519 C6.169,6.519 6.169,6.519 6.169,6.519 L7.131,5.652 L7.327,5.475 C7.318,5.467 7.308,5.459 7.299,5.452 C7.286,5.442 7.273,5.432 7.261,5.422 C7.216,5.386 7.172,5.350 7.128,5.314 C7.125,5.312 7.122,5.309 7.119,5.306 C7.073,5.269 7.028,5.231 6.984,5.193 C6.973,5.183 6.961,5.174 6.950,5.164 C6.906,5.127 6.863,5.089 6.821,5.052 C6.816,5.048 6.812,5.043 6.807,5.039 C6.768,5.005 6.731,4.971 6.693,4.937 C6.683,4.927 6.673,4.918 6.663,4.908 C6.623,4.872 6.583,4.835 6.545,4.798 C6.538,4.791 6.531,4.785 6.524,4.778 C6.491,4.746 6.458,4.714 6.425,4.682 C6.416,4.673 6.407,4.664 6.399,4.656 C6.362,4.619 6.326,4.583 6.291,4.547 C6.283,4.539 6.276,4.531 6.268,4.523 C6.238,4.491 6.208,4.460 6.178,4.428 C6.171,4.421 6.164,4.413 6.157,4.406 C6.123,4.370 6.091,4.334 6.058,4.298 C6.051,4.290 6.043,4.281 6.035,4.272 C6.007,4.240 5.979,4.208 5.951,4.177 C5.946,4.171 5.941,4.165 5.937,4.160 C5.906,4.124 5.876,4.089 5.846,4.053 C5.839,4.044 5.832,4.035 5.824,4.026 C5.797,3.993 5.770,3.959 5.743,3.926 C5.741,3.923 5.739,3.920 5.736,3.917 C5.708,3.882 5.681,3.846 5.654,3.811 C5.647,3.802 5.640,3.793 5.634,3.784 C5.607,3.749 5.581,3.714 5.556,3.680 C5.554,3.677 5.551,3.673 5.549,3.670 C5.526,3.638 5.503,3.606 5.480,3.573 C5.474,3.565 5.468,3.556 5.462,3.547 C5.439,3.513 5.416,3.479 5.393,3.446 C5.389,3.440 5.386,3.434 5.382,3.429 C5.362,3.399 5.343,3.369 5.324,3.340 C5.319,3.332 5.314,3.323 5.309,3.315 C5.288,3.282 5.267,3.249 5.248,3.216 C5.243,3.209 5.239,3.202 5.235,3.195 C5.218,3.167 5.201,3.138 5.185,3.110 C5.181,3.103 5.177,3.096 5.173,3.089 C5.154,3.056 5.136,3.024 5.119,2.992 C5.114,2.984 5.110,2.977 5.106,2.969 C5.091,2.941 5.076,2.913 5.061,2.885 C5.058,2.879 5.055,2.874 5.052,2.868 C5.036,2.836 5.020,2.805 5.005,2.774 C5.001,2.765 4.997,2.757 4.993,2.749 C4.979,2.720 4.965,2.692 4.952,2.664 C4.951,2.660 4.949,2.657 4.947,2.653 C4.933,2.622 4.919,2.591 4.906,2.561 C4.902,2.553 4.899,2.545 4.895,2.536 C4.882,2.506 4.869,2.476 4.857,2.446 C4.856,2.443 4.855,2.441 4.854,2.438 C4.842,2.410 4.831,2.382 4.821,2.354 C4.817,2.347 4.814,2.339 4.811,2.331 C4.800,2.302 4.790,2.273 4.779,2.244 C4.777,2.239 4.776,2.234 4.774,2.229 C4.765,2.204 4.756,2.179 4.748,2.154 C4.745,2.147 4.743,2.139 4.740,2.132 C4.731,2.104 4.722,2.077 4.714,2.049 C4.712,2.043 4.710,2.037 4.708,2.031 C4.701,2.007 4.694,1.984 4.687,1.961 C4.685,1.954 4.683,1.948 4.681,1.941 C4.674,1.914 4.667,1.888 4.660,1.862 C4.658,1.855 4.656,1.848 4.654,1.842 C4.648,1.819 4.643,1.796 4.637,1.774 C4.636,1.769 4.635,1.764 4.633,1.758 C4.627,1.733 4.621,1.707 4.616,1.682 C4.614,1.675 4.613,1.668 4.611,1.661 C4.606,1.639 4.602,1.617 4.597,1.595 C4.597,1.591 4.596,1.587 4.595,1.583 C4.590,1.559 4.586,1.534 4.582,1.510 C4.580,1.504 4.579,1.497 4.578,1.490 C4.574,1.467 4.570,1.443 4.567,1.420 C4.566,1.418 4.566,1.416 4.566,1.414 C4.562,1.391 4.559,1.369 4.556,1.347 C4.555,1.341 4.554,1.335 4.554,1.328 C4.551,1.306 4.548,1.283 4.545,1.261 C4.545,1.258 4.545,1.254 4.544,1.251 C4.542,1.231 4.540,1.212 4.538,1.193 C4.538,1.187 4.537,1.181 4.537,1.176 C4.535,1.155 4.533,1.134 4.532,1.113 C4.531,1.109 4.531,1.104 4.531,1.100 C4.529,1.082 4.528,1.065 4.527,1.047 C4.527,1.043 4.527,1.038 4.527,1.033 C4.526,1.031 4.526,1.028 4.526,1.026 L3.284,2.186 L5.244,7.353 ZM6.307,1.650 C6.307,1.484 6.436,1.350 6.596,1.350 L8.959,1.350 C9.119,1.350 9.248,1.484 9.248,1.650 C9.248,1.816 9.119,1.950 8.959,1.950 L6.596,1.950 C6.436,1.950 6.307,1.816 6.307,1.650 ZM19.595,15.286 L25.291,15.286 C25.466,15.286 25.608,15.430 25.608,15.607 C25.608,15.784 25.466,15.928 25.291,15.928 L19.595,15.928 C19.421,15.928 19.279,15.784 19.279,15.607 C19.279,15.430 19.421,15.286 19.595,15.286 Z" class="cls-1"/>
        <path d="M36.344,16.571 C36.199,15.452 35.306,14.643 34.152,14.643 L32.253,14.643 C32.079,14.643 31.937,14.499 31.937,14.321 C31.937,14.144 32.079,14.000 32.253,14.000 L34.152,14.000 C35.749,14.000 37.000,15.271 37.000,16.893 L36.344,16.571 ZM32.030,13.263 L31.397,12.620 C31.337,12.560 31.304,12.478 31.304,12.393 L31.304,12.071 L30.557,12.071 C30.447,12.263 30.245,12.393 30.012,12.393 C29.663,12.393 29.379,12.104 29.379,11.750 C29.379,11.395 29.663,11.107 30.012,11.107 C30.245,11.107 30.447,11.237 30.557,11.428 L31.304,11.428 L31.304,9.500 L30.557,9.500 C30.447,9.691 30.245,9.821 30.012,9.821 C29.663,9.821 29.379,9.533 29.379,9.178 C29.379,8.824 29.663,8.536 30.012,8.536 C30.245,8.536 30.447,8.666 30.557,8.857 L31.304,8.857 L31.304,6.274 C30.557,6.228 28.681,6.004 27.599,4.906 C26.634,3.925 26.031,2.280 25.769,1.434 L20.992,6.286 L20.321,6.059 C20.321,6.059 20.321,6.058 20.321,6.058 C20.321,6.058 20.321,6.058 20.321,6.058 L25.701,0.594 C25.781,0.512 25.898,0.481 26.009,0.511 C26.119,0.542 26.203,0.631 26.231,0.743 C26.237,0.768 26.859,3.244 28.047,4.451 C29.207,5.629 31.596,5.643 31.620,5.643 C31.795,5.643 31.937,5.787 31.937,5.964 L31.937,12.260 L32.477,12.808 C32.601,12.934 32.601,13.137 32.477,13.263 C32.353,13.389 32.153,13.389 32.030,13.263 ZM8.913,11.148 C9.071,11.122 9.219,11.233 9.244,11.397 L9.852,15.335 C9.868,15.440 9.829,15.545 9.751,15.613 L7.974,17.148 C7.922,17.194 7.856,17.217 7.789,17.217 C7.751,17.217 7.712,17.209 7.675,17.193 C7.669,17.190 7.664,17.188 7.658,17.185 C7.658,17.185 7.658,17.185 7.658,17.185 C7.639,17.175 7.621,17.162 7.604,17.148 L5.828,15.613 C5.749,15.545 5.711,15.440 5.727,15.335 L6.847,8.073 L6.298,7.198 L6.736,6.821 L7.224,7.503 L8.298,7.503 L8.786,6.723 L9.266,7.184 L8.728,8.041 L9.108,10.302 C9.136,10.466 9.030,10.621 8.873,10.650 C8.716,10.678 8.566,10.569 8.539,10.406 L8.186,8.306 L7.396,8.306 L6.324,15.261 L7.790,16.527 L9.255,15.261 L8.673,11.491 C8.648,11.328 8.756,11.174 8.913,11.148 ZM28.456,8.214 C28.631,8.214 28.772,8.358 28.772,8.536 L28.772,12.393 C28.772,12.570 28.631,12.714 28.456,12.714 C28.281,12.714 28.140,12.570 28.140,12.393 L28.140,8.536 C28.140,8.358 28.281,8.214 28.456,8.214 Z" class="cls-2"/>
    </g>
</svg>