<svg xmlns="http://www.w3.org/2000/svg" xmlns:xlink="http://www.w3.org/1999/xlink" preserveAspectRatio="xMidYMid" width="31" height="25" viewBox="0 0 31 25">
    <defs>
        <style>
            .cls-1 {
            fill: #2d303b;
            }

            .cls-1, .cls-2 {
            fill-rule: evenodd;
            }

            .cls-2 {
            fill: #ffcc12;
            }
        </style>
    </defs>
    <g>
        <path d="M29.762,11.752 C29.862,13.391 29.100,14.984 27.736,15.956 L27.348,16.232 C28.785,16.860 29.758,18.273 29.758,19.870 L29.758,20.912 C29.758,21.177 29.538,21.392 29.267,21.392 C28.996,21.392 28.776,21.177 28.776,20.912 L28.776,19.870 C28.776,18.699 28.087,17.657 27.056,17.159 C26.741,18.915 25.173,20.254 23.291,20.254 C21.751,20.254 20.368,19.357 19.767,17.967 C19.662,17.723 19.779,17.441 20.028,17.337 C20.278,17.234 20.566,17.348 20.671,17.593 C21.118,18.626 22.146,19.293 23.291,19.293 C24.632,19.293 25.758,18.379 26.055,17.151 L25.499,17.547 C24.839,18.017 24.065,18.252 23.291,18.252 C22.517,18.252 21.743,18.017 21.082,17.547 L20.206,16.924 C18.810,17.232 17.805,18.456 17.805,19.869 L17.805,24.039 L19.139,24.039 L19.139,20.617 C19.139,20.351 19.359,20.136 19.630,20.136 C19.901,20.136 20.121,20.351 20.121,20.617 L20.121,24.039 L26.461,24.039 L26.461,20.617 C26.461,20.351 26.680,20.136 26.951,20.136 C27.223,20.136 27.442,20.351 27.442,20.617 L27.442,24.039 L28.777,24.039 L28.777,22.670 C28.777,22.404 28.996,22.189 29.267,22.189 C29.538,22.189 29.758,22.404 29.758,22.670 L29.758,24.519 C29.758,24.785 29.538,25.000 29.267,25.000 L17.314,25.000 C17.044,25.000 16.824,24.785 16.824,24.519 L16.824,19.869 C16.824,18.273 17.797,16.860 19.234,16.232 L18.846,15.956 C17.481,14.984 16.720,13.391 16.820,11.751 C16.101,11.549 15.582,10.903 15.582,10.138 C15.582,9.495 15.954,8.935 16.498,8.654 C16.498,8.654 17.907,9.629 18.390,8.947 C18.872,8.265 19.703,6.842 19.703,6.842 C19.703,6.842 21.745,6.325 21.690,6.436 C22.936,7.633 25.048,8.804 28.270,8.098 C27.816,6.682 26.747,5.508 25.322,4.918 C25.072,4.815 24.956,4.532 25.061,4.288 C25.167,4.043 25.455,3.929 25.704,4.032 C27.612,4.823 28.982,6.493 29.375,8.462 C30.279,8.508 31.000,9.242 31.000,10.138 C31.000,10.904 30.481,11.550 29.762,11.752 ZM16.564,10.138 C16.564,10.402 16.708,10.633 16.925,10.757 L17.072,9.456 C16.777,9.549 16.564,9.820 16.564,10.138 ZM28.479,9.066 C28.478,9.057 28.476,9.047 28.475,9.038 C27.719,9.204 27.016,9.279 26.365,9.279 C24.515,9.279 23.076,8.687 21.995,7.937 C21.712,8.275 21.240,8.748 20.564,9.128 C20.309,9.272 19.983,9.169 19.866,8.904 C19.766,8.679 19.857,8.417 20.074,8.295 C20.621,7.986 21.005,7.601 21.231,7.334 C21.156,7.268 21.085,7.201 21.015,7.135 C20.787,7.258 20.525,7.328 20.246,7.328 C20.189,7.328 20.133,7.325 20.077,7.320 L19.328,8.975 C19.123,9.427 18.702,9.728 18.200,9.780 C18.149,9.786 18.098,9.788 18.047,9.788 C18.039,9.788 18.030,9.788 18.022,9.787 L17.815,11.615 C17.660,12.996 18.276,14.361 19.423,15.178 L21.659,16.769 C22.635,17.464 23.947,17.464 24.923,16.769 L27.159,15.178 C28.306,14.361 28.922,12.996 28.766,11.616 L28.479,9.066 ZM29.510,9.456 L29.657,10.758 C29.874,10.633 30.018,10.402 30.018,10.138 C30.018,9.819 29.805,9.549 29.510,9.456 ZM26.177,11.795 C26.029,11.650 25.833,11.571 25.625,11.571 C25.417,11.571 25.220,11.650 25.073,11.795 C24.977,11.888 24.852,11.935 24.726,11.935 C24.600,11.935 24.475,11.888 24.379,11.795 C24.187,11.607 24.187,11.302 24.379,11.115 C24.712,10.789 25.154,10.609 25.625,10.609 C26.096,10.609 26.538,10.789 26.871,11.115 C27.063,11.303 27.063,11.607 26.871,11.795 C26.679,11.982 26.368,11.982 26.177,11.795 ZM23.623,13.133 L22.959,13.133 C22.688,13.133 22.468,12.918 22.468,12.652 C22.468,12.387 22.688,12.172 22.959,12.172 L23.623,12.172 C23.894,12.172 24.114,12.387 24.114,12.652 C24.114,12.918 23.894,13.133 23.623,13.133 ZM21.509,11.795 C21.362,11.650 21.166,11.571 20.957,11.571 C20.749,11.571 20.553,11.650 20.405,11.795 C20.310,11.888 20.184,11.935 20.058,11.935 C19.933,11.935 19.807,11.888 19.711,11.795 C19.520,11.607 19.520,11.302 19.711,11.115 C20.044,10.789 20.487,10.609 20.957,10.609 C21.428,10.609 21.870,10.789 22.203,11.115 C22.395,11.303 22.395,11.607 22.203,11.795 C22.012,11.982 21.701,11.982 21.509,11.795 ZM22.619,14.268 C22.989,14.632 23.593,14.632 23.963,14.268 C24.155,14.081 24.466,14.081 24.657,14.268 C24.849,14.456 24.849,14.761 24.657,14.948 C24.292,15.306 23.807,15.502 23.291,15.502 C22.775,15.502 22.289,15.306 21.925,14.948 C21.733,14.760 21.733,14.456 21.925,14.268 C22.116,14.081 22.427,14.081 22.619,14.268 ZM14.353,10.790 C14.498,12.390 13.767,13.967 12.439,14.912 L12.335,14.986 C13.816,15.658 10.877,16.213 10.939,15.979 L10.162,16.532 C9.516,16.992 8.759,17.222 8.002,17.222 C7.245,17.222 6.487,16.992 5.841,16.532 L5.063,15.979 C5.403,17.257 3.461,15.080 3.668,14.986 L3.564,14.912 C2.236,13.967 1.505,12.390 1.650,10.790 C0.937,10.559 0.429,9.903 0.429,9.131 C0.429,8.243 1.108,7.509 1.984,7.398 L2.039,6.840 C2.065,6.576 2.305,6.383 2.575,6.408 C2.845,6.434 3.042,6.668 3.016,6.933 L2.630,10.848 C2.504,12.122 3.084,13.382 4.141,14.134 L6.418,15.754 C7.365,16.429 8.638,16.429 9.585,15.754 L11.861,14.134 C12.919,13.382 13.498,12.122 13.372,10.848 L13.025,7.319 C12.273,7.207 14.269,6.485 13.979,6.995 L14.019,7.398 C14.895,7.508 15.574,8.243 15.574,9.131 C15.574,9.903 15.066,10.560 14.353,10.790 ZM10.961,10.060 L10.961,10.712 C10.961,10.977 10.742,11.193 10.471,11.193 C10.199,11.193 9.980,10.977 9.980,10.712 L9.980,10.060 C9.980,9.795 10.199,9.580 10.471,9.580 C10.742,9.580 10.961,9.795 10.961,10.060 ZM11.075,8.825 C10.913,8.667 10.699,8.580 10.471,8.580 C10.243,8.580 10.028,8.667 9.867,8.825 C9.771,8.919 9.645,8.966 9.520,8.966 C9.394,8.966 9.269,8.919 9.173,8.825 C8.981,8.637 8.981,8.333 9.173,8.145 C9.519,7.806 9.980,7.619 10.471,7.619 C10.961,7.619 11.422,7.806 11.769,8.145 C11.960,8.333 11.960,8.637 11.769,8.825 C11.577,9.013 11.266,9.013 11.075,8.825 ZM8.418,12.225 L7.586,12.225 C7.315,12.225 7.095,12.010 7.095,11.744 L7.095,10.115 C7.095,9.849 7.315,9.634 7.586,9.634 C7.857,9.634 8.076,9.849 8.076,10.115 L8.076,11.264 L8.418,11.264 C8.689,11.264 8.908,11.479 8.908,11.744 C8.908,12.010 8.689,12.225 8.418,12.225 ZM7.270,13.292 C7.674,13.687 8.330,13.687 8.733,13.292 C8.925,13.104 9.236,13.104 9.427,13.292 C9.619,13.480 9.619,13.784 9.427,13.972 C9.034,14.357 8.518,14.549 8.002,14.549 C7.485,14.549 6.969,14.357 6.576,13.972 C6.384,13.784 6.384,13.480 6.576,13.292 C6.768,13.104 7.079,13.104 7.270,13.292 ZM6.023,10.060 L6.023,10.712 C6.023,10.977 5.804,11.193 5.533,11.193 C5.262,11.193 5.042,10.977 5.042,10.712 L5.042,10.060 C5.042,9.795 5.262,9.580 5.533,9.580 C5.804,9.580 6.023,9.795 6.023,10.060 ZM6.137,8.825 C5.975,8.667 5.761,8.580 5.533,8.580 C5.305,8.580 5.090,8.667 4.929,8.825 C4.833,8.919 4.707,8.966 4.582,8.966 C4.456,8.966 4.331,8.919 4.235,8.825 C4.043,8.637 4.043,8.333 4.235,8.145 C4.581,7.806 5.042,7.619 5.533,7.619 C6.023,7.619 6.484,7.806 6.831,8.145 C7.022,8.333 7.022,8.637 6.831,8.825 C6.639,9.013 6.328,9.013 6.137,8.825 ZM2.170,21.377 L3.638,21.377 L4.466,21.316 L4.466,24.211 L11.297,24.211 L11.297,21.053 L14.712,21.316 L14.712,22.105 L14.815,24.519 C14.815,24.785 14.595,25.000 14.324,25.000 L1.679,25.000 C1.408,25.000 1.188,24.785 1.188,24.519 L1.314,21.316 L2.170,21.377 ZM12.085,24.211 L13.924,24.211 L13.924,22.105 L12.085,22.105 L12.085,24.211 ZM2.102,24.211 L3.678,24.211 L3.678,22.105 L2.102,22.105 L2.102,24.211 Z" class="cls-1"/>
        <path d="M24.779,5.084 C24.574,5.536 24.152,5.837 23.651,5.889 L21.813,6.081 C21.786,6.205 21.745,6.325 21.690,6.436 L21.015,7.135 C20.787,7.258 20.525,7.328 20.246,7.328 C20.189,7.328 20.133,7.325 20.077,7.320 L19.328,8.975 C18.847,10.038 17.229,9.788 18.047,9.788 C18.039,9.788 18.030,9.788 18.022,9.787 L17.072,9.456 C16.777,9.549 15.954,8.935 16.498,8.654 L15.862,7.798 C15.564,7.399 15.509,6.891 15.713,6.439 C15.918,5.987 16.340,5.686 16.841,5.634 C17.110,5.606 17.353,5.797 17.381,6.061 C17.410,6.325 17.215,6.562 16.945,6.590 C16.731,6.612 16.640,6.764 16.611,6.828 C16.582,6.893 16.527,7.061 16.655,7.232 L17.718,8.660 C17.845,8.831 18.025,8.832 18.096,8.824 C18.168,8.817 18.343,8.779 18.431,8.585 L19.181,6.929 C19.013,6.782 18.877,6.601 18.784,6.397 L18.284,6.450 C18.267,6.452 18.249,6.453 18.232,6.453 C17.984,6.453 17.771,6.269 17.744,6.023 C17.716,5.759 17.911,5.522 18.180,5.494 L18.680,5.442 C18.831,4.730 19.476,4.194 20.246,4.194 C20.303,4.194 20.359,4.197 20.414,4.203 L21.164,2.547 C21.369,2.096 21.790,1.795 22.292,1.742 C22.794,1.690 23.271,1.897 23.568,2.296 L24.631,3.725 C24.928,4.124 24.983,4.632 24.779,5.084 ZM20.246,5.156 C19.905,5.156 19.628,5.427 19.628,5.761 C19.628,6.095 19.905,6.367 20.246,6.367 C20.587,6.367 20.865,6.095 20.865,5.761 C20.865,5.427 20.587,5.156 20.246,5.156 ZM23.838,4.291 L22.775,2.863 C22.648,2.692 22.468,2.691 22.396,2.698 C22.325,2.706 22.149,2.744 22.062,2.937 L21.311,4.594 C21.479,4.740 21.615,4.921 21.708,5.125 L23.547,4.933 C23.761,4.911 23.852,4.759 23.881,4.694 C23.911,4.630 23.965,4.462 23.838,4.291 ZM13.833,22.338 L12.365,22.338 L12.365,24.039 L12.365,25.000 L3.638,25.000 L3.638,24.039 L3.638,22.338 L2.170,22.338 L1.314,22.338 L1.188,18.785 C1.188,17.962 1.432,17.164 1.895,16.480 C2.044,16.258 2.349,16.198 2.575,16.344 C2.801,16.490 2.863,16.789 2.713,17.010 C2.358,17.537 2.170,18.151 2.170,18.785 L2.170,21.377 L3.638,21.377 L3.638,19.576 C3.638,19.311 3.858,19.095 4.129,19.095 C4.400,19.095 4.620,19.311 4.620,19.576 L4.620,24.039 L11.383,24.039 L11.383,19.576 C11.383,19.311 11.603,19.095 11.874,19.095 C12.145,19.095 12.365,19.311 12.365,19.576 L12.365,21.377 L13.833,21.377 L13.833,18.785 C13.833,17.523 13.082,16.402 11.963,15.877 C11.890,16.308 11.745,16.726 11.532,17.109 C11.443,17.269 11.274,17.360 11.100,17.360 C11.021,17.360 10.940,17.341 10.866,17.301 C10.628,17.174 10.540,16.883 10.669,16.650 C10.770,16.468 10.841,16.273 10.900,16.074 C11.335,15.777 11.814,15.415 12.341,14.989 C13.819,15.662 14.815,17.130 14.815,18.785 L14.712,22.338 L13.833,22.338 ZM7.135,17.109 C7.420,17.177 7.710,17.222 8.002,17.222 C8.298,17.222 8.592,17.176 8.881,17.106 C8.253,17.286 7.695,17.277 7.135,17.109 ZM5.287,16.138 C5.968,16.601 6.556,16.936 7.135,17.109 C6.679,17.000 6.238,16.815 5.841,16.532 L5.287,16.138 ZM8.001,18.204 C8.696,18.204 9.350,17.980 9.892,17.556 C10.104,17.390 10.413,17.424 10.582,17.632 C10.751,17.840 10.717,18.142 10.505,18.308 C9.797,18.860 8.908,19.165 8.001,19.165 C6.011,19.165 4.355,17.740 4.039,15.877 C3.894,15.945 3.754,16.024 3.620,16.113 C3.535,16.169 3.440,16.195 3.345,16.195 C3.188,16.195 3.033,16.121 2.938,15.984 C2.786,15.764 2.845,15.465 3.070,15.317 C3.499,15.032 3.564,14.912 3.564,14.912 C4.125,15.314 4.614,15.670 5.065,15.984 C5.407,17.260 6.593,18.204 8.001,18.204 ZM5.063,15.979 L5.287,16.138 C5.215,16.089 5.139,16.035 5.065,15.984 C5.065,15.982 5.064,15.980 5.063,15.979 ZM10.027,16.613 C9.669,16.846 9.282,17.008 8.881,17.106 C9.234,17.005 9.613,16.842 10.027,16.613 ZM10.162,16.532 L10.939,15.979 C10.930,16.012 10.910,16.042 10.900,16.074 C10.588,16.288 10.301,16.461 10.027,16.613 C10.071,16.584 10.118,16.563 10.162,16.532 ZM12.439,14.912 C12.404,14.940 12.375,14.962 12.341,14.989 C12.339,14.988 12.337,14.987 12.335,14.986 L12.439,14.912 ZM13.025,7.319 C12.273,7.207 10.709,6.856 9.953,5.803 C8.848,6.353 7.518,6.308 5.908,5.670 C4.756,5.213 3.568,5.313 2.377,5.966 C1.452,6.473 0.872,7.139 0.867,7.145 C0.772,7.256 0.633,7.317 0.491,7.317 C0.435,7.317 0.378,7.308 0.323,7.288 C0.129,7.219 -0.000,7.038 -0.000,6.836 C0.000,4.541 1.089,2.576 3.065,1.305 C3.291,1.159 3.596,1.221 3.745,1.443 C3.893,1.665 3.830,1.963 3.604,2.109 C2.269,2.967 1.408,4.194 1.104,5.637 C1.326,5.472 1.582,5.303 1.867,5.144 C3.319,4.337 4.844,4.211 6.277,4.779 C8.288,5.576 9.282,5.138 9.855,4.740 C10.015,4.629 10.170,4.499 10.331,4.342 C10.522,4.154 10.833,4.154 11.025,4.342 C11.216,4.529 11.216,4.833 11.025,5.021 C10.937,5.107 10.851,5.185 10.764,5.259 C11.281,5.964 12.490,6.275 13.204,6.375 C13.475,5.854 13.997,4.647 13.575,3.718 C12.652,1.683 9.804,0.961 7.646,0.961 C6.621,0.961 5.595,1.164 4.678,1.547 C4.428,1.651 4.140,1.537 4.034,1.293 C3.928,1.049 4.044,0.766 4.293,0.662 C5.331,0.229 6.490,-0.000 7.646,-0.000 C11.566,-0.000 13.742,1.719 14.472,3.328 C15.127,4.771 14.269,6.485 13.979,6.995 L13.025,7.319 Z" class="cls-2"/>
    </g>
</svg>