<svg xmlns="http://www.w3.org/2000/svg" xmlns:xlink="http://www.w3.org/1999/xlink" preserveAspectRatio="xMidYMid" width="30" height="30" viewBox="0 0 30 30">
    <defs>
        <style>
            .cls-1 {
            fill: #333;
            }

            .cls-1, .cls-2 {
            fill-rule: evenodd;
            }

            .cls-2 {
            fill: #fec908;
            }
        </style>
    </defs>
    <g>
        <path d="M29.691,17.462 C29.629,17.488 29.564,17.500 29.500,17.500 C29.370,17.500 29.242,17.449 29.146,17.353 L29.000,15.793 L29.000,5.000 L20.000,5.000 C19.724,5.000 19.500,4.776 19.500,4.500 C19.500,4.224 19.724,4.000 20.000,4.000 L29.500,4.000 C29.776,4.000 30.000,4.224 30.000,4.500 L30.000,17.000 C30.000,17.202 29.878,17.384 29.691,17.462 ZM17.000,23.000 L16.500,23.000 C16.224,23.000 16.000,22.776 16.000,22.500 C16.000,22.224 16.224,22.000 16.500,22.000 L17.000,22.000 L17.000,18.000 L13.000,18.000 L13.000,27.000 L12.000,27.000 L12.000,17.500 C12.000,17.224 12.224,17.000 12.500,17.000 L17.500,17.000 C17.776,17.000 18.000,17.224 18.000,17.500 L18.000,27.000 L17.000,27.000 L17.000,23.000 ZM10.000,5.000 L8.500,5.000 C8.224,5.000 8.000,4.776 8.000,4.500 L8.000,2.500 C8.000,2.224 8.224,2.000 8.500,2.000 L9.000,2.000 L9.000,1.000 L6.000,1.000 L6.000,2.000 L6.500,2.000 C6.776,2.000 7.000,2.224 7.000,2.500 L7.000,4.500 C7.000,4.776 6.776,5.000 6.500,5.000 L1.000,5.000 L1.000,15.792 L0.856,17.354 C0.761,17.449 0.633,17.500 0.502,17.500 C0.438,17.500 0.373,17.488 0.311,17.462 C0.124,17.384 0.002,17.202 0.002,17.000 L-0.000,4.500 C-0.000,4.368 0.053,4.240 0.147,4.146 C0.240,4.052 0.368,4.000 0.500,4.000 L6.000,4.000 L6.000,3.000 L5.500,3.000 C5.224,3.000 5.000,2.776 5.000,2.500 L5.000,0.500 C5.000,0.224 5.224,-0.000 5.500,-0.000 L9.500,-0.000 C9.776,-0.000 10.000,0.224 10.000,0.500 L10.000,2.500 C10.000,2.776 9.776,3.000 9.500,3.000 L9.000,3.000 L9.000,4.000 L10.000,4.000 C10.276,4.000 10.500,4.224 10.500,4.500 C10.500,4.776 10.276,5.000 10.000,5.000 ZM2.000,26.000 L2.000,18.000 C2.000,17.724 2.224,17.500 2.500,17.500 C2.776,17.500 3.000,17.724 3.000,18.000 L3.000,26.246 C3.088,26.292 3.174,26.344 3.255,26.401 C3.662,25.572 4.515,25.000 5.500,25.000 C6.733,25.000 7.760,25.897 7.963,27.073 C8.564,27.269 9.000,27.834 9.000,28.500 C9.000,29.327 8.327,30.000 7.500,30.000 L2.000,30.000 C0.897,30.000 -0.000,29.103 -0.000,28.000 C-0.000,26.897 0.897,26.000 2.000,26.000 ZM2.000,29.000 L7.500,29.000 C7.775,29.000 8.000,28.775 8.000,28.500 C8.000,28.224 7.775,28.000 7.500,28.000 C7.224,28.000 7.000,27.776 7.000,27.500 C7.000,26.673 6.327,26.000 5.500,26.000 C4.673,26.000 4.000,26.673 4.000,27.500 C4.000,27.742 3.827,27.949 3.589,27.992 C3.350,28.035 3.116,27.902 3.031,27.675 C2.881,27.271 2.467,27.000 2.000,27.000 C1.449,27.000 1.000,27.448 1.000,28.000 C1.000,28.552 1.449,29.000 2.000,29.000 ZM22.037,27.073 C22.240,25.897 23.267,25.000 24.500,25.000 C25.485,25.000 26.338,25.572 26.745,26.401 C26.826,26.343 26.912,26.292 27.000,26.246 L27.000,18.000 C27.000,17.724 27.224,17.500 27.500,17.500 C27.776,17.500 28.000,17.724 28.000,18.000 L28.000,26.000 C29.103,26.000 30.000,26.897 30.000,28.000 C30.000,29.103 29.103,30.000 28.000,30.000 L24.500,30.000 L22.500,30.000 L21.093,29.000 C21.036,28.843 21.000,28.677 21.000,28.500 C21.000,27.834 21.435,27.269 22.037,27.073 ZM22.500,29.000 L24.500,29.000 L28.000,29.000 C28.552,29.000 29.000,28.552 29.000,28.000 C29.000,27.449 28.551,27.000 28.000,27.000 C27.533,27.000 27.119,27.271 26.968,27.675 C26.884,27.902 26.648,28.036 26.411,27.992 C26.173,27.949 26.000,27.742 26.000,27.500 C26.000,26.673 25.327,26.000 24.500,26.000 C23.673,26.000 23.000,26.673 23.000,27.500 C23.000,27.776 22.776,28.000 22.500,28.000 C22.224,28.000 22.000,28.224 22.000,28.500 C22.000,28.776 22.224,29.000 22.500,29.000 Z" class="cls-1"/>
        <path d="M29.691,17.462 C29.629,17.488 29.564,17.500 29.500,17.500 C29.370,17.500 29.242,17.449 29.146,17.353 L14.998,3.205 L0.856,17.354 C0.761,17.449 0.633,17.500 0.502,17.500 C0.438,17.500 0.373,17.488 0.311,17.462 C0.124,17.384 0.002,17.202 0.002,17.000 L1.000,15.792 L14.643,2.147 C14.741,2.049 14.870,2.000 14.998,2.000 C15.127,2.000 15.255,2.048 15.353,2.147 L29.000,15.793 L30.000,17.000 C30.000,17.202 29.878,17.384 29.691,17.462 ZM4.500,23.000 L5.000,23.000 L5.000,17.500 C5.000,17.224 5.224,17.000 5.500,17.000 L9.500,17.000 C9.776,17.000 10.000,17.224 10.000,17.500 L10.000,23.000 L10.500,23.000 C10.776,23.000 11.000,23.224 11.000,23.500 C11.000,23.776 10.776,24.000 10.500,24.000 L4.500,24.000 C4.224,24.000 4.000,23.776 4.000,23.500 C4.000,23.224 4.224,23.000 4.500,23.000 ZM6.000,23.000 L9.000,23.000 L9.000,21.000 L6.000,21.000 L6.000,23.000 ZM6.000,20.000 L9.000,20.000 L9.000,18.000 L6.000,18.000 L6.000,20.000 ZM13.000,10.000 C13.000,8.897 13.897,8.000 15.000,8.000 C16.103,8.000 17.000,8.897 17.000,10.000 C17.000,11.103 16.103,12.000 15.000,12.000 C13.897,12.000 13.000,11.103 13.000,10.000 ZM16.000,10.000 C16.000,9.448 15.552,9.000 15.000,9.000 C14.448,9.000 14.000,9.449 14.000,10.000 C14.000,10.552 14.448,11.000 15.000,11.000 C15.552,11.000 16.000,10.552 16.000,10.000 ZM10.500,27.000 L12.000,27.000 L13.000,27.000 L17.000,27.000 L18.000,27.000 L19.500,27.000 C19.776,27.000 20.000,27.224 20.000,27.500 C20.000,27.776 19.776,28.000 19.500,28.000 L11.000,28.000 L11.000,29.500 C11.000,29.776 10.776,30.000 10.500,30.000 C10.224,30.000 10.000,29.776 10.000,29.500 L10.000,27.500 C10.000,27.224 10.224,27.000 10.500,27.000 ZM12.500,29.000 L21.093,29.000 C21.036,28.843 22.500,30.000 22.500,30.000 L12.500,30.000 C12.224,30.000 12.000,29.776 12.000,29.500 C12.000,29.224 12.224,29.000 12.500,29.000 ZM19.000,23.500 C19.000,23.224 19.224,23.000 19.500,23.000 L20.000,23.000 L20.000,17.500 C20.000,17.224 20.224,17.000 20.500,17.000 L24.500,17.000 C24.776,17.000 25.000,17.224 25.000,17.500 L25.000,23.000 L25.500,23.000 C25.776,23.000 26.000,23.224 26.000,23.500 C26.000,23.776 25.776,24.000 25.500,24.000 L19.500,24.000 C19.224,24.000 19.000,23.776 19.000,23.500 ZM21.000,23.000 L24.000,23.000 L24.000,21.000 L21.000,21.000 L21.000,23.000 ZM21.000,20.000 L24.000,20.000 L24.000,18.000 L21.000,18.000 L21.000,20.000 Z" class="cls-2"/>
    </g>
</svg>