<svg xmlns="http://www.w3.org/2000/svg" xmlns:xlink="http://www.w3.org/1999/xlink" preserveAspectRatio="xMidYMid" width="29" height="26" viewBox="0 0 29 26">
    <defs>
        <style>
            .cls-1 {
            fill: #2d303b;
            }

            .cls-1, .cls-2 {
            fill-rule: evenodd;
            }

            .cls-2 {
            fill: #ffca08;
            }
        </style>
    </defs>
    <g>
        <path d="M-0.000,10.292 L-0.000,25.458 C-0.000,25.758 0.240,26.000 0.537,26.000 L4.296,26.000 C4.593,26.000 4.833,25.758 4.833,25.458 L4.833,23.833 L8.593,23.833 L8.593,23.845 L9.667,23.845 L9.667,23.833 L13.963,23.833 L13.963,23.845 L15.037,23.845 L15.037,23.833 L19.333,23.833 L19.333,23.845 L20.407,23.845 L20.407,23.833 L24.167,23.833 L24.167,25.458 C24.167,25.758 24.407,26.000 24.704,26.000 L28.463,26.000 C28.760,26.000 29.000,25.758 29.000,25.458 L29.000,10.292 M27.926,9.750 L24.704,9.750 L20.407,9.750 L19.333,9.750 L15.037,9.750 L13.963,9.750 L9.667,9.750 L8.593,9.750 L4.296,9.750 L1.074,9.750 M24.167,16.250 L20.407,16.250 L20.407,10.833 L24.167,10.833 L24.167,16.250 ZM4.833,10.833 L8.593,10.833 L8.593,16.250 L4.833,16.250 L4.833,10.833 ZM9.667,10.833 L13.963,10.833 L13.963,16.250 L9.667,16.250 L9.667,10.833 ZM15.037,10.833 L19.333,10.833 L19.333,16.250 L15.037,16.250 L15.037,10.833 ZM3.759,24.917 L1.074,24.917 L1.074,10.833 L3.759,10.833 L3.759,16.792 L3.759,23.292 L3.759,24.917 ZM4.833,22.750 L4.833,17.333 L8.593,17.333 L8.593,22.750 L4.833,22.750 ZM9.667,22.750 L9.667,17.333 L13.963,17.333 L13.963,22.750 L9.667,22.750 ZM15.037,22.750 L15.037,17.333 L19.333,17.333 L19.333,22.750 L15.037,22.750 ZM20.407,22.750 L20.407,17.333 L24.167,17.333 L24.167,22.750 L20.407,22.750 ZM27.926,24.917 L25.241,24.917 L25.241,23.292 L25.241,16.792 L25.241,10.833 L27.926,10.833 L27.926,24.917 Z" class="cls-1"/>
        <path d="M-0.000,10.292 L-0.000,0.542 C-0.000,0.243 0.240,0.000 0.537,0.000 L28.463,0.000 C28.760,0.000 29.000,0.243 29.000,0.542 L29.000,10.292 L-0.000,10.292 ZM27.926,1.083 L1.074,1.083 L1.074,9.750 L4.296,9.750 L8.593,9.750 L9.667,9.750 L13.963,9.750 L15.037,9.750 L19.333,9.750 L20.407,9.750 L24.704,9.750 L27.926,9.750 L27.926,1.083 ZM20.944,8.125 L20.944,7.042 L20.944,2.167 L22.019,2.167 L22.019,7.042 L25.241,7.042 L25.241,8.125 L22.019,8.125 L20.944,8.125 ZM16.111,8.125 L16.111,7.042 L16.111,2.167 L17.185,2.167 L17.185,7.042 L20.407,7.042 L20.407,8.125 L17.185,8.125 L16.111,8.125 ZM13.963,5.958 L11.278,5.958 L11.278,8.125 L10.204,8.125 L10.204,5.958 L10.204,4.875 L10.204,2.708 C10.204,2.409 10.444,2.167 10.741,2.167 L14.500,2.167 C14.797,2.167 15.037,2.409 15.037,2.708 L15.037,4.875 L15.037,5.958 L15.037,8.125 L13.963,8.125 L13.963,5.958 ZM13.963,3.250 L11.278,3.250 L11.278,4.875 L13.963,4.875 L13.963,3.250 ZM8.056,4.558 L6.824,5.800 C6.719,5.905 6.582,5.958 6.444,5.958 C6.307,5.958 6.169,5.905 6.065,5.800 L4.833,4.558 L4.833,8.125 L3.759,8.125 L3.759,2.167 L4.833,2.167 L4.833,3.026 L6.444,4.651 L8.056,3.026 L8.056,2.167 L9.130,2.167 L9.130,8.125 L8.056,8.125 L8.056,4.558 Z" class="cls-2"/>
    </g>
</svg>