<svg xmlns="http://www.w3.org/2000/svg" xmlns:xlink="http://www.w3.org/1999/xlink" preserveAspectRatio="xMidYMid" width="32" height="24" viewBox="0 0 32 24">
    <defs>
        <style>
            .cls-1 {
            fill: #232323;
            }

            .cls-1, .cls-2 {
            fill-rule: evenodd;
            }

            .cls-2 {
            fill: #f3c416;
            }
        </style>
    </defs>
    <g>
        <path d="M30.925,14.216 L30.925,1.687 C30.925,0.757 30.121,-0.000 29.132,-0.000 L2.868,-0.000 C1.879,-0.000 1.075,0.757 1.075,1.687 L1.075,8.280 C0.483,8.280 -0.000,8.734 -0.000,9.292 L-0.000,22.988 C-0.000,23.546 0.483,24.000 1.075,24.000 L11.060,24.000 C11.653,24.000 12.136,23.546 12.136,22.988 L20.386,22.988 C20.724,22.988 21.035,22.843 21.240,22.590 C21.445,22.337 21.512,22.016 21.423,21.709 L20.718,19.277 L25.906,19.277 L25.906,22.988 C25.906,23.546 26.388,24.000 26.981,24.000 L30.925,24.000 C31.518,24.000 32.000,23.546 32.000,22.988 L32.000,15.228 C32.000,14.670 31.518,14.216 30.925,14.216 ZM11.419,22.988 C11.419,23.174 11.258,23.325 11.060,23.325 L1.075,23.325 C0.878,23.325 0.717,23.174 0.717,22.988 L0.717,22.313 L11.419,22.313 L11.419,22.988 ZM11.419,21.638 L0.717,21.638 L0.717,10.641 L11.419,10.641 L11.419,21.638 ZM11.419,9.967 L0.717,9.967 L0.717,9.292 C0.717,9.106 0.878,8.954 1.075,8.954 L11.060,8.954 C11.258,8.954 11.419,9.106 11.419,9.292 L11.419,9.967 ZM20.732,21.887 C20.761,21.989 20.739,22.096 20.671,22.180 C20.602,22.265 20.499,22.313 20.386,22.313 L12.136,22.313 L12.136,21.638 L20.660,21.638 L20.732,21.887 ZM12.136,20.964 L12.136,19.277 L19.975,19.277 L20.464,20.964 L12.136,20.964 ZM25.906,18.602 L12.136,18.602 L12.136,16.578 L25.906,16.578 L25.906,18.602 ZM25.906,15.228 L25.906,15.903 L12.136,15.903 L12.136,9.292 C12.136,8.734 11.653,8.280 11.060,8.280 L1.792,8.280 L1.792,1.687 C1.792,1.129 2.275,0.675 2.868,0.675 L29.132,0.675 C29.725,0.675 30.208,1.129 30.208,1.687 L30.208,14.216 L26.981,14.216 C26.388,14.216 25.906,14.670 25.906,15.228 ZM31.283,22.988 C31.283,23.174 31.122,23.325 30.925,23.325 L26.981,23.325 C26.784,23.325 26.623,23.174 26.623,22.988 L26.623,22.313 L31.283,22.313 L31.283,22.988 ZM31.283,21.638 L26.623,21.638 L26.623,16.578 L31.283,16.578 L31.283,21.638 ZM31.283,15.903 L26.623,15.903 L26.623,15.228 C26.623,15.042 26.784,14.891 26.981,14.891 L30.925,14.891 C31.122,14.891 31.283,15.042 31.283,15.228 L31.283,15.903 Z" class="cls-1"/>
        <path d="M28.668,20.866 L28.161,20.389 L29.953,18.702 L30.460,19.180 L28.668,20.866 ZM27.444,19.038 L29.236,17.352 L29.743,17.829 L27.951,19.515 L27.444,19.038 ZM20.386,22.988 L12.136,22.988 L12.136,22.313 L20.386,22.313 C20.499,22.313 20.602,22.265 20.671,22.180 C20.739,22.096 20.761,21.989 20.732,21.887 L20.660,21.638 L12.136,21.638 L12.136,20.964 L20.464,20.964 L21.333,20.952 L21.423,21.709 C21.512,22.016 21.445,22.337 21.240,22.590 C21.035,22.843 20.724,22.988 20.386,22.988 ZM19.429,19.048 L20.571,19.048 L21.333,20.952 L20.190,20.952 L19.429,19.048 ZM17.897,10.266 L20.048,8.242 L20.555,8.719 L18.404,10.743 L17.897,10.266 ZM17.536,8.246 L18.974,6.893 L19.481,7.370 L18.043,8.723 L17.536,8.246 ZM16.253,12.768 L15.746,12.291 L17.180,10.941 L17.687,11.418 L16.253,12.768 ZM14.671,10.941 L16.821,8.917 L17.328,9.394 L15.178,11.418 L14.671,10.941 ZM4.380,18.007 L8.682,13.959 L9.189,14.436 L4.887,18.484 L4.380,18.007 ZM5.097,14.971 L7.248,12.947 L7.755,13.424 L5.604,15.448 L5.097,14.971 ZM2.946,16.995 L4.380,15.646 L4.887,16.123 L3.453,17.472 L2.946,16.995 Z" class="cls-2"/>
    </g>
</svg>