<svg
        xmlns="http://www.w3.org/2000/svg"
        xmlns:xlink="http://www.w3.org/1999/xlink"
        width="15px" height="15px">
    <path fill-rule="evenodd"  fill="rgb(255, 48, 48)"
          d="M7.500,0.000 C3.358,0.000 -0.000,3.358 -0.000,7.500 C-0.000,11.642 3.358,15.000 7.500,15.000 C11.642,15.000 15.000,11.642 15.000,7.500 C15.000,3.358 11.642,0.000 7.500,0.000 ZM7.500,12.287 C6.914,12.287 6.512,11.836 6.512,11.250 C6.512,10.647 6.931,10.213 7.500,10.213 C8.102,10.213 8.488,10.647 8.488,11.250 C8.488,11.836 8.102,12.287 7.500,12.287 ZM7.889,8.325 C7.739,8.834 7.269,8.844 7.112,8.325 C6.931,7.728 6.289,5.460 6.289,3.987 C6.289,2.043 8.721,2.034 8.721,3.987 C8.721,5.469 8.044,7.796 7.889,8.325 Z"/>
</svg>