<svg xmlns="http://www.w3.org/2000/svg" xmlns:xlink="http://www.w3.org/1999/xlink" width="7px" height="11px">
    <path fill-rule="evenodd"  fill="rgb(64, 67, 78)"
          d="M4.667,7.464 C4.237,7.464 3.889,7.113 3.889,6.679 C3.889,6.245 4.237,5.893 4.667,5.893 L5.444,5.893 C5.874,5.893 6.222,6.245 6.222,6.679 C6.222,7.113 5.874,7.464 5.444,7.464 L4.667,7.464 ZM6.222,5.107 L4.834,5.107 L2.882,7.496 C2.586,7.825 2.509,8.298 2.683,8.706 C2.891,9.147 3.331,9.429 3.815,9.429 L4.204,9.429 C4.613,9.439 5.003,9.252 5.254,8.926 C5.522,8.676 5.926,8.647 6.226,8.858 C6.579,9.105 6.666,9.595 6.421,9.951 C5.894,10.602 5.110,10.986 4.278,11.000 L3.761,11.000 C2.676,10.980 1.698,10.334 1.244,9.338 C0.988,8.746 0.954,8.080 1.147,7.464 L0.778,7.464 C0.348,7.464 0.000,7.113 0.000,6.679 C0.000,6.245 0.348,5.893 0.778,5.893 L2.162,5.893 L2.812,5.107 L1.556,5.107 C1.126,5.107 0.778,4.756 0.778,4.322 C0.778,3.888 1.126,3.536 1.556,3.536 L4.095,3.536 L4.122,3.504 C4.418,3.150 4.492,2.658 4.313,2.232 C4.098,1.812 3.664,1.555 3.197,1.572 L2.808,1.572 C2.403,1.572 2.019,1.755 1.762,2.071 C1.489,2.403 1.003,2.451 0.672,2.178 C0.339,1.904 0.289,1.409 0.560,1.073 C1.088,0.422 1.867,0.031 2.699,0.000 L3.228,0.000 C4.290,-0.005 5.261,0.606 5.724,1.572 C6.008,2.188 6.047,2.891 5.833,3.536 L6.222,3.536 C6.652,3.536 7.000,3.888 7.000,4.322 C7.000,4.756 6.652,5.107 6.222,5.107 Z"/>
</svg>