<svg xmlns="http://www.w3.org/2000/svg" xmlns:xlink="http://www.w3.org/1999/xlink" preserveAspectRatio="xMidYMid" width="23" height="20" viewBox="0 0 23 20">
  <defs>
    <style>
      .cls-1 {
        fill: #ffde00;
        fill-rule: evenodd;
      }
    </style>
  </defs>
  <path d="M21.142,1.857 C19.938,0.666 18.343,0.014 16.642,0.014 C14.940,0.014 13.341,0.670 12.136,1.862 L11.507,2.484 L10.869,1.852 C9.664,0.661 8.060,-0.000 6.358,-0.000 C4.662,-0.000 3.062,0.656 1.863,1.842 C0.659,3.034 -0.004,4.615 0.000,6.299 C0.000,7.982 0.668,9.559 1.873,10.750 L11.029,19.807 C11.156,19.933 11.327,20.000 11.493,20.000 C11.659,20.000 11.829,19.937 11.956,19.812 L21.132,10.769 C22.337,9.578 23.000,7.996 23.000,6.313 C23.005,4.630 22.346,3.048 21.142,1.857 Z" class="cls-1"/>
</svg>
