<svg xmlns="http://www.w3.org/2000/svg" xmlns:xlink="http://www.w3.org/1999/xlink" preserveAspectRatio="xMidYMid" width="20" height="15" viewBox="0 0 20 15">
  <defs>
    <style>
      .cls-1 {
        fill: #ffc800;
        fill-rule: evenodd;
      }
    </style>
  </defs>
  <path d="M17.554,15.000 L2.446,15.000 C1.097,15.000 0.000,13.919 0.000,12.590 L0.000,2.410 C0.000,1.081 1.097,-0.000 2.446,-0.000 L17.558,-0.000 C18.907,-0.000 20.004,1.085 20.000,2.414 L20.000,12.590 C20.000,13.919 18.903,15.000 17.554,15.000 ZM18.882,12.590 L18.882,2.414 C18.882,1.692 18.287,1.105 17.554,1.105 L2.446,1.105 C1.713,1.105 1.117,1.692 1.117,2.414 L1.117,12.590 C1.117,13.312 1.713,13.899 2.446,13.899 L17.558,13.899 C18.291,13.899 18.887,13.312 18.887,12.590 L18.882,12.590 ZM17.546,12.749 C17.434,12.863 17.289,12.920 17.140,12.920 C17.004,12.920 16.863,12.871 16.755,12.769 L11.781,8.112 L10.387,9.343 C10.283,9.437 10.147,9.486 10.014,9.486 C9.882,9.486 9.750,9.441 9.642,9.347 L8.285,8.153 L3.282,12.765 C3.174,12.863 3.037,12.912 2.901,12.912 C2.752,12.912 2.603,12.851 2.491,12.737 C2.280,12.512 2.293,12.166 2.516,11.958 L7.445,7.410 L2.495,3.051 C2.264,2.847 2.243,2.500 2.450,2.272 C2.657,2.043 3.008,2.023 3.240,2.227 L8.595,6.949 C8.628,6.974 8.657,6.998 8.686,7.027 C8.686,7.031 8.690,7.035 8.694,7.039 L10.010,8.197 L16.755,2.231 C16.987,2.027 17.339,2.047 17.546,2.272 C17.753,2.500 17.732,2.847 17.504,3.051 L12.613,7.374 L17.525,11.970 C17.749,12.178 17.757,12.529 17.546,12.749 Z" class="cls-1"/>
</svg>
