<svg xmlns="http://www.w3.org/2000/svg" xmlns:xlink="http://www.w3.org/1999/xlink" preserveAspectRatio="xMidYMid" width="17" height="17" viewBox="0 0 17 17">
  <defs>
    <style>
      .cls-1 {
        fill: #ffc800;
        fill-rule: evenodd;
      }
    </style>
  </defs>
  <path d="M16.997,15.653 L11.980,10.636 C12.813,9.524 13.313,8.150 13.313,6.657 C13.313,2.987 10.327,0.002 6.657,0.002 C2.987,0.002 0.002,2.987 0.002,6.657 C0.002,10.327 2.987,13.313 6.657,13.313 C8.150,13.313 9.524,12.813 10.635,11.980 L15.653,16.998 L16.997,15.653 ZM0.636,6.657 C0.636,3.337 3.337,0.636 6.657,0.636 C9.978,0.636 12.679,3.337 12.679,6.657 C12.679,9.978 9.978,12.679 6.657,12.679 C3.337,12.679 0.636,9.978 0.636,6.657 ZM11.274,11.441 C11.330,11.386 11.386,11.330 11.440,11.274 C11.486,11.226 11.537,11.182 11.581,11.133 L16.101,15.653 L15.653,16.101 L11.133,11.581 C11.182,11.537 11.226,11.487 11.274,11.441 Z" class="cls-1"/>
</svg>
