<svg xmlns="http://www.w3.org/2000/svg" xmlns:xlink="http://www.w3.org/1999/xlink" preserveAspectRatio="xMidYMid" width="12" height="16" viewBox="0 0 12 16">
  <defs>
    <style>
      .cls-1 {
        fill: #ffde00;
        fill-rule: evenodd;
      }
    </style>
  </defs>
  <path d="M11.295,15.997 L0.716,15.997 C0.324,15.997 0.007,15.689 0.007,15.311 L0.007,13.116 C0.007,11.330 0.840,9.670 2.292,8.561 C2.889,8.104 3.774,8.195 4.305,8.766 C4.748,9.242 5.352,9.504 6.006,9.504 C6.659,9.504 7.263,9.242 7.706,8.766 C8.238,8.195 9.122,8.104 9.719,8.561 C11.171,9.670 12.004,11.330 12.004,13.116 L12.004,15.311 C12.004,15.689 11.687,15.997 11.295,15.997 ZM10.587,13.116 C10.587,11.753 9.951,10.485 8.841,9.637 L8.841,9.637 C8.835,9.637 8.795,9.645 8.758,9.684 C8.054,10.441 7.050,10.875 6.006,10.875 C4.961,10.875 3.958,10.441 3.253,9.684 C3.217,9.645 3.176,9.637 3.166,9.638 C2.061,10.485 1.424,11.753 1.424,13.116 L1.424,14.625 L10.587,14.625 L10.587,13.116 ZM6.006,7.217 C3.948,7.217 2.275,5.597 2.275,3.605 C2.275,1.613 3.948,-0.007 6.006,-0.007 C8.063,-0.007 9.737,1.613 9.737,3.605 C9.737,5.597 8.063,7.217 6.006,7.217 ZM6.006,1.365 C4.730,1.365 3.691,2.370 3.691,3.605 C3.691,4.841 4.730,5.846 6.006,5.846 C7.282,5.846 8.320,4.841 8.320,3.605 C8.320,2.370 7.282,1.365 6.006,1.365 Z" class="cls-1"/>
</svg>
