<svg
        xmlns="http://www.w3.org/2000/svg"
        xmlns:xlink="http://www.w3.org/1999/xlink"
        width="39px" height="26px">
    <path fill-rule="evenodd"  fill="rgb(64, 67, 78)"
          d="M27.677,24.138 C26.671,24.138 25.675,24.008 24.709,23.750 C21.747,25.710 18.408,25.991 18.261,26.002 C18.238,26.003 18.214,26.004 18.191,26.004 C17.834,26.004 17.508,25.793 17.370,25.465 C17.222,25.114 17.321,24.711 17.614,24.464 C17.627,24.453 18.959,23.315 20.185,21.339 C17.741,19.221 16.353,16.222 16.353,13.000 C16.353,6.858 21.433,1.862 27.677,1.862 C33.920,1.862 39.000,6.858 39.000,13.000 C39.000,19.142 33.920,24.138 27.677,24.138 ZM27.677,3.611 C22.414,3.611 18.132,7.823 18.132,13.000 C18.132,15.932 19.496,18.644 21.874,20.442 C22.222,20.704 22.323,21.177 22.113,21.555 C21.650,22.386 21.157,23.106 20.696,23.705 C21.728,23.380 22.930,22.872 24.024,22.086 C24.253,21.923 24.546,21.875 24.815,21.958 C25.740,22.244 26.703,22.389 27.677,22.389 C32.940,22.389 37.222,18.177 37.222,13.000 C37.222,7.823 32.940,3.611 27.677,3.611 ZM32.330,12.299 C31.786,12.833 31.073,13.101 30.359,13.101 C29.935,13.101 29.511,13.004 29.123,12.815 L26.251,15.639 L26.964,16.340 C27.311,16.682 27.311,17.236 26.964,17.577 C26.790,17.748 26.563,17.833 26.335,17.833 C26.108,17.833 25.880,17.748 25.706,17.577 L24.994,16.876 L24.281,17.577 C24.107,17.748 23.880,17.833 23.652,17.833 C23.425,17.833 23.197,17.748 23.024,17.577 C22.676,17.236 22.676,16.682 23.024,16.340 L27.865,11.578 C27.350,10.553 27.523,9.275 28.389,8.423 C28.916,7.905 29.615,7.620 30.360,7.620 C31.104,7.620 31.804,7.905 32.330,8.423 C32.856,8.941 33.146,9.629 33.146,10.361 C33.146,11.093 32.856,11.782 32.330,12.299 ZM31.072,9.660 C30.882,9.473 30.629,9.369 30.360,9.369 C30.091,9.369 29.837,9.473 29.647,9.660 C29.254,10.047 29.254,10.675 29.647,11.062 C30.040,11.448 30.679,11.449 31.072,11.062 C31.263,10.875 31.368,10.626 31.368,10.361 C31.368,10.096 31.263,9.847 31.072,9.660 ZM14.397,26.004 L6.809,26.004 C6.318,26.004 5.919,25.613 5.919,25.130 C5.919,24.647 6.318,24.255 6.809,24.255 L14.397,24.255 C14.888,24.255 15.286,24.647 15.286,25.130 C15.286,25.613 14.888,26.004 14.397,26.004 ZM14.397,21.339 L1.117,21.339 C0.626,21.339 0.228,20.948 0.228,20.465 L0.228,17.665 C0.228,15.388 1.273,13.271 3.096,11.856 C3.845,11.274 4.955,11.389 5.623,12.118 C6.179,12.724 6.937,13.059 7.757,13.059 C8.577,13.059 9.336,12.724 9.891,12.118 C10.559,11.389 11.669,11.274 12.418,11.856 C14.241,13.271 15.286,15.388 15.286,17.665 L15.286,20.465 C15.286,20.948 14.888,21.339 14.397,21.339 ZM13.508,17.665 C13.508,15.927 12.709,14.310 11.317,13.229 L11.316,13.228 C11.309,13.228 11.258,13.239 11.212,13.289 C10.328,14.254 9.069,14.808 7.757,14.808 C6.446,14.808 5.186,14.254 4.302,13.289 C4.257,13.239 4.206,13.228 4.193,13.230 C2.805,14.310 2.007,15.927 2.007,17.665 L2.007,19.590 L13.508,19.590 L13.508,17.665 ZM7.757,10.142 C5.175,10.142 3.074,8.076 3.074,5.536 C3.074,2.995 5.175,0.929 7.757,0.929 C10.340,0.929 12.441,2.995 12.441,5.536 C12.441,8.076 10.340,10.142 7.757,10.142 ZM7.757,2.678 C6.155,2.678 4.852,3.960 4.852,5.536 C4.852,7.111 6.155,8.393 7.757,8.393 C9.359,8.393 10.662,7.111 10.662,5.536 C10.662,3.960 9.359,2.678 7.757,2.678 ZM1.117,24.255 L3.014,24.255 C3.506,24.255 3.904,24.647 3.904,25.130 C3.904,25.613 3.506,26.004 3.014,26.004 L1.117,26.004 C0.626,26.004 0.228,25.613 0.228,25.130 C0.228,24.647 0.626,24.255 1.117,24.255 Z"/>
</svg>