<svg xmlns="http://www.w3.org/2000/svg" xmlns:xlink="http://www.w3.org/1999/xlink" preserveAspectRatio="xMidYMid" width="25" height="25" viewBox="0 0 25 25">
  <defs>
    <style>
      .cls-1 {
        fill: #78bb46;
      }

      .cls-2 {
        fill: #fff;
        fill-rule: evenodd;
      }
    </style>
  </defs>
  <g>
    <circle cx="12.5" cy="12.5" r="12.5" class="cls-1"/>
    <path d="M21.976,10.645 L20.388,15.643 C20.388,15.644 20.387,15.645 20.387,15.646 C20.380,15.668 20.370,15.689 20.360,15.709 C20.357,15.716 20.354,15.722 20.351,15.728 C20.341,15.747 20.329,15.765 20.316,15.783 C20.312,15.788 20.308,15.794 20.303,15.799 C20.290,15.815 20.277,15.831 20.262,15.846 C20.260,15.848 20.258,15.850 20.256,15.852 C20.239,15.868 20.220,15.883 20.200,15.897 C20.196,15.900 20.193,15.903 20.189,15.905 C20.169,15.919 20.148,15.931 20.125,15.942 C20.123,15.943 20.121,15.944 20.119,15.945 C20.098,15.955 20.076,15.964 20.054,15.971 C20.050,15.972 20.046,15.974 20.043,15.975 C20.039,15.976 20.036,15.977 20.033,15.978 C20.019,15.982 20.004,15.984 19.990,15.987 C19.980,15.989 19.971,15.992 19.961,15.993 C19.934,15.997 19.907,15.999 19.881,15.999 C19.854,15.999 19.828,15.997 19.801,15.993 C19.791,15.992 19.781,15.989 19.771,15.987 C19.757,15.984 19.743,15.982 19.729,15.978 C19.726,15.977 19.722,15.976 19.719,15.975 C19.715,15.974 19.712,15.972 19.708,15.971 C19.686,15.964 19.664,15.955 19.643,15.945 C19.641,15.944 19.639,15.943 19.637,15.942 C19.614,15.931 19.593,15.919 19.573,15.905 C19.569,15.903 19.565,15.900 19.562,15.897 C19.542,15.883 19.523,15.868 19.506,15.852 C19.504,15.850 19.502,15.848 19.500,15.846 C19.485,15.831 19.471,15.815 19.458,15.799 C19.454,15.794 19.450,15.788 19.446,15.783 C19.433,15.765 19.421,15.747 19.411,15.728 C19.408,15.722 19.404,15.716 19.401,15.709 C19.391,15.689 19.382,15.668 19.375,15.646 C19.375,15.645 19.374,15.644 19.374,15.643 L18.293,12.241 L17.212,15.643 C17.212,15.644 17.211,15.645 17.211,15.646 C17.203,15.668 17.194,15.689 17.184,15.709 C17.181,15.716 17.178,15.722 17.175,15.728 C17.164,15.747 17.153,15.765 17.140,15.783 C17.136,15.788 17.132,15.794 17.127,15.799 C17.114,15.816 17.100,15.831 17.085,15.846 C17.083,15.848 17.082,15.850 17.080,15.852 C17.063,15.868 17.044,15.883 17.024,15.897 C17.020,15.900 17.016,15.903 17.013,15.905 C16.993,15.919 16.971,15.931 16.949,15.943 C16.947,15.944 16.945,15.944 16.942,15.945 C16.922,15.955 16.900,15.964 16.877,15.971 C16.874,15.972 16.870,15.974 16.866,15.975 C16.863,15.976 16.860,15.977 16.857,15.978 C16.842,15.982 16.828,15.984 16.814,15.987 C16.804,15.989 16.794,15.992 16.784,15.993 C16.758,15.997 16.731,15.999 16.705,15.999 C16.678,15.999 16.651,15.997 16.625,15.993 C16.615,15.992 16.605,15.989 16.595,15.987 C16.581,15.984 16.567,15.982 16.553,15.978 C16.549,15.977 16.546,15.976 16.543,15.975 C16.539,15.974 16.535,15.972 16.532,15.971 C16.509,15.964 16.487,15.955 16.467,15.945 C16.465,15.944 16.462,15.944 16.460,15.942 C16.438,15.931 16.417,15.919 16.396,15.905 C16.393,15.903 16.389,15.900 16.385,15.897 C16.366,15.883 16.347,15.868 16.329,15.852 C16.327,15.850 16.326,15.848 16.324,15.846 C16.309,15.831 16.295,15.816 16.282,15.799 C16.278,15.794 16.273,15.789 16.269,15.783 C16.256,15.765 16.245,15.747 16.235,15.728 C16.231,15.722 16.228,15.716 16.225,15.709 C16.215,15.689 16.206,15.668 16.199,15.646 C16.198,15.645 16.198,15.644 16.197,15.643 L14.609,10.645 C14.526,10.380 14.685,10.101 14.965,10.022 C15.245,9.943 15.540,10.093 15.624,10.357 L16.705,13.759 L17.786,10.357 C17.786,10.356 17.787,10.354 17.787,10.353 C17.788,10.352 17.788,10.351 17.788,10.350 C17.865,10.120 18.102,9.978 18.349,10.004 C18.352,10.005 18.356,10.005 18.360,10.006 C18.372,10.007 18.385,10.009 18.397,10.011 C18.409,10.013 18.420,10.016 18.431,10.019 C18.436,10.020 18.440,10.021 18.445,10.022 C18.445,10.022 18.446,10.023 18.446,10.023 C18.461,10.027 18.475,10.032 18.488,10.037 C18.491,10.038 18.494,10.039 18.497,10.040 C18.512,10.046 18.528,10.053 18.543,10.060 C18.543,10.061 18.543,10.061 18.544,10.061 C18.559,10.069 18.574,10.077 18.588,10.086 C18.590,10.087 18.591,10.088 18.592,10.089 C18.686,10.149 18.760,10.239 18.797,10.350 C18.797,10.351 18.798,10.352 18.798,10.353 C18.799,10.354 18.799,10.356 18.800,10.357 L19.881,13.759 L20.962,10.357 C21.045,10.093 21.340,9.942 21.621,10.022 C21.901,10.101 22.060,10.380 21.976,10.645 ZM13.327,14.999 C13.620,14.999 13.856,15.223 13.856,15.499 C13.856,15.775 13.620,15.999 13.327,15.999 L10.352,15.999 C10.060,15.999 9.823,15.775 9.823,15.499 L9.823,10.501 C9.823,10.225 10.060,10.001 10.352,10.001 L13.327,10.001 C13.620,10.001 13.856,10.225 13.856,10.501 C13.856,10.777 13.620,11.001 13.327,11.001 L10.882,11.001 L10.882,12.500 L13.327,12.500 C13.620,12.500 13.856,12.724 13.856,13.000 C13.856,13.276 13.620,13.500 13.327,13.500 L10.882,13.500 L10.882,14.999 L13.327,14.999 ZM8.233,15.539 C8.232,15.546 8.231,15.554 8.230,15.561 C8.229,15.569 8.228,15.578 8.226,15.586 C8.225,15.594 8.223,15.603 8.221,15.611 C8.219,15.618 8.218,15.625 8.216,15.632 C8.213,15.641 8.210,15.650 8.207,15.659 C8.205,15.665 8.202,15.671 8.200,15.677 C8.196,15.686 8.193,15.695 8.188,15.703 C8.185,15.710 8.182,15.716 8.179,15.722 C8.175,15.730 8.170,15.738 8.166,15.746 C8.162,15.752 8.157,15.759 8.153,15.765 C8.148,15.772 8.144,15.779 8.139,15.786 C8.134,15.792 8.129,15.799 8.123,15.806 C8.118,15.812 8.113,15.818 8.108,15.824 C8.102,15.830 8.096,15.836 8.090,15.842 C8.084,15.848 8.078,15.854 8.072,15.860 C8.066,15.865 8.060,15.870 8.054,15.875 C8.047,15.881 8.039,15.887 8.031,15.893 C8.026,15.897 8.020,15.900 8.015,15.904 C8.006,15.911 7.996,15.917 7.985,15.923 C7.983,15.924 7.981,15.926 7.978,15.927 C7.977,15.928 7.975,15.929 7.974,15.930 C7.935,15.951 7.894,15.968 7.851,15.979 C7.846,15.981 7.840,15.982 7.835,15.983 C7.819,15.987 7.803,15.990 7.787,15.992 C7.781,15.993 7.775,15.994 7.769,15.995 C7.749,15.997 7.729,15.999 7.708,15.999 C7.707,15.999 7.707,15.999 7.706,15.999 C7.706,15.999 7.706,15.999 7.706,15.999 C7.706,15.999 7.706,15.999 7.706,15.999 C7.684,15.999 7.664,15.997 7.643,15.995 C7.639,15.995 7.634,15.994 7.630,15.993 C7.613,15.991 7.596,15.988 7.580,15.984 C7.576,15.983 7.571,15.982 7.566,15.981 C7.549,15.976 7.532,15.971 7.516,15.965 C7.513,15.964 7.510,15.963 7.507,15.962 C7.487,15.955 7.468,15.946 7.450,15.937 C7.448,15.935 7.445,15.934 7.443,15.933 C7.428,15.924 7.413,15.916 7.399,15.906 C7.394,15.902 7.388,15.899 7.383,15.895 C7.371,15.886 7.360,15.877 7.349,15.868 C7.345,15.864 7.340,15.860 7.336,15.856 C7.321,15.843 7.307,15.828 7.294,15.813 C7.292,15.811 7.290,15.808 7.288,15.806 C7.276,15.792 7.266,15.777 7.256,15.761 C7.254,15.760 7.253,15.758 7.252,15.756 L5.059,12.305 L5.059,15.499 C5.059,15.775 4.822,15.999 4.529,15.999 C4.237,15.999 4.000,15.775 4.000,15.499 L4.000,10.501 C4.000,10.497 4.000,10.494 4.001,10.490 C4.001,10.480 4.001,10.471 4.002,10.461 C4.003,10.453 4.003,10.446 4.004,10.438 C4.006,10.430 4.007,10.422 4.008,10.414 C4.010,10.405 4.012,10.397 4.014,10.389 C4.015,10.382 4.017,10.375 4.019,10.368 C4.022,10.359 4.025,10.350 4.028,10.341 C4.030,10.335 4.033,10.329 4.035,10.323 C4.039,10.314 4.042,10.305 4.046,10.296 C4.049,10.290 4.053,10.284 4.056,10.278 C4.060,10.270 4.064,10.262 4.069,10.254 C4.073,10.248 4.077,10.241 4.082,10.235 C4.086,10.228 4.091,10.221 4.096,10.214 C4.101,10.207 4.106,10.201 4.112,10.194 C4.117,10.188 4.122,10.182 4.127,10.176 C4.133,10.170 4.139,10.164 4.145,10.158 C4.151,10.152 4.157,10.146 4.163,10.140 C4.169,10.135 4.175,10.130 4.181,10.125 C4.188,10.119 4.196,10.113 4.204,10.107 C4.209,10.103 4.214,10.100 4.220,10.096 C4.229,10.089 4.239,10.083 4.250,10.077 C4.252,10.076 4.254,10.074 4.257,10.073 C4.259,10.071 4.261,10.071 4.263,10.069 C4.274,10.063 4.285,10.058 4.297,10.052 C4.301,10.050 4.306,10.048 4.310,10.046 C4.321,10.041 4.332,10.037 4.344,10.033 C4.349,10.031 4.355,10.029 4.360,10.027 C4.370,10.024 4.381,10.021 4.391,10.019 C4.398,10.017 4.405,10.015 4.413,10.014 C4.421,10.012 4.430,10.010 4.439,10.009 C4.448,10.007 4.457,10.006 4.466,10.005 C4.473,10.004 4.481,10.004 4.488,10.003 C4.499,10.002 4.509,10.002 4.520,10.001 C4.523,10.001 4.526,10.001 4.529,10.001 C4.533,10.001 4.537,10.001 4.541,10.002 C4.551,10.002 4.562,10.002 4.572,10.003 C4.580,10.004 4.587,10.004 4.595,10.005 C4.604,10.006 4.613,10.008 4.622,10.009 C4.631,10.011 4.639,10.012 4.648,10.014 C4.655,10.016 4.663,10.018 4.671,10.020 C4.680,10.022 4.689,10.024 4.698,10.027 C4.705,10.030 4.712,10.032 4.719,10.035 C4.728,10.038 4.737,10.041 4.745,10.045 C4.753,10.048 4.760,10.051 4.767,10.054 C4.775,10.058 4.782,10.062 4.790,10.066 C4.798,10.070 4.805,10.074 4.812,10.079 C4.819,10.083 4.826,10.087 4.833,10.091 C4.840,10.096 4.847,10.102 4.855,10.107 C4.861,10.112 4.867,10.116 4.873,10.121 C4.880,10.127 4.886,10.132 4.893,10.138 C4.899,10.144 4.905,10.149 4.911,10.155 C4.917,10.160 4.922,10.166 4.927,10.172 C4.934,10.179 4.940,10.186 4.946,10.194 C4.950,10.199 4.954,10.204 4.958,10.209 C4.965,10.218 4.972,10.227 4.978,10.236 C4.979,10.239 4.981,10.241 4.983,10.243 L7.176,13.695 L7.176,10.501 C7.176,10.225 7.413,10.001 7.705,10.001 C7.998,10.001 8.235,10.225 8.235,10.501 L8.235,15.499 C8.235,15.503 8.234,15.506 8.234,15.510 C8.234,15.519 8.234,15.529 8.233,15.539 Z" class="cls-2"/>
  </g>
</svg>
