<svg
        xmlns="http://www.w3.org/2000/svg"
        xmlns:xlink="http://www.w3.org/1999/xlink"
        width="17px" height="17px">
    <path fill-rule="evenodd"  fill="rgb(255, 255, 255)"
          d="M16.051,6.730 C16.122,6.773 16.220,6.832 16.332,6.935 C16.871,7.430 17.113,8.231 16.949,8.975 C16.780,9.742 16.358,10.050 16.079,10.253 C15.866,10.409 15.851,10.420 15.859,10.577 C15.870,10.644 15.888,10.677 15.930,10.752 C16.032,10.939 16.125,11.136 16.150,11.499 C16.191,12.087 15.998,12.657 15.609,13.103 C15.247,13.516 14.755,13.773 14.258,13.806 L14.171,13.811 C13.976,13.821 13.947,13.822 13.858,13.936 C13.814,14.006 13.814,14.014 13.813,14.097 C13.812,14.165 13.811,14.260 13.793,14.380 C13.659,15.277 12.869,16.016 11.951,16.138 L11.951,16.142 L11.916,16.142 C11.862,16.148 11.808,16.153 11.754,16.154 L11.754,16.152 C11.725,16.155 11.695,16.156 11.663,16.156 C11.547,16.156 11.442,16.149 11.352,16.134 C11.226,16.116 11.036,16.068 10.879,15.996 C10.825,15.970 10.776,15.945 10.730,15.922 C10.612,15.862 10.597,15.857 10.567,15.857 C10.550,15.857 10.520,15.859 10.473,15.868 C10.372,15.902 10.353,15.931 10.263,16.068 C10.125,16.277 9.918,16.591 9.371,16.821 C9.090,16.940 8.794,17.000 8.493,17.000 C8.023,17.000 7.566,16.851 7.208,16.579 C6.905,16.351 6.788,16.153 6.710,16.023 C6.661,15.941 6.653,15.928 6.578,15.887 C6.508,15.860 6.469,15.855 6.451,15.855 C6.414,15.855 6.358,15.882 6.261,15.929 C6.127,15.995 5.942,16.086 5.695,16.126 C5.578,16.146 5.458,16.156 5.340,16.156 C4.701,16.156 4.075,15.863 3.666,15.373 C3.227,14.847 3.206,14.429 3.192,14.152 C3.189,14.101 3.185,14.016 3.177,14.000 C3.096,13.839 3.096,13.839 2.838,13.814 C2.583,13.789 2.233,13.754 1.842,13.494 C1.179,13.052 0.807,12.328 0.847,11.557 C0.868,11.136 0.985,10.916 1.070,10.756 C1.097,10.707 1.116,10.669 1.132,10.629 C1.174,10.441 1.143,10.412 0.896,10.238 C0.794,10.167 0.680,10.086 0.579,9.979 C0.133,9.507 -0.070,8.855 0.023,8.191 C0.110,7.570 0.444,7.031 0.917,6.750 L1.018,6.690 C1.114,6.614 1.144,6.548 1.142,6.424 C1.129,6.357 1.109,6.320 1.068,6.244 C0.987,6.094 0.877,5.888 0.850,5.503 C0.807,4.889 1.025,4.275 1.434,3.849 C1.546,3.703 1.720,3.581 1.904,3.469 C2.194,3.293 2.530,3.192 2.827,3.192 L2.867,3.193 L2.881,3.193 C3.093,3.193 3.171,3.033 3.179,2.993 C3.185,2.967 3.188,2.911 3.191,2.857 C3.209,2.567 3.238,2.081 3.722,1.565 C4.091,1.170 4.549,0.929 5.049,0.864 C5.145,0.845 5.242,0.845 5.326,0.845 C5.327,0.845 5.328,0.845 5.329,0.845 C5.538,0.845 5.729,0.871 5.896,0.922 C6.084,0.980 6.162,1.022 6.275,1.087 L6.318,1.112 C6.367,1.131 6.414,1.141 6.459,1.141 C6.574,1.141 6.657,1.075 6.681,1.034 C7.074,0.380 7.687,0.023 8.463,0.001 L8.491,0.000 L8.500,-0.000 L8.508,0.000 C9.328,0.013 9.962,0.450 10.227,0.878 C10.360,1.095 10.387,1.123 10.524,1.143 L10.541,1.143 C10.603,1.143 10.623,1.137 10.623,1.137 C10.632,1.134 10.663,1.117 10.685,1.104 C10.745,1.071 10.826,1.026 10.939,0.980 C11.159,0.890 11.400,0.844 11.655,0.844 C12.152,0.844 12.639,1.016 13.026,1.327 C13.713,1.880 13.769,2.439 13.806,2.808 C13.828,3.026 13.839,3.058 13.876,3.092 C13.971,3.180 13.974,3.182 14.189,3.192 L14.190,3.192 C14.248,3.192 14.560,3.201 14.918,3.373 C15.574,3.689 16.041,4.327 16.135,5.040 L16.129,5.041 C16.145,5.120 16.154,5.209 16.156,5.307 C16.162,5.668 16.076,6.012 15.914,6.275 C15.829,6.414 15.839,6.537 15.947,6.662 C15.979,6.687 16.008,6.704 16.051,6.730 ZM15.447,5.988 C15.541,5.834 15.612,5.597 15.607,5.317 C15.605,5.201 15.591,5.112 15.591,5.112 L15.591,5.112 C15.526,4.617 15.198,4.116 14.681,3.868 C14.439,3.751 14.227,3.741 14.190,3.741 C14.184,3.741 14.182,3.741 14.186,3.741 C13.906,3.728 13.749,3.719 13.505,3.496 C13.032,3.062 13.561,2.462 12.682,1.755 C12.380,1.512 12.005,1.393 11.655,1.393 C11.474,1.393 11.300,1.425 11.147,1.487 C10.887,1.593 10.861,1.691 10.541,1.691 C10.522,1.691 10.503,1.691 10.482,1.690 C10.070,1.638 9.930,1.441 9.760,1.167 C9.590,0.892 9.133,0.558 8.500,0.548 L8.472,0.549 C7.928,0.564 7.467,0.789 7.152,1.316 C7.032,1.515 6.775,1.689 6.459,1.689 C6.338,1.689 6.209,1.664 6.076,1.605 C5.927,1.522 5.908,1.499 5.736,1.447 C5.597,1.404 5.445,1.394 5.329,1.394 C5.212,1.394 5.132,1.405 5.145,1.405 C5.148,1.405 5.153,1.404 5.163,1.403 C4.795,1.440 4.431,1.610 4.122,1.940 C3.668,2.425 3.773,2.828 3.717,3.103 C3.656,3.402 3.351,3.742 2.881,3.742 C2.871,3.742 2.861,3.741 2.850,3.741 C2.843,3.741 2.835,3.741 2.827,3.741 C2.649,3.741 2.411,3.803 2.189,3.938 C1.989,4.059 1.859,4.198 1.860,4.198 C1.860,4.198 1.861,4.197 1.862,4.197 C1.576,4.476 1.361,4.939 1.397,5.465 C1.431,5.952 1.628,5.972 1.688,6.367 C1.707,6.710 1.585,6.957 1.316,7.152 C1.269,7.180 1.197,7.221 1.197,7.221 C0.524,7.621 0.257,8.840 0.978,9.603 C1.237,9.878 1.842,10.017 1.659,10.783 C1.566,11.058 1.417,11.136 1.394,11.585 C1.367,12.108 1.607,12.678 2.146,13.037 C2.805,13.476 3.295,13.010 3.667,13.755 C3.832,14.085 3.585,14.420 4.087,15.022 C4.378,15.370 4.836,15.607 5.340,15.607 C5.427,15.607 5.516,15.600 5.605,15.585 C5.965,15.526 6.139,15.307 6.451,15.307 C6.553,15.307 6.669,15.330 6.811,15.390 C7.257,15.626 7.082,15.797 7.538,16.142 C7.792,16.334 8.130,16.452 8.493,16.452 C8.710,16.452 8.936,16.410 9.159,16.316 C9.926,15.993 9.700,15.536 10.332,15.337 C10.423,15.317 10.500,15.308 10.567,15.308 C10.784,15.308 10.901,15.401 11.110,15.498 C11.259,15.567 11.439,15.594 11.445,15.594 C11.446,15.594 11.445,15.594 11.441,15.593 C11.516,15.605 11.603,15.608 11.663,15.608 C11.709,15.608 11.736,15.607 11.735,15.606 C12.465,15.581 13.145,15.008 13.251,14.299 C13.292,14.025 13.207,13.942 13.408,13.622 C13.690,13.252 13.947,13.277 14.222,13.259 C14.933,13.211 15.668,12.478 15.603,11.536 C15.569,11.039 15.370,11.034 15.312,10.634 C15.260,9.681 16.162,9.996 16.414,8.856 C16.539,8.286 16.350,7.697 15.960,7.338 C15.821,7.210 15.722,7.194 15.566,7.057 C15.262,6.736 15.234,6.334 15.447,5.988 ZM10.420,12.064 C9.664,12.064 9.049,11.449 9.049,10.693 C9.049,9.938 9.664,9.323 10.420,9.323 C11.176,9.323 11.791,9.938 11.791,10.693 C11.791,11.449 11.176,12.064 10.420,12.064 ZM10.420,9.871 C9.967,9.871 9.598,10.240 9.598,10.693 C9.598,11.147 9.967,11.516 10.420,11.516 C10.874,11.516 11.243,11.147 11.243,10.693 C11.243,10.240 10.874,9.871 10.420,9.871 ZM5.970,11.966 C5.915,12.031 5.837,12.064 5.759,12.064 C5.697,12.064 5.635,12.043 5.583,12.001 C5.467,11.904 5.451,11.731 5.548,11.615 L11.032,5.034 C11.129,4.918 11.302,4.902 11.418,4.999 C11.535,5.096 11.550,5.269 11.453,5.385 L5.970,11.966 ZM6.856,7.677 C6.100,7.677 5.485,7.062 5.485,6.307 C5.485,5.551 6.100,4.936 6.856,4.936 C7.612,4.936 8.227,5.551 8.227,6.307 C8.227,7.062 7.612,7.677 6.856,7.677 ZM6.856,5.484 C6.402,5.484 6.033,5.853 6.033,6.307 C6.033,6.760 6.402,7.129 6.856,7.129 C7.309,7.129 7.678,6.760 7.678,6.307 C7.678,5.853 7.309,5.484 6.856,5.484 Z"/>
</svg>