<svg xmlns="http://www.w3.org/2000/svg" xmlns:xlink="http://www.w3.org/1999/xlink" width="0" height="0" style="position:absolute">
    <symbol id="sale01"  viewBox="0 0 25 25">

        <g>
            <circle cx="12.5" cy="12.5" r="12.5" fill="#ff6749"/>
            <path fill="#ffffff" d="M8.773,17.840 C8.687,17.940 8.564,17.991 8.439,17.991 C8.341,17.991 8.243,17.959 8.161,17.894 C7.977,17.744 7.952,17.478 8.106,17.298 L16.786,7.161 C16.939,6.982 17.212,6.957 17.397,7.107 C17.581,7.256 17.606,7.522 17.453,7.702 L8.773,17.840 ZM10.175,11.233 C8.979,11.233 8.005,10.285 8.005,9.121 C8.005,7.956 8.979,7.009 10.175,7.009 C11.372,7.009 12.345,7.956 12.345,9.121 C12.345,10.285 11.372,11.233 10.175,11.233 ZM10.175,7.854 C9.458,7.854 8.873,8.422 8.873,9.121 C8.873,9.820 9.458,10.388 10.175,10.388 C10.893,10.388 11.477,9.820 11.477,9.121 C11.477,8.422 10.893,7.854 10.175,7.854 ZM15.817,13.767 C17.014,13.767 17.987,14.715 17.987,15.879 C17.987,17.044 17.014,17.991 15.817,17.991 C14.621,17.991 13.647,17.044 13.647,15.879 C13.647,14.715 14.621,13.767 15.817,13.767 ZM15.817,17.147 C16.535,17.147 17.119,16.578 17.119,15.879 C17.119,15.181 16.535,14.612 15.817,14.612 C15.099,14.612 14.515,15.181 14.515,15.879 C14.515,16.578 15.099,17.147 15.817,17.147 Z" />
        </g>
    </symbol>
    <symbol  id="sale02" width="25" height="25" viewBox="0 0 25 25">
        <g>
            <circle cx="12.5" cy="12.5" r="12.5" fill="#78bb46"/>
            <path fill="#ffffff" d="M21.976,10.645 L20.388,15.643 C20.388,15.644 20.387,15.645 20.387,15.646 C20.380,15.668 20.370,15.689 20.360,15.709 C20.357,15.716 20.354,15.722 20.351,15.728 C20.341,15.747 20.329,15.765 20.316,15.783 C20.312,15.788 20.308,15.794 20.303,15.799 C20.290,15.815 20.277,15.831 20.262,15.846 C20.260,15.848 20.258,15.850 20.256,15.852 C20.239,15.868 20.220,15.883 20.200,15.897 C20.196,15.900 20.193,15.903 20.189,15.905 C20.169,15.919 20.148,15.931 20.125,15.942 C20.123,15.943 20.121,15.944 20.119,15.945 C20.098,15.955 20.076,15.964 20.054,15.971 C20.050,15.972 20.046,15.974 20.043,15.975 C20.039,15.976 20.036,15.977 20.033,15.978 C20.019,15.982 20.004,15.984 19.990,15.987 C19.980,15.989 19.971,15.992 19.961,15.993 C19.934,15.997 19.907,15.999 19.881,15.999 C19.854,15.999 19.828,15.997 19.801,15.993 C19.791,15.992 19.781,15.989 19.771,15.987 C19.757,15.984 19.743,15.982 19.729,15.978 C19.726,15.977 19.722,15.976 19.719,15.975 C19.715,15.974 19.712,15.972 19.708,15.971 C19.686,15.964 19.664,15.955 19.643,15.945 C19.641,15.944 19.639,15.943 19.637,15.942 C19.614,15.931 19.593,15.919 19.573,15.905 C19.569,15.903 19.565,15.900 19.562,15.897 C19.542,15.883 19.523,15.868 19.506,15.852 C19.504,15.850 19.502,15.848 19.500,15.846 C19.485,15.831 19.471,15.815 19.458,15.799 C19.454,15.794 19.450,15.788 19.446,15.783 C19.433,15.765 19.421,15.747 19.411,15.728 C19.408,15.722 19.404,15.716 19.401,15.709 C19.391,15.689 19.382,15.668 19.375,15.646 C19.375,15.645 19.374,15.644 19.374,15.643 L18.293,12.241 L17.212,15.643 C17.212,15.644 17.211,15.645 17.211,15.646 C17.203,15.668 17.194,15.689 17.184,15.709 C17.181,15.716 17.178,15.722 17.175,15.728 C17.164,15.747 17.153,15.765 17.140,15.783 C17.136,15.788 17.132,15.794 17.127,15.799 C17.114,15.816 17.100,15.831 17.085,15.846 C17.083,15.848 17.082,15.850 17.080,15.852 C17.063,15.868 17.044,15.883 17.024,15.897 C17.020,15.900 17.016,15.903 17.013,15.905 C16.993,15.919 16.971,15.931 16.949,15.943 C16.947,15.944 16.945,15.944 16.942,15.945 C16.922,15.955 16.900,15.964 16.877,15.971 C16.874,15.972 16.870,15.974 16.866,15.975 C16.863,15.976 16.860,15.977 16.857,15.978 C16.842,15.982 16.828,15.984 16.814,15.987 C16.804,15.989 16.794,15.992 16.784,15.993 C16.758,15.997 16.731,15.999 16.705,15.999 C16.678,15.999 16.651,15.997 16.625,15.993 C16.615,15.992 16.605,15.989 16.595,15.987 C16.581,15.984 16.567,15.982 16.553,15.978 C16.549,15.977 16.546,15.976 16.543,15.975 C16.539,15.974 16.535,15.972 16.532,15.971 C16.509,15.964 16.487,15.955 16.467,15.945 C16.465,15.944 16.462,15.944 16.460,15.942 C16.438,15.931 16.417,15.919 16.396,15.905 C16.393,15.903 16.389,15.900 16.385,15.897 C16.366,15.883 16.347,15.868 16.329,15.852 C16.327,15.850 16.326,15.848 16.324,15.846 C16.309,15.831 16.295,15.816 16.282,15.799 C16.278,15.794 16.273,15.789 16.269,15.783 C16.256,15.765 16.245,15.747 16.235,15.728 C16.231,15.722 16.228,15.716 16.225,15.709 C16.215,15.689 16.206,15.668 16.199,15.646 C16.198,15.645 16.198,15.644 16.197,15.643 L14.609,10.645 C14.526,10.380 14.685,10.101 14.965,10.022 C15.245,9.943 15.540,10.093 15.624,10.357 L16.705,13.759 L17.786,10.357 C17.786,10.356 17.787,10.354 17.787,10.353 C17.788,10.352 17.788,10.351 17.788,10.350 C17.865,10.120 18.102,9.978 18.349,10.004 C18.352,10.005 18.356,10.005 18.360,10.006 C18.372,10.007 18.385,10.009 18.397,10.011 C18.409,10.013 18.420,10.016 18.431,10.019 C18.436,10.020 18.440,10.021 18.445,10.022 C18.445,10.022 18.446,10.023 18.446,10.023 C18.461,10.027 18.475,10.032 18.488,10.037 C18.491,10.038 18.494,10.039 18.497,10.040 C18.512,10.046 18.528,10.053 18.543,10.060 C18.543,10.061 18.543,10.061 18.544,10.061 C18.559,10.069 18.574,10.077 18.588,10.086 C18.590,10.087 18.591,10.088 18.592,10.089 C18.686,10.149 18.760,10.239 18.797,10.350 C18.797,10.351 18.798,10.352 18.798,10.353 C18.799,10.354 18.799,10.356 18.800,10.357 L19.881,13.759 L20.962,10.357 C21.045,10.093 21.340,9.942 21.621,10.022 C21.901,10.101 22.060,10.380 21.976,10.645 ZM13.327,14.999 C13.620,14.999 13.856,15.223 13.856,15.499 C13.856,15.775 13.620,15.999 13.327,15.999 L10.352,15.999 C10.060,15.999 9.823,15.775 9.823,15.499 L9.823,10.501 C9.823,10.225 10.060,10.001 10.352,10.001 L13.327,10.001 C13.620,10.001 13.856,10.225 13.856,10.501 C13.856,10.777 13.620,11.001 13.327,11.001 L10.882,11.001 L10.882,12.500 L13.327,12.500 C13.620,12.500 13.856,12.724 13.856,13.000 C13.856,13.276 13.620,13.500 13.327,13.500 L10.882,13.500 L10.882,14.999 L13.327,14.999 ZM8.233,15.539 C8.232,15.546 8.231,15.554 8.230,15.561 C8.229,15.569 8.228,15.578 8.226,15.586 C8.225,15.594 8.223,15.603 8.221,15.611 C8.219,15.618 8.218,15.625 8.216,15.632 C8.213,15.641 8.210,15.650 8.207,15.659 C8.205,15.665 8.202,15.671 8.200,15.677 C8.196,15.686 8.193,15.695 8.188,15.703 C8.185,15.710 8.182,15.716 8.179,15.722 C8.175,15.730 8.170,15.738 8.166,15.746 C8.162,15.752 8.157,15.759 8.153,15.765 C8.148,15.772 8.144,15.779 8.139,15.786 C8.134,15.792 8.129,15.799 8.123,15.806 C8.118,15.812 8.113,15.818 8.108,15.824 C8.102,15.830 8.096,15.836 8.090,15.842 C8.084,15.848 8.078,15.854 8.072,15.860 C8.066,15.865 8.060,15.870 8.054,15.875 C8.047,15.881 8.039,15.887 8.031,15.893 C8.026,15.897 8.020,15.900 8.015,15.904 C8.006,15.911 7.996,15.917 7.985,15.923 C7.983,15.924 7.981,15.926 7.978,15.927 C7.977,15.928 7.975,15.929 7.974,15.930 C7.935,15.951 7.894,15.968 7.851,15.979 C7.846,15.981 7.840,15.982 7.835,15.983 C7.819,15.987 7.803,15.990 7.787,15.992 C7.781,15.993 7.775,15.994 7.769,15.995 C7.749,15.997 7.729,15.999 7.708,15.999 C7.707,15.999 7.707,15.999 7.706,15.999 C7.706,15.999 7.706,15.999 7.706,15.999 C7.706,15.999 7.706,15.999 7.706,15.999 C7.684,15.999 7.664,15.997 7.643,15.995 C7.639,15.995 7.634,15.994 7.630,15.993 C7.613,15.991 7.596,15.988 7.580,15.984 C7.576,15.983 7.571,15.982 7.566,15.981 C7.549,15.976 7.532,15.971 7.516,15.965 C7.513,15.964 7.510,15.963 7.507,15.962 C7.487,15.955 7.468,15.946 7.450,15.937 C7.448,15.935 7.445,15.934 7.443,15.933 C7.428,15.924 7.413,15.916 7.399,15.906 C7.394,15.902 7.388,15.899 7.383,15.895 C7.371,15.886 7.360,15.877 7.349,15.868 C7.345,15.864 7.340,15.860 7.336,15.856 C7.321,15.843 7.307,15.828 7.294,15.813 C7.292,15.811 7.290,15.808 7.288,15.806 C7.276,15.792 7.266,15.777 7.256,15.761 C7.254,15.760 7.253,15.758 7.252,15.756 L5.059,12.305 L5.059,15.499 C5.059,15.775 4.822,15.999 4.529,15.999 C4.237,15.999 4.000,15.775 4.000,15.499 L4.000,10.501 C4.000,10.497 4.000,10.494 4.001,10.490 C4.001,10.480 4.001,10.471 4.002,10.461 C4.003,10.453 4.003,10.446 4.004,10.438 C4.006,10.430 4.007,10.422 4.008,10.414 C4.010,10.405 4.012,10.397 4.014,10.389 C4.015,10.382 4.017,10.375 4.019,10.368 C4.022,10.359 4.025,10.350 4.028,10.341 C4.030,10.335 4.033,10.329 4.035,10.323 C4.039,10.314 4.042,10.305 4.046,10.296 C4.049,10.290 4.053,10.284 4.056,10.278 C4.060,10.270 4.064,10.262 4.069,10.254 C4.073,10.248 4.077,10.241 4.082,10.235 C4.086,10.228 4.091,10.221 4.096,10.214 C4.101,10.207 4.106,10.201 4.112,10.194 C4.117,10.188 4.122,10.182 4.127,10.176 C4.133,10.170 4.139,10.164 4.145,10.158 C4.151,10.152 4.157,10.146 4.163,10.140 C4.169,10.135 4.175,10.130 4.181,10.125 C4.188,10.119 4.196,10.113 4.204,10.107 C4.209,10.103 4.214,10.100 4.220,10.096 C4.229,10.089 4.239,10.083 4.250,10.077 C4.252,10.076 4.254,10.074 4.257,10.073 C4.259,10.071 4.261,10.071 4.263,10.069 C4.274,10.063 4.285,10.058 4.297,10.052 C4.301,10.050 4.306,10.048 4.310,10.046 C4.321,10.041 4.332,10.037 4.344,10.033 C4.349,10.031 4.355,10.029 4.360,10.027 C4.370,10.024 4.381,10.021 4.391,10.019 C4.398,10.017 4.405,10.015 4.413,10.014 C4.421,10.012 4.430,10.010 4.439,10.009 C4.448,10.007 4.457,10.006 4.466,10.005 C4.473,10.004 4.481,10.004 4.488,10.003 C4.499,10.002 4.509,10.002 4.520,10.001 C4.523,10.001 4.526,10.001 4.529,10.001 C4.533,10.001 4.537,10.001 4.541,10.002 C4.551,10.002 4.562,10.002 4.572,10.003 C4.580,10.004 4.587,10.004 4.595,10.005 C4.604,10.006 4.613,10.008 4.622,10.009 C4.631,10.011 4.639,10.012 4.648,10.014 C4.655,10.016 4.663,10.018 4.671,10.020 C4.680,10.022 4.689,10.024 4.698,10.027 C4.705,10.030 4.712,10.032 4.719,10.035 C4.728,10.038 4.737,10.041 4.745,10.045 C4.753,10.048 4.760,10.051 4.767,10.054 C4.775,10.058 4.782,10.062 4.790,10.066 C4.798,10.070 4.805,10.074 4.812,10.079 C4.819,10.083 4.826,10.087 4.833,10.091 C4.840,10.096 4.847,10.102 4.855,10.107 C4.861,10.112 4.867,10.116 4.873,10.121 C4.880,10.127 4.886,10.132 4.893,10.138 C4.899,10.144 4.905,10.149 4.911,10.155 C4.917,10.160 4.922,10.166 4.927,10.172 C4.934,10.179 4.940,10.186 4.946,10.194 C4.950,10.199 4.954,10.204 4.958,10.209 C4.965,10.218 4.972,10.227 4.978,10.236 C4.979,10.239 4.981,10.241 4.983,10.243 L7.176,13.695 L7.176,10.501 C7.176,10.225 7.413,10.001 7.705,10.001 C7.998,10.001 8.235,10.225 8.235,10.501 L8.235,15.499 C8.235,15.503 8.234,15.506 8.234,15.510 C8.234,15.519 8.234,15.529 8.233,15.539 Z" />
        </g>
    </symbol>
    <symbol id="heart01" width="21px" height="18px">
        <path fill-rule="evenodd"  fill="rgb(255, 200, 0)" d="M19.304,1.671 C18.204,0.599 16.748,0.013 15.194,0.013 C13.641,0.013 12.181,0.603 11.081,1.675 L10.507,2.235 L9.923,1.667 C8.824,0.595 7.359,-0.000 5.806,-0.000 C4.256,-0.000 2.796,0.590 1.701,1.658 C0.601,2.730 -0.004,4.154 0.000,5.669 C0.000,7.183 0.610,8.603 1.710,9.675 L10.070,17.826 C10.186,17.939 10.342,18.000 10.493,18.000 C10.645,18.000 10.801,17.944 10.916,17.831 L19.295,9.692 C20.394,8.620 21.000,7.196 21.000,5.682 C21.004,4.167 20.403,2.743 19.304,1.671 ZM18.449,8.863 L10.493,16.589 L2.556,8.850 C1.683,8.000 1.202,6.871 1.202,5.669 C1.202,4.466 1.679,3.338 2.551,2.491 C3.419,1.645 4.577,1.176 5.806,1.176 C7.039,1.176 8.201,1.645 9.073,2.496 L10.079,3.477 C10.315,3.707 10.694,3.707 10.930,3.477 L11.927,2.505 C12.799,1.654 13.961,1.185 15.190,1.185 C16.419,1.185 17.576,1.654 18.449,2.500 C19.321,3.351 19.798,4.479 19.798,5.682 C19.802,6.884 19.321,8.013 18.449,8.863 Z"/>
    </symbol>
    <symbol id="heart02" width="21px" height="18px">
        <path fill-rule="evenodd"  fill="rgb(255, 200, 0)"
              d="M19.304,1.671 C18.204,0.599 16.748,0.013 15.194,0.013 C13.641,0.013 12.181,0.603 11.081,1.675 L10.507,2.235 L9.924,1.667 C8.824,0.595 7.359,-0.000 5.806,-0.000 C4.256,-0.000 2.796,0.590 1.701,1.658 C0.601,2.730 -0.004,4.154 0.000,5.669 C0.000,7.183 0.610,8.603 1.710,9.675 L10.070,17.826 C10.186,17.939 10.342,18.000 10.493,18.000 C10.645,18.000 10.800,17.944 10.916,17.831 L19.295,9.692 C20.394,8.620 21.000,7.196 21.000,5.682 C21.004,4.167 20.403,2.743 19.304,1.671 Z"/>
    </symbol>
    <symbol id="aspect01" width="19" height="19" viewBox="0 0 19 19">
        <g>
            <path d="M15.697,9.466 C15.610,9.541 15.495,9.577 15.382,9.559 C15.100,9.519 14.866,9.500 14.646,9.500 C11.809,9.500 9.501,11.809 9.501,14.646 C9.501,14.866 9.520,15.100 9.560,15.381 C9.576,15.495 9.542,15.610 9.467,15.697 C9.392,15.783 9.283,15.833 9.168,15.833 L0.397,15.833 C0.178,15.833 0.001,15.656 0.001,15.438 L0.001,5.937 C0.001,5.719 0.178,5.542 0.397,5.542 L5.147,5.542 C5.366,5.542 5.543,5.719 5.543,5.937 L5.543,7.521 C5.543,7.739 5.720,7.917 5.938,7.917 L9.896,7.917 C10.115,7.917 10.292,7.739 10.292,7.521 L10.291,5.938 C10.291,5.833 10.332,5.732 10.407,5.658 C10.481,5.583 10.581,5.542 10.686,5.542 L15.438,5.542 C15.657,5.542 15.834,5.719 15.834,5.937 L15.834,9.167 C15.834,9.282 15.784,9.391 15.697,9.466 ZM15.438,4.750 L10.685,4.750 C10.467,4.750 10.290,4.573 10.290,4.355 L10.289,3.949 L9.973,0.431 C9.963,0.320 10.000,0.211 10.075,0.129 C10.150,0.047 10.256,-0.000 10.367,-0.000 L13.289,-0.000 C13.434,-0.000 13.568,0.079 13.637,0.207 L15.786,4.165 C15.852,4.288 15.849,4.437 15.778,4.557 C15.706,4.677 15.577,4.750 15.438,4.750 ZM5.147,4.750 L0.397,4.750 C0.257,4.750 0.128,4.677 0.057,4.557 C-0.015,4.437 -0.017,4.288 0.049,4.165 L2.198,0.207 C2.267,0.079 2.401,-0.000 2.546,-0.000 L5.469,-0.000 C5.580,-0.000 5.686,0.047 5.761,0.129 C5.836,0.211 5.873,0.320 5.863,0.431 L5.543,4.354 C5.543,4.573 5.366,4.750 5.147,4.750 Z" fill-rule="evenodd" fill="#40434e"/>
            <path d="M14.646,10.292 C12.245,10.292 10.292,12.245 10.292,14.646 C10.292,17.047 12.245,19.000 14.646,19.000 C17.047,19.000 19.000,17.047 19.000,14.646 C19.000,12.245 17.047,10.292 14.646,10.292 ZM14.646,17.417 C14.428,17.417 14.250,17.239 14.250,17.021 C14.250,16.802 14.428,16.625 14.646,16.625 C14.865,16.625 15.042,16.802 15.042,17.021 C15.042,17.239 14.865,17.417 14.646,17.417 ZM15.042,15.438 C15.042,15.656 14.865,15.833 14.646,15.833 C14.427,15.833 14.250,15.656 14.250,15.438 L14.250,12.271 C14.250,12.052 14.427,11.875 14.646,11.875 C14.865,11.875 15.042,12.052 15.042,12.271 L15.042,15.438 Z" fill-rule="evenodd" fill="#ffde00"/>
        </g>
    </symbol>
    <symbol  id="aspect02" width="18" height="20" viewBox="0 0 18 20">
        <g>
            <path d="M17.507,15.728 L17.023,15.231 C17.205,15.139 17.332,14.944 17.332,14.717 L17.332,14.006 L17.332,11.002 L17.332,5.437 C17.332,5.121 17.088,4.864 16.788,4.864 L6.904,4.864 L6.233,4.176 L16.788,4.176 C17.458,4.176 18.003,4.742 18.003,5.437 L18.003,14.717 C18.003,15.132 17.806,15.497 17.507,15.728 ZM13.730,14.006 L14.982,15.289 L15.652,15.976 L17.563,17.934 L17.837,20.005 L13.906,15.977 L13.235,15.289 L11.983,14.006 L9.051,11.002 L3.059,4.864 L2.388,4.176 L0.330,2.066 L0.055,-0.005 L4.136,4.176 L4.807,4.864 L10.798,11.002 L13.730,14.006 ZM0.518,4.408 L1.006,4.908 C0.810,4.995 0.672,5.199 0.672,5.437 L0.672,11.002 L0.672,14.006 L0.672,14.716 C0.672,15.032 0.916,15.289 1.216,15.289 L11.138,15.289 L11.809,15.977 L1.216,15.977 C0.546,15.977 0.001,15.411 0.001,14.716 L0.001,5.437 C0.001,5.012 0.206,4.637 0.518,4.408 Z" fill-rule="evenode" fill="#2d303b"/>
            <path d="M15.827,14.006 L12.895,11.002 L17.332,11.002 L17.332,14.006 L15.827,14.006 ZM0.672,11.002 L6.954,11.002 L9.886,14.006 L0.672,14.006 L0.672,11.002 Z" fill-rule="evenode" fill="#ffde00"/>
        </g>
    </symbol>
    <symbol id="aspect03" width="17" height="17" viewBox="0 0 17 17">
        <g>
            <path d="M13.832,8.500 C13.832,8.732 13.909,9.041 13.909,9.273 C13.909,10.895 13.291,12.364 12.286,13.445 C12.055,12.827 11.514,12.364 10.818,12.364 L10.045,12.364 L10.045,10.045 C10.045,9.582 9.736,9.273 9.273,9.273 L4.636,9.273 L4.636,7.727 L6.182,7.727 C6.645,7.727 6.955,7.418 6.955,6.955 L6.955,5.409 L8.500,5.409 C9.350,5.409 10.045,4.714 10.045,3.864 L10.045,1.932 C9.350,1.700 8.500,1.545 7.727,1.545 C3.477,1.545 -0.000,5.023 -0.000,9.273 C-0.000,13.523 3.477,17.000 7.727,17.000 C11.977,17.000 15.455,13.523 15.455,9.273 C15.455,9.041 15.455,8.732 15.377,8.500 L13.832,8.500 ZM6.955,15.377 C3.941,14.991 1.545,12.364 1.545,9.273 C1.545,8.809 1.623,8.345 1.700,7.882 L5.409,11.591 L5.409,12.364 C5.409,13.214 6.105,13.909 6.955,13.909 L6.955,15.377 Z" fill-rule="evenode" fill="#40434e"/>
            <path d="M16.227,2.318 L16.227,1.932 C16.227,0.850 15.377,-0.000 14.295,-0.000 C13.214,-0.000 12.364,0.850 12.364,1.932 L12.364,2.318 C11.900,2.318 11.591,2.627 11.591,3.091 L11.591,6.182 C11.591,6.645 11.900,6.955 12.364,6.955 L16.227,6.955 C16.691,6.955 17.000,6.645 17.000,6.182 L17.000,3.091 C17.000,2.627 16.691,2.318 16.227,2.318 ZM15.609,2.318 L12.982,2.318 L12.982,1.932 C12.982,1.236 13.600,0.618 14.295,0.618 C14.991,0.618 15.609,1.236 15.609,1.932 L15.609,2.318 L15.609,2.318 Z" fill-rule="evenode" fill="#fbdb02"/>
        </g>
    </symbol>
    <symbol id="aspect04" width="23" height="16" viewBox="0 0 23 16">
        <g>
            <path d="M22.543,12.677 L21.088,12.677 C21.128,12.864 21.151,13.056 21.151,13.254 C21.151,14.768 19.919,16.000 18.405,16.000 C16.891,16.000 15.658,14.768 15.658,13.254 C15.658,13.056 15.682,12.864 15.721,12.677 L12.363,12.677 L11.649,12.677 L8.055,12.677 C8.095,12.864 8.117,13.056 8.117,13.254 C8.117,14.768 6.886,16.000 5.371,16.000 C3.857,16.000 2.625,14.768 2.625,13.254 C2.625,13.056 2.648,12.864 2.688,12.677 L0.479,12.677 C0.214,12.677 0.000,12.463 0.000,12.198 L0.000,11.386 C0.000,11.122 0.214,10.907 0.479,10.907 L3.967,10.907 C4.379,10.659 4.856,10.508 5.371,10.508 C5.886,10.508 6.364,10.659 6.776,10.907 L9.832,10.907 L10.820,11.964 C11.046,12.206 11.353,12.329 11.660,12.329 C11.942,12.329 12.223,12.226 12.445,12.019 C12.909,11.585 12.934,10.857 12.500,10.393 L11.704,9.542 L13.073,2.509 C13.114,2.294 13.303,2.139 13.522,2.139 L18.235,2.139 C18.428,2.139 18.601,2.260 18.666,2.441 L20.357,7.110 C20.422,7.289 20.592,7.410 20.784,7.411 L21.212,7.415 C22.202,7.423 23.000,8.227 23.000,9.217 L23.000,12.220 C23.000,12.473 22.795,12.677 22.543,12.677 ZM5.371,12.041 C4.703,12.041 4.158,12.585 4.158,13.254 C4.158,13.923 4.703,14.467 5.371,14.467 C6.041,14.467 6.584,13.923 6.584,13.254 C6.584,12.585 6.041,12.041 5.371,12.041 ZM17.627,3.659 C17.600,3.569 17.518,3.508 17.425,3.508 L14.519,3.508 C14.417,3.508 14.329,3.582 14.312,3.683 L13.998,5.574 C13.987,5.635 14.004,5.698 14.044,5.745 C14.084,5.792 14.143,5.819 14.204,5.819 L17.982,5.819 C18.048,5.819 18.110,5.788 18.150,5.735 C18.190,5.682 18.202,5.613 18.183,5.549 L17.627,3.659 ZM18.404,12.041 C17.736,12.041 17.192,12.585 17.192,13.254 C17.192,13.923 17.736,14.467 18.404,14.467 C19.074,14.467 19.617,13.923 19.617,13.254 C19.617,12.585 19.074,12.041 18.404,12.041 ZM11.922,11.459 C11.847,11.528 11.754,11.562 11.660,11.562 C11.558,11.562 11.455,11.521 11.380,11.440 L1.285,0.645 C1.141,0.490 1.149,0.248 1.304,0.103 C1.458,-0.041 1.701,-0.034 1.845,0.121 L11.940,10.917 C12.084,11.071 12.077,11.314 11.922,11.459 Z" fill-rule="evenode" fill="#40434e"/>
            <path d="M7.586,5.138 L10.254,5.138 C10.519,5.138 10.733,5.353 10.733,5.617 L10.733,8.504 L7.586,5.138 ZM9.209,4.178 L6.688,4.178 L4.898,2.264 L4.898,1.811 C4.898,1.546 5.113,1.332 5.377,1.332 L9.209,1.332 C9.474,1.332 9.688,1.546 9.688,1.811 L9.688,3.699 C9.688,3.963 9.474,4.178 9.209,4.178 ZM3.519,9.973 L0.479,9.973 C0.214,9.973 -0.000,9.759 0.000,9.494 L0.000,7.382 C0.000,7.117 0.214,6.903 0.479,6.903 L3.519,6.903 C3.784,6.903 3.998,7.117 3.998,7.382 L3.998,9.494 C3.998,9.759 3.784,9.973 3.519,9.973 ZM3.519,6.024 L2.208,6.024 C1.944,6.024 1.729,5.810 1.729,5.545 L1.729,2.241 L3.998,4.668 L3.998,5.545 C3.998,5.810 3.784,6.024 3.519,6.024 ZM3.519,0.550 C3.784,0.550 3.998,0.764 3.998,1.029 L3.998,1.301 L3.296,0.550 L3.519,0.550 ZM5.377,9.973 C5.113,9.973 4.898,9.759 4.898,9.494 L4.898,5.631 L8.959,9.973 L5.377,9.973 Z" fill-rule="evenode" fill="#fbdb02"/>
        </g>
    </symbol>
    <symbol  id="screpca" width="19px" height="20px">
        <path fill-rule="evenodd"  fill="rgb(64, 67, 78)"
              d="M17.643,13.325 L9.758,5.721 C9.206,5.171 8.532,4.896 7.736,4.896 C6.994,4.896 6.365,5.145 5.849,5.642 C5.333,6.140 5.075,6.746 5.075,7.462 C5.075,8.229 5.360,8.880 5.930,9.412 L11.495,14.778 C11.585,14.865 11.685,14.909 11.793,14.909 C11.938,14.909 12.151,14.773 12.431,14.503 C12.711,14.233 12.852,14.027 12.852,13.888 C12.852,13.783 12.806,13.687 12.716,13.600 L7.152,8.234 C6.926,7.998 6.813,7.741 6.813,7.462 C6.813,7.208 6.899,6.999 7.070,6.833 C7.242,6.667 7.460,6.585 7.722,6.585 C8.030,6.585 8.301,6.689 8.536,6.899 L16.421,14.503 C16.991,15.052 17.276,15.685 17.276,16.400 C17.276,16.959 17.086,17.421 16.706,17.788 C16.326,18.154 15.847,18.338 15.268,18.338 C14.526,18.338 13.870,18.063 13.300,17.513 L2.768,7.343 C2.081,6.680 1.737,5.891 1.737,4.974 C1.737,4.049 2.067,3.260 2.728,2.605 C3.388,1.951 4.198,1.624 5.157,1.624 C6.080,1.624 6.899,1.960 7.613,2.631 L15.838,10.576 C15.928,10.663 16.032,10.707 16.150,10.707 C16.295,10.707 16.505,10.574 16.781,10.308 C17.057,10.041 17.195,9.839 17.195,9.699 C17.195,9.594 17.149,9.498 17.059,9.411 L8.848,1.480 C7.808,0.494 6.573,0.001 5.143,0.001 C3.705,0.001 2.488,0.485 1.493,1.454 C0.497,2.422 -0.000,3.600 -0.000,4.987 C-0.000,6.348 0.511,7.531 1.533,8.534 L12.078,18.691 C12.983,19.563 14.046,19.999 15.268,19.999 C16.326,19.999 17.213,19.655 17.928,18.965 C18.642,18.276 19.000,17.421 19.000,16.400 C19.000,15.205 18.547,14.179 17.643,13.325 Z"/>
    </symbol>
    <symbol id="pluss" width="14px" height="14px" viewBox="0 0 14 14">
        <path fill-rule="evenodd"  fill="rgb(64, 67, 78)" d="M11.950,2.050 C9.227,-0.672 4.773,-0.672 2.050,2.050 C-0.672,4.773 -0.672,9.227 2.050,11.950 C4.773,14.672 9.227,14.672 11.950,11.950 C14.672,9.227 14.672,4.773 11.950,2.050 ZM7.693,11.257 L6.307,11.257 L6.307,7.693 L2.743,7.693 L2.743,6.307 L6.307,6.307 L6.307,2.743 L7.693,2.743 L7.693,6.307 L11.257,6.307 L11.257,7.693 L7.693,7.693 L7.693,11.257 Z"/>
    </symbol>
    <symbol id="avapop01" width="42px" height="36px">
        <path fill-rule="evenodd"  fill="rgb(45, 48, 59)"
              d="M0.000,36.000 L0.000,0.000 L14.702,0.000 L14.905,0.283 L14.906,0.284 L18.125,4.755 L41.000,4.755 L41.000,36.000 L0.000,36.000 ZM39.633,6.113 L19.105,6.113 L21.550,9.509 L39.633,9.509 L39.633,6.113 ZM39.633,10.868 L21.183,10.868 L21.183,10.847 C20.971,10.846 20.761,10.748 20.628,10.563 L17.423,6.113 L17.415,6.113 L13.998,1.358 L1.367,1.358 L1.367,34.642 L39.633,34.642 L39.633,10.868 ZM19.817,26.889 L19.817,14.943 L21.183,14.943 L21.183,26.889 L25.484,22.614 L26.450,23.575 L20.500,29.489 L14.550,23.575 L15.516,22.614 L19.817,26.889 Z"/>
    </symbol>
    <symbol id="avapop02" width="46px" height="46px" viewBox="0 0 260 260">
            <g id="Page-1" stroke="none" stroke-width="1" fill="none" fill-rule="evenodd">
                <path d="M130,2 C115.856,2 104.4,13.456 104.4,27.6 L104.4,117.2 C104.4,131.328 115.856,142.8 130,142.8 C144.144,142.8 155.6,131.328 155.6,117.2 L155.6,57.584 C185.424,68.144 206.8,96.56 206.8,130 C206.8,172.4 172.4,206.8 130,206.8 C87.6,206.8 53.2,172.4 53.2,130 C53.2,108.784 61.792,89.584 75.696,75.696 C85.696,65.696 85.696,49.488 75.696,39.488 C65.696,29.488 49.488,29.488 39.488,39.488 C16.336,62.64 2,94.64 2,130 C2,200.688 59.312,258 130,258 C200.688,258 258,200.688 258,130 C258,59.312 200.688,2 130,2" id="gravatar" stroke="#393C47" stroke-width="3"></path>
            </g>
    </symbol>
    <symbol id="avapop03" width="40px" height="40px">
        <path fill-rule="evenodd"  fill="rgb(45, 48, 59)"
              d="M35.636,-0.000 C33.230,-0.000 31.273,1.957 31.273,4.364 C31.273,5.116 31.464,5.825 31.801,6.444 L24.652,13.592 C23.667,12.825 22.433,12.364 21.091,12.364 C19.748,12.364 18.515,12.825 17.529,13.591 L11.951,8.014 C12.207,7.581 12.364,7.084 12.364,6.546 C12.364,4.941 11.059,3.636 9.455,3.636 C7.850,3.636 6.545,4.941 6.545,6.546 C6.545,8.150 7.850,9.454 9.455,9.454 C9.993,9.454 10.490,9.298 10.923,9.042 L16.500,14.620 C15.734,15.606 15.273,16.839 15.273,18.182 C15.273,19.524 15.734,20.758 16.500,21.743 L7.290,30.954 C6.515,30.251 5.490,29.818 4.364,29.818 C1.957,29.818 -0.000,31.775 -0.000,34.182 C-0.000,36.588 1.957,38.545 4.364,38.545 C6.770,38.545 8.727,36.588 8.727,34.182 C8.727,33.429 8.536,32.721 8.199,32.102 L17.529,22.772 C18.334,23.397 19.304,23.816 20.364,23.949 L20.364,31.338 C18.304,31.686 16.728,33.478 16.728,35.636 C16.728,38.043 18.685,40.000 21.092,40.000 C23.498,40.000 25.455,38.043 25.455,35.636 C25.455,33.479 23.879,31.687 21.819,31.338 L21.819,23.949 C22.879,23.816 23.849,23.397 24.654,22.772 L30.231,28.349 C29.975,28.783 29.818,29.280 29.818,29.818 C29.818,31.423 31.123,32.727 32.727,32.727 C34.332,32.727 35.636,31.423 35.636,29.818 C35.636,28.214 34.332,26.909 32.727,26.909 C32.189,26.909 31.692,27.065 31.259,27.321 L25.681,21.744 C26.448,20.758 26.909,19.524 26.909,18.182 C26.909,16.839 26.448,15.606 25.681,14.620 L32.711,7.591 C33.485,8.295 34.510,8.727 35.636,8.727 C38.043,8.727 40.000,6.770 40.000,4.364 C40.000,1.957 38.043,-0.000 35.636,-0.000 ZM8.000,6.546 C8.000,5.743 8.652,5.091 9.455,5.091 C10.257,5.091 10.909,5.743 10.909,6.546 C10.909,7.348 10.257,8.000 9.455,8.000 C8.652,8.000 8.000,7.348 8.000,6.546 ZM4.364,37.091 C2.759,37.091 1.455,35.786 1.455,34.182 C1.455,32.577 2.759,31.273 4.364,31.273 C5.968,31.273 7.273,32.577 7.273,34.182 C7.273,35.786 5.968,37.091 4.364,37.091 ZM24.000,35.636 C24.000,37.241 22.695,38.545 21.091,38.545 C19.487,38.545 18.182,37.241 18.182,35.636 C18.182,34.032 19.487,32.727 21.091,32.727 C22.695,32.727 24.000,34.032 24.000,35.636 ZM21.091,22.545 C18.684,22.545 16.727,20.588 16.727,18.182 C16.727,15.775 18.684,13.818 21.091,13.818 C23.497,13.818 25.455,15.775 25.455,18.182 C25.455,20.588 23.497,22.545 21.091,22.545 ZM34.182,29.818 C34.182,30.620 33.529,31.273 32.727,31.273 C31.925,31.273 31.273,30.620 31.273,29.818 C31.273,29.016 31.925,28.364 32.727,28.364 C33.529,28.364 34.182,29.016 34.182,29.818 ZM35.636,7.273 C34.032,7.273 32.727,5.968 32.727,4.364 C32.727,2.759 34.032,1.455 35.636,1.455 C37.241,1.455 38.545,2.759 38.545,4.364 C38.545,5.968 37.241,7.273 35.636,7.273 Z"/>
    </symbol>
    <symbol id="avavelox" width="64px" height="64px" viewBox="0 0 64 64" >
        <defs>
            <path d="M2.62340292,0.2964 L3.845015,3.4284 L5.0774378,0.2964 L7.59633703,0.2964 L4.78554819,7.5 L2.91529253,7.5 L0.104503688,0.2964 L2.62340292,0.2964 L2.62340292,0.2964 Z M8.05879588,0.2964 L12.3074113,0.2964 L12.3074113,2.1864 L10.3614806,2.1864 L10.3614806,2.9856 L12.2749791,2.9856 L12.2749791,4.7784 L10.3614806,4.7784 L10.3614806,5.61 L12.3830864,5.61 L12.3830864,7.5 L8.05879588,7.5 L8.05879588,0.2964 L8.05879588,0.2964 Z M12.881581,0.2964 L15.2815623,0.2964 L15.2815623,5.61 L17.2707359,5.61 L17.2707359,7.5 L12.881581,7.5 L12.881581,0.2964 L12.881581,0.2964 Z M17.3127776,3.9036 C17.3127776,3.3852 17.4118759,2.8956 17.6100726,2.4348 C17.8082692,1.974 18.0785374,1.5726 18.4208771,1.2306 C18.7632167,0.8886 19.1650154,0.6186 19.626273,0.4206 C20.0875307,0.2226 20.577617,0.1236 21.0965318,0.1236 C21.6154467,0.1236 22.1055329,0.2226 22.5667906,0.4206 C23.0280483,0.6186 23.4298469,0.8886 23.7721866,1.2306 C24.1145263,1.5726 24.3847944,1.974 24.5829911,2.4348 C24.7811877,2.8956 24.880286,3.3852 24.880286,3.9036 C24.880286,4.422 24.7811877,4.9116 24.5829911,5.3724 C24.3847944,5.8332 24.1145263,6.2346 23.7721866,6.5766 C23.4298469,6.9186 23.0280483,7.1886 22.5667906,7.3866 C22.1055329,7.5846 21.6154467,7.6836 21.0965318,7.6836 C20.577617,7.6836 20.0875307,7.5846 19.626273,7.3866 C19.1650154,7.1886 18.7632167,6.9186 18.4208771,6.5766 C18.0785374,6.2346 17.8082692,5.8332 17.6100726,5.3724 C17.4118759,4.9116 17.3127776,4.422 17.3127776,3.9036 L17.3127776,3.9036 Z M19.5830301,3.9036 C19.5830301,4.1124 19.6226695,4.3086 19.7019481,4.4922 C19.7812268,4.6758 19.889334,4.836 20.0262699,4.9728 C20.1632058,5.1096 20.3235649,5.2176 20.5073472,5.2968 C20.6911296,5.376 20.8875244,5.4156 21.0965318,5.4156 C21.3055392,5.4156 21.5019341,5.376 21.6857164,5.2968 C21.8694988,5.2176 22.0298579,5.1096 22.1667937,4.9728 C22.3037296,4.836 22.4118369,4.6758 22.4911155,4.4922 C22.5703942,4.3086 22.6100335,4.1124 22.6100335,3.9036 C22.6100335,3.6948 22.5703942,3.4986 22.4911155,3.315 C22.4118369,3.1314 22.3037296,2.9712 22.1667937,2.8344 C22.0298579,2.6976 21.8694988,2.5896 21.6857164,2.5104 C21.5019341,2.4312 21.3055392,2.3916 21.0965318,2.3916 C20.8875244,2.3916 20.6911296,2.4312 20.5073472,2.5104 C20.3235649,2.5896 20.1632058,2.6976 20.0262699,2.8344 C19.889334,2.9712 19.7812268,3.1314 19.7019481,3.315 C19.6226695,3.4986 19.5830301,3.6948 19.5830301,3.9036 L19.5830301,3.9036 Z M25.9733706,3.774 L24.059872,0.2964 L26.5787713,0.2964 L27.2274148,1.4736 L27.8760584,0.2964 L30.4057684,0.2964 L28.4922698,3.774 L30.5463078,7.5 L28.0274086,7.5 L27.2274148,6.0636 L26.4382318,7.5 L23.9193326,7.5 L25.9733706,3.774 L25.9733706,3.774 Z" id="path-1"></path>
            <path d="M0.0888881942,0.2964 L2.91048776,0.2964 C3.27084531,0.2964 3.60057246,0.3378 3.89966922,0.4206 C4.19876598,0.5034 4.45461984,0.6258 4.66723079,0.7878 C4.87984174,0.9498 5.04560621,1.1514 5.1645242,1.3926 C5.28344219,1.6338 5.34290119,1.9164 5.34290119,2.2404 C5.34290119,2.4708 5.31407258,2.667 5.25641538,2.829 C5.19875817,2.991 5.13749739,3.126 5.07263303,3.234 C4.99335437,3.3636 4.90326498,3.4716 4.80236487,3.558 C4.96092219,3.6588 5.10506521,3.7884 5.23479392,3.9468 C5.34290119,4.0836 5.44199951,4.2564 5.5320889,4.4652 C5.62217828,4.674 5.66722298,4.9296 5.66722298,5.232 C5.66722298,5.5776 5.60596219,5.8908 5.48344063,6.1716 C5.36091906,6.4524 5.18614566,6.6918 4.9591204,6.8898 C4.73209515,7.0878 4.45461984,7.239 4.12669448,7.3434 C3.79876911,7.4478 3.4330062,7.5 3.02940575,7.5 L0.0888881942,7.5 L0.0888881942,0.2964 L0.0888881942,0.2964 Z M2.57535525,5.8044 C3.12309872,5.8044 3.39697045,5.5956 3.39697045,5.178 C3.39697045,4.7604 3.12309872,4.5516 2.57535525,4.5516 L2.31589782,4.5516 L2.31589782,5.8044 L2.57535525,5.8044 L2.57535525,5.8044 Z M3.11589156,2.4888 C3.11589156,2.1576 2.93571279,1.992 2.57535525,1.992 L2.31589782,1.992 L2.31589782,2.9856 L2.57535525,2.9856 C2.93571279,2.9856 3.11589156,2.82 3.11589156,2.4888 L3.11589156,2.4888 Z M6.14169374,3.9036 C6.14169374,3.3852 6.24079207,2.8956 6.43898872,2.4348 C6.63718537,1.974 6.90745352,1.5726 7.24979319,1.2306 C7.59213286,0.8886 7.99393152,0.6186 8.45518918,0.4206 C8.91644683,0.2226 9.40653309,0.1236 9.92544796,0.1236 C10.4443628,0.1236 10.9344491,0.2226 11.3957067,0.4206 C11.8569644,0.6186 12.2587631,0.8886 12.6011027,1.2306 C12.9434424,1.5726 13.2137105,1.974 13.4119072,2.4348 C13.6101038,2.8956 13.7092022,3.3852 13.7092022,3.9036 C13.7092022,4.422 13.6101038,4.9116 13.4119072,5.3724 C13.2137105,5.8332 12.9434424,6.2346 12.6011027,6.5766 C12.2587631,6.9186 11.8569644,7.1886 11.3957067,7.3866 C10.9344491,7.5846 10.4443628,7.6836 9.92544796,7.6836 C9.40653309,7.6836 8.91644683,7.5846 8.45518918,7.3866 C7.99393152,7.1886 7.59213286,6.9186 7.24979319,6.5766 C6.90745352,6.2346 6.63718537,5.8332 6.43898872,5.3724 C6.24079207,4.9116 6.14169374,4.422 6.14169374,3.9036 L6.14169374,3.9036 Z M8.41194627,3.9036 C8.41194627,4.1124 8.4515856,4.3086 8.53086426,4.4922 C8.61014292,4.6758 8.71825018,4.836 8.85518605,4.9728 C8.99212192,5.1096 9.15248102,5.2176 9.33626337,5.2968 C9.52004572,5.376 9.71644058,5.4156 9.92544796,5.4156 C10.1344553,5.4156 10.3308502,5.376 10.5146325,5.2968 C10.6984149,5.2176 10.858774,5.1096 10.9957099,4.9728 C11.1326457,4.836 11.240753,4.6758 11.3200317,4.4922 C11.3993103,4.3086 11.4389496,4.1124 11.4389496,3.9036 C11.4389496,3.6948 11.3993103,3.4986 11.3200317,3.315 C11.240753,3.1314 11.1326457,2.9712 10.9957099,2.8344 C10.858774,2.6976 10.6984149,2.5896 10.5146325,2.5104 C10.3308502,2.4312 10.1344553,2.3916 9.92544796,2.3916 C9.71644058,2.3916 9.52004572,2.4312 9.33626337,2.5104 C9.15248102,2.5896 8.99212192,2.6976 8.85518605,2.8344 C8.71825018,2.9712 8.61014292,3.1314 8.53086426,3.315 C8.4515856,3.4986 8.41194627,3.6948 8.41194627,3.9036 L8.41194627,3.9036 Z M15.3127932,3.774 L13.3992947,0.2964 L15.9181939,0.2964 L16.5668375,1.4736 L17.2154811,0.2964 L19.745191,0.2964 L17.8316925,3.774 L19.8857305,7.5 L17.3668312,7.5 L16.5668375,6.0636 L15.7776545,7.5 L13.2587552,7.5 L15.3127932,3.774 L15.3127932,3.774 Z" id="path-3"></path>
        </defs>
        <g id="Page-1" stroke="none" stroke-width="1" fill="none" fill-rule="evenodd">
            <g id="ava">
                <circle id="Oval" fill="#40434E" cx="32" cy="32" r="32"></circle>
                <polygon id="Fill-1" fill="#FFDC00" points="36.9306892 36.991 58.1016949 36.991 58.1016949 28 36.9306892 28"></polygon>
                <g id="Group-5" transform="translate(6.000000, 28.600000)">
                    <mask id="mask-2" fill="white">
                        <use xlink:href="#path-1"></use>
                    </mask>
                    <g id="Clip-4"></g>
                    <polygon id="Fill-3" fill="#FFFFFF" mask="url(#mask-2)" points="0.090089386 7.689 30.5583197 7.689 30.5583197 0.111 0.090089386 0.111"></polygon>
                </g>
                <g id="Group-8" transform="translate(37.681434, 28.600000)">
                    <mask id="mask-4" fill="white">
                        <use xlink:href="#path-3"></use>
                    </mask>
                    <g id="Clip-7"></g>
                    <polygon id="Fill-6" fill="#3F424E" mask="url(#mask-4)" points="0.084083427 7.689 19.8857305 7.689 19.8857305 0.111 0.084083427 0.111"></polygon>
                </g>
            </g>
        </g>
    </symbol>
    <symbol id="ic-cont" width="20px" height="15px">
        <path fill-rule="evenodd"  fill="rgb(64, 67, 78)"
              d="M17.554,15.000 L2.446,15.000 C1.097,15.000 0.000,13.919 0.000,12.590 L0.000,2.410 C0.000,1.081 1.097,-0.000 2.446,-0.000 L17.558,-0.000 C18.907,-0.000 20.004,1.085 20.000,2.415 L20.000,12.590 C20.000,13.919 18.903,15.000 17.554,15.000 ZM18.882,12.590 L18.882,2.415 C18.882,1.692 18.287,1.105 17.554,1.105 L2.446,1.105 C1.713,1.105 1.117,1.692 1.117,2.415 L1.117,12.590 C1.117,13.312 1.713,13.899 2.446,13.899 L17.558,13.899 C18.291,13.899 18.887,13.312 18.887,12.590 L18.882,12.590 ZM17.546,12.749 C17.434,12.863 17.289,12.920 17.140,12.920 C17.004,12.920 16.863,12.871 16.755,12.769 L11.781,8.112 L10.387,9.343 C10.283,9.437 10.147,9.486 10.014,9.486 C9.882,9.486 9.750,9.441 9.642,9.347 L8.285,8.152 L3.282,12.765 C3.174,12.863 3.037,12.912 2.901,12.912 C2.752,12.912 2.603,12.851 2.491,12.737 C2.280,12.512 2.293,12.166 2.516,11.958 L7.445,7.410 L2.495,3.051 C2.264,2.847 2.243,2.500 2.450,2.272 C2.657,2.043 3.008,2.023 3.240,2.227 L8.595,6.949 C8.628,6.974 8.657,6.998 8.686,7.027 C8.686,7.031 8.690,7.035 8.694,7.039 L10.010,8.197 L16.755,2.231 C16.987,2.027 17.339,2.047 17.546,2.272 C17.753,2.500 17.732,2.847 17.504,3.051 L12.613,7.374 L17.525,11.970 C17.749,12.178 17.757,12.528 17.546,12.749 Z"/>
    </symbol>
    <symbol  id="calendar" width="17px" height="17px">
        <path fill-rule="evenodd"  fill="rgb(64, 67, 78)" d="M15.790,16.999 L1.210,16.999 L-0.005,16.999 L-0.005,2.011 L2.426,2.041 L2.426,2.640 C2.426,3.630 3.243,4.435 4.249,4.435 C5.254,4.435 6.071,3.629 6.071,2.640 L6.071,2.041 L10.934,2.041 L10.934,2.640 C10.934,3.629 11.748,4.435 12.755,4.435 C13.761,4.435 14.577,3.629 14.577,2.640 L14.577,2.041 L16.987,2.041 L17.005,16.995 L15.790,16.999 ZM15.790,6.230 L1.210,6.230 L1.210,15.805 L15.790,15.805 L15.790,6.230 ZM4.947,11.943 L3.034,11.943 L3.034,10.280 L4.947,10.280 L4.947,11.943 ZM4.947,14.762 L3.034,14.762 L3.034,13.099 L4.947,13.099 L4.947,14.762 ZM7.990,9.179 L6.075,9.179 L6.075,7.515 L7.990,7.515 L7.990,9.179 ZM7.990,11.943 L6.075,11.943 L6.075,10.280 L7.990,10.280 L7.990,11.943 ZM7.990,14.762 L6.075,14.762 L6.075,13.099 L7.990,13.099 L7.990,14.762 ZM11.086,9.179 L9.170,9.179 L9.170,7.515 L11.086,7.515 L11.086,9.179 ZM11.086,11.943 L9.170,11.943 L9.170,10.280 L11.086,10.280 L11.086,11.943 ZM11.086,14.762 L9.170,14.762 L9.170,13.099 L11.086,13.099 L11.086,14.762 ZM13.957,9.179 L12.042,9.179 L12.042,7.515 L13.957,7.515 L13.957,9.179 ZM13.957,11.943 L12.042,11.943 L12.042,10.280 L13.957,10.280 L13.957,11.943 ZM13.957,14.762 L12.042,14.762 L12.042,13.099 L13.957,13.099 L13.957,14.762 ZM12.735,3.588 C12.073,3.588 11.538,3.064 11.538,2.412 L11.538,1.180 C11.538,0.526 12.073,0.001 12.735,0.001 C13.397,0.001 13.931,0.527 13.931,1.180 L13.931,2.412 C13.931,3.064 13.396,3.588 12.735,3.588 ZM4.230,3.588 C3.568,3.588 3.034,3.064 3.034,2.412 L3.034,1.180 C3.034,0.526 3.568,0.001 4.230,0.001 C4.891,0.001 5.427,0.526 5.427,1.180 L5.427,2.412 C5.427,3.064 4.891,3.588 4.230,3.588 Z"/>
    </symbol>
    <symbol id="cashtab" width="16px" height="14px">
        <path fill-rule="evenodd"  fill="rgb(64, 67, 78)"
              d="M15.707,9.551 C15.617,9.637 15.511,9.704 15.393,9.746 C15.301,9.777 15.204,9.796 15.102,9.796 L15.078,9.796 L9.746,9.796 C9.250,9.796 8.847,9.377 8.847,8.860 L8.847,6.823 L8.847,6.533 L8.847,6.243 L8.847,5.777 C8.847,5.260 9.250,4.841 9.746,4.841 L13.777,4.841 L14.782,4.841 L15.060,4.841 L15.078,4.841 L15.102,4.841 C15.204,4.841 15.301,4.859 15.393,4.891 C15.511,4.935 15.617,5.000 15.707,5.086 C15.887,5.257 16.000,5.503 16.000,5.777 L16.000,8.860 C16.000,9.133 15.887,9.381 15.707,9.551 ZM14.608,4.191 L14.329,4.191 L9.744,4.191 C9.683,4.191 9.622,4.195 9.562,4.202 C9.207,4.246 8.888,4.418 8.651,4.673 C8.384,4.959 8.218,5.350 8.218,5.781 L8.218,6.424 L8.218,6.715 L8.218,7.005 L8.218,8.862 C8.218,9.740 8.903,10.453 9.746,10.453 L15.076,10.453 L15.076,13.064 C15.076,13.581 14.674,14.000 14.178,14.000 L0.898,14.000 C0.402,14.000 0.000,13.581 0.000,13.064 L0.000,2.816 L0.000,1.749 L0.000,1.636 C0.000,1.552 0.013,1.470 0.032,1.391 C0.065,1.266 0.122,1.152 0.198,1.053 C0.363,0.837 0.616,0.701 0.900,0.701 L1.436,0.701 L1.596,0.701 L2.458,0.701 L3.482,0.701 L11.293,0.701 L13.418,0.701 L13.697,0.701 L13.975,0.701 L14.180,0.701 C14.676,0.701 15.078,1.120 15.076,1.636 L15.076,4.191 L14.886,4.191 L14.608,4.191 Z"/>
    </symbol>
    <symbol id="mobileuser" width="12px" height="16px" viewBox="0 0 12 16">
        <path fill-rule="evenodd"  fill="rgb(255, 255, 255)"
              d="M11.295,15.996 L0.716,15.996 C0.324,15.996 0.007,15.689 0.007,15.311 L0.007,13.116 C0.007,11.330 0.840,9.670 2.292,8.561 C2.889,8.104 3.774,8.195 4.305,8.766 C4.748,9.242 5.352,9.504 6.006,9.504 C6.659,9.504 7.263,9.242 7.706,8.766 C8.238,8.195 9.122,8.104 9.719,8.561 C11.171,9.670 12.004,11.330 12.004,13.116 L12.004,15.311 C12.004,15.689 11.687,15.996 11.295,15.996 ZM10.587,13.116 C10.587,11.753 9.951,10.485 8.841,9.637 L8.841,9.637 C8.835,9.637 8.795,9.645 8.758,9.684 C8.054,10.441 7.050,10.875 6.006,10.875 C4.961,10.875 3.958,10.441 3.253,9.684 C3.217,9.645 3.176,9.637 3.166,9.638 C2.061,10.485 1.424,11.753 1.424,13.116 L1.424,14.625 L10.587,14.625 L10.587,13.116 ZM6.006,7.217 C3.948,7.217 2.275,5.597 2.275,3.605 C2.275,1.613 3.948,-0.007 6.006,-0.007 C8.063,-0.007 9.737,1.613 9.737,3.605 C9.737,5.597 8.063,7.217 6.006,7.217 ZM6.006,1.365 C4.730,1.365 3.691,2.370 3.691,3.605 C3.691,4.841 4.730,5.846 6.006,5.846 C7.282,5.846 8.320,4.841 8.320,3.605 C8.320,2.370 7.282,1.365 6.006,1.365 Z"/>
    </symbol>
    <symbol id="mobilesearch" width="18px" height="18px">
        <path fill-rule="evenodd"  fill="rgb(255, 255, 255)"
              d="M17.997,16.574 L12.685,11.261 C13.566,10.084 14.096,8.629 14.096,7.049 C14.096,3.163 10.935,0.002 7.049,0.002 C3.163,0.002 0.002,3.163 0.002,7.049 C0.002,10.935 3.163,14.096 7.049,14.096 C8.629,14.096 10.084,13.567 11.261,12.685 L16.574,17.997 L17.997,16.574 ZM0.673,7.049 C0.673,3.533 3.533,0.673 7.049,0.673 C10.565,0.673 13.424,3.533 13.424,7.049 C13.424,10.565 10.565,13.424 7.049,13.424 C3.533,13.424 0.673,10.565 0.673,7.049 ZM11.937,12.114 C11.997,12.056 12.055,11.997 12.113,11.937 C12.162,11.887 12.215,11.840 12.262,11.788 L17.048,16.574 L16.573,17.049 L11.788,12.262 C11.840,12.215 11.886,12.162 11.937,12.114 Z"/>
    </symbol>
    <symbol id="tracknumber" width="16px" height="19px">
        <path fill-rule="evenodd"  fill="rgb(64, 67, 78)"
              d="M15.912,14.330 L7.914,19.001 L0.004,14.172 L0.093,4.671 L8.091,0.000 L16.001,4.830 L15.912,14.330 ZM14.494,5.879 L7.894,2.033 L1.759,5.541 L1.552,13.213 L8.077,17.069 L14.511,13.253 L14.494,5.879 ZM7.841,15.518 C7.771,15.518 7.701,15.494 7.643,15.445 C5.317,13.482 4.257,11.651 3.775,10.458 C3.644,10.161 3.544,9.848 3.476,9.531 C3.457,9.443 3.448,9.391 3.445,9.374 C3.392,9.084 3.366,8.786 3.366,8.491 C3.366,5.900 5.373,3.790 7.839,3.790 C10.305,3.790 12.312,5.900 12.317,8.491 C12.317,8.786 12.289,9.084 12.237,9.374 C12.235,9.391 12.226,9.443 12.207,9.531 C12.139,9.851 12.039,10.161 11.908,10.458 C11.426,11.651 10.363,13.482 8.040,15.445 C7.982,15.494 7.912,15.518 7.841,15.518 ZM10.219,8.578 C10.219,7.310 9.218,6.281 7.984,6.281 C6.750,6.281 5.750,7.310 5.750,8.578 C5.750,9.847 6.750,10.875 7.984,10.875 C9.218,10.875 10.219,9.847 10.219,8.578 Z"/>
    </symbol>
    <symbol id="status01" width="17px" height="16px">
        <path fill-rule="evenodd"  fill="rgb(64, 67, 78)"  d="M17.000,8.000 C17.000,7.326 16.405,6.737 15.725,6.737 L11.050,6.737 L6.800,-0.000 L5.100,-0.000 L7.225,6.737 L2.550,6.737 L1.275,5.053 L0.000,5.053 L0.850,8.000 L0.000,10.947 L1.275,10.947 L2.550,9.263 L7.225,9.263 L5.100,16.000 L6.800,16.000 L11.050,9.263 L15.725,9.263 C16.405,9.263 17.000,8.674 17.000,8.000 Z"/>
    </symbol>
    <symbol id="status02"  width="14px" height="16px"> <path fill-rule="evenodd"  fill="rgb(64, 67, 78)" d="M10.390,8.000 C12.543,6.635 14.000,4.012 14.000,1.000 C14.000,0.661 13.981,0.328 13.946,-0.000 L0.054,-0.000 C0.019,0.328 -0.000,0.661 -0.000,1.000 C-0.000,4.012 1.457,6.635 3.609,8.000 C1.457,9.365 -0.000,11.988 -0.000,15.000 C-0.000,15.339 0.019,15.672 0.054,16.000 L13.946,16.000 C13.981,15.672 14.000,15.339 14.000,15.000 C14.000,11.988 12.543,9.365 10.390,8.000 ZM1.500,15.000 C1.500,12.080 2.753,9.603 5.000,8.786 L5.000,7.214 L5.000,7.214 C2.753,6.397 1.500,3.920 1.500,1.000 L1.500,1.000 L12.500,1.000 L12.500,1.000 C12.500,3.920 11.247,6.397 9.000,7.214 L9.000,8.786 C11.247,9.603 12.500,12.080 12.500,15.000 L1.500,15.000 ZM8.682,10.462 C7.562,9.827 7.500,9.004 7.500,8.504 L7.500,7.500 C7.500,7.000 7.559,6.173 8.684,5.536 C9.285,5.187 9.806,4.656 10.200,4.000 L3.800,4.000 C4.195,4.657 4.716,5.188 5.318,5.538 C6.438,6.173 6.500,6.996 6.500,7.496 L6.500,8.500 C6.500,9.000 6.441,9.827 5.317,10.464 C4.182,11.123 3.336,12.427 3.081,14.000 L10.919,14.000 C10.664,12.426 9.817,11.121 8.682,10.462 Z"/></symbol>
    <symbol id="timeline" width="17px" height="16px">
        <path fill-rule="evenodd"  fill="rgb(255, 255, 255)"
              d="M17.000,8.000 C17.000,7.326 16.405,6.737 15.725,6.737 L11.050,6.737 L6.800,0.000 L5.100,0.000 L7.225,6.737 L2.550,6.737 L1.275,5.053 L-0.000,5.053 L0.850,8.000 L-0.000,10.947 L1.275,10.947 L2.550,9.263 L7.225,9.263 L5.100,16.000 L6.800,16.000 L11.050,9.263 L15.725,9.263 C16.405,9.263 17.000,8.674 17.000,8.000 Z"/>
    </symbol>
    <symbol id="taburl" width="14px" height="14px">
        <path fill-rule="evenodd"  fill="rgb(64, 67, 78)"
              d="M0.719,8.544 L2.504,6.760 C2.985,6.279 3.568,6.039 4.254,6.039 C4.952,6.039 5.547,6.291 6.039,6.794 L6.794,6.039 C6.291,5.547 6.039,4.949 6.039,4.246 C6.039,3.559 6.276,2.979 6.751,2.504 L8.519,0.728 C8.994,0.242 9.577,-0.002 10.269,-0.002 C10.956,-0.002 11.536,0.236 12.011,0.711 L13.272,1.963 C13.758,2.438 14.001,3.019 14.001,3.705 C14.001,4.392 13.761,4.975 13.281,5.456 L11.496,7.240 C11.015,7.721 10.432,7.961 9.746,7.961 C9.048,7.961 8.453,7.709 7.961,7.206 L7.206,7.961 C7.709,8.453 7.961,9.051 7.961,9.754 C7.961,10.441 7.724,11.021 7.249,11.496 L5.481,13.272 C5.006,13.758 4.423,14.001 3.731,14.001 C3.045,14.001 2.464,13.764 1.989,13.289 L0.728,12.036 C0.242,11.562 -0.001,10.981 -0.001,10.295 C-0.001,9.608 0.239,9.025 0.719,8.544 ZM7.961,4.872 C7.978,4.855 8.031,4.801 8.120,4.709 C8.208,4.618 8.270,4.556 8.304,4.525 C8.338,4.493 8.393,4.450 8.467,4.396 C8.542,4.342 8.614,4.305 8.686,4.284 C8.757,4.265 8.836,4.255 8.922,4.255 C9.151,4.255 9.345,4.335 9.505,4.495 C9.666,4.655 9.746,4.849 9.746,5.078 C9.746,5.164 9.736,5.243 9.716,5.314 C9.696,5.386 9.658,5.459 9.604,5.533 C9.550,5.607 9.507,5.662 9.475,5.696 C9.444,5.730 9.382,5.792 9.291,5.880 C9.199,5.969 9.145,6.022 9.128,6.039 C9.300,6.216 9.505,6.305 9.746,6.305 C9.980,6.305 10.175,6.228 10.329,6.073 L12.114,4.289 C12.274,4.129 12.354,3.934 12.354,3.705 C12.354,3.482 12.274,3.291 12.114,3.130 L10.852,1.878 C10.686,1.723 10.492,1.646 10.269,1.646 C10.040,1.646 9.846,1.726 9.686,1.886 L7.918,3.662 C7.758,3.823 7.678,4.017 7.678,4.246 C7.678,4.486 7.772,4.695 7.961,4.872 ZM1.886,10.869 L3.147,12.122 C3.307,12.271 3.502,12.345 3.731,12.345 C3.965,12.345 4.160,12.268 4.314,12.114 L6.082,10.337 C6.242,10.177 6.322,9.983 6.322,9.754 C6.322,9.514 6.227,9.305 6.039,9.128 C6.021,9.145 5.968,9.199 5.880,9.291 C5.791,9.382 5.730,9.444 5.695,9.475 C5.661,9.507 5.607,9.550 5.532,9.604 C5.458,9.659 5.385,9.696 5.314,9.716 C5.242,9.736 5.163,9.746 5.078,9.746 C4.849,9.746 4.654,9.666 4.494,9.506 C4.334,9.345 4.254,9.151 4.254,8.922 C4.254,8.836 4.264,8.758 4.284,8.686 C4.304,8.615 4.341,8.542 4.396,8.467 C4.450,8.393 4.493,8.339 4.524,8.304 C4.556,8.270 4.617,8.209 4.709,8.120 C4.800,8.031 4.855,7.978 4.872,7.961 C4.700,7.778 4.494,7.687 4.254,7.687 C4.025,7.687 3.831,7.767 3.671,7.927 L1.886,9.711 C1.726,9.872 1.646,10.066 1.646,10.295 C1.646,10.518 1.726,10.710 1.886,10.869 Z"/>
    </symbol>
    <symbol id="informer" width="12px" height="12px">
        <path fill-rule="evenodd"  fill="rgb(64, 67, 78)"
              d="M6.006,0.006 C2.693,0.006 0.006,2.693 0.006,6.006 C0.006,9.320 2.693,12.007 6.006,12.007 C9.320,12.007 12.007,9.320 12.007,6.006 C12.007,2.693 9.320,0.006 6.006,0.006 ZM7.256,9.306 C6.947,9.427 6.701,9.520 6.516,9.584 C6.333,9.648 6.119,9.680 5.875,9.680 C5.501,9.680 5.210,9.588 5.003,9.407 C4.796,9.224 4.693,8.993 4.693,8.712 C4.693,8.603 4.700,8.491 4.716,8.377 C4.731,8.264 4.756,8.136 4.790,7.992 L5.177,6.626 C5.211,6.495 5.240,6.370 5.264,6.254 C5.287,6.137 5.298,6.030 5.298,5.933 C5.298,5.759 5.262,5.637 5.191,5.569 C5.118,5.500 4.981,5.466 4.778,5.466 C4.678,5.466 4.575,5.481 4.470,5.512 C4.366,5.544 4.276,5.573 4.201,5.602 L4.304,5.181 C4.557,5.078 4.799,4.989 5.030,4.916 C5.261,4.842 5.480,4.805 5.685,4.805 C6.057,4.805 6.343,4.896 6.545,5.075 C6.746,5.254 6.847,5.487 6.847,5.774 C6.847,5.833 6.840,5.938 6.826,6.087 C6.812,6.237 6.786,6.374 6.748,6.500 L6.364,7.861 C6.333,7.970 6.304,8.095 6.279,8.234 C6.254,8.374 6.242,8.481 6.242,8.553 C6.242,8.733 6.282,8.857 6.364,8.923 C6.444,8.988 6.585,9.022 6.783,9.022 C6.877,9.022 6.983,9.005 7.102,8.971 C7.220,8.939 7.305,8.910 7.359,8.885 L7.256,9.306 ZM7.188,3.780 C7.008,3.946 6.792,4.030 6.540,4.030 C6.288,4.030 6.070,3.946 5.890,3.780 C5.710,3.613 5.619,3.411 5.619,3.174 C5.619,2.938 5.710,2.735 5.890,2.566 C6.070,2.398 6.288,2.314 6.540,2.314 C6.792,2.314 7.008,2.398 7.188,2.566 C7.367,2.735 7.457,2.938 7.457,3.174 C7.457,3.411 7.367,3.613 7.188,3.780 Z"/>
    </symbol>
    <symbol  id="informer02" width="15px" height="15px">
        <path fill-rule="evenodd"  fill="rgb(255, 48, 48)"
              d="M7.500,0.000 C3.358,0.000 -0.000,3.358 -0.000,7.500 C-0.000,11.642 3.358,15.000 7.500,15.000 C11.642,15.000 15.000,11.642 15.000,7.500 C15.000,3.358 11.642,0.000 7.500,0.000 ZM7.500,12.288 C6.914,12.288 6.512,11.836 6.512,11.250 C6.512,10.648 6.931,10.212 7.500,10.212 C8.102,10.212 8.488,10.648 8.488,11.250 C8.488,11.836 8.102,12.288 7.500,12.288 ZM7.889,8.325 C7.739,8.834 7.269,8.844 7.112,8.325 C6.931,7.728 6.289,5.460 6.289,3.987 C6.289,2.043 8.721,2.034 8.721,3.987 C8.721,5.469 8.044,7.796 7.889,8.325 Z"/>
    </symbol>
    <symbol  id="informer03" width="12px" height="15px">
        <path fill-rule="evenodd"  fill="rgb(64, 67, 78)"
              d="M10.402,6.239 C10.402,6.239 9.099,5.607 6.043,5.607 C2.987,5.607 1.081,6.239 1.081,6.239 C1.081,5.070 -0.507,3.160 0.172,3.160 C4.365,3.160 4.679,0.004 6.014,0.004 C7.350,0.004 8.132,3.160 11.884,3.160 C12.558,3.160 10.402,5.091 10.402,6.239 ZM7.112,2.475 L4.919,2.475 C4.919,2.475 4.919,3.120 4.919,3.765 C4.919,4.409 6.015,5.054 6.015,5.054 C6.015,5.054 7.112,4.409 7.112,3.765 C7.112,3.120 7.112,2.475 7.112,2.475 ZM1.209,8.293 C1.238,7.827 1.424,6.991 1.424,6.991 C1.424,6.991 3.574,8.833 5.792,8.793 C8.128,8.751 10.595,7.032 10.595,7.032 C10.595,7.032 10.769,7.843 10.796,8.293 C11.438,8.293 11.994,9.005 11.994,9.880 C11.994,10.755 10.876,11.644 10.196,11.644 C9.661,14.000 6.896,14.995 6.002,14.995 C5.109,14.995 2.343,13.996 1.809,11.642 C1.273,11.642 0.011,10.789 0.011,9.880 C0.011,8.971 0.532,8.293 1.209,8.293 Z"/>
    </symbol>
    <symbol id="ballance01" width="17" height="17.312" viewBox="0 0 17 17.312">
       <path  d="M16.707,8.863 C16.617,8.949 16.511,9.016 16.393,9.058 C16.301,9.089 16.204,9.108 16.102,9.108 L16.078,9.108 L11.190,9.108 C10.837,8.428 10.394,7.804 9.847,7.278 L9.847,5.135 L9.847,5.089 C9.847,4.572 10.250,4.153 10.746,4.153 L14.777,4.153 L15.782,4.153 L16.060,4.153 L16.078,4.153 L16.102,4.153 C16.204,4.153 16.301,4.172 16.393,4.203 C16.511,4.247 16.617,4.312 16.707,4.398 C16.887,4.569 17.000,4.816 17.000,5.089 L17.000,8.172 C17.000,8.445 16.887,8.693 16.707,8.863 ZM15.608,3.503 L15.329,3.503 L10.744,3.503 C10.683,3.503 10.622,3.507 10.562,3.515 C10.207,3.558 9.888,3.730 9.651,3.985 C9.384,4.271 9.218,4.662 9.218,5.093 L9.218,5.736 L9.218,6.027 L9.218,6.317 L9.218,6.759 C8.042,5.864 6.592,5.312 5.000,5.312 C3.510,5.312 2.135,5.785 1.000,6.579 L1.000,2.128 L1.000,1.061 L1.000,0.948 C1.000,0.864 1.013,0.782 1.032,0.703 C1.065,0.578 1.122,0.464 1.198,0.364 C1.363,0.149 1.616,0.013 1.900,0.013 L2.436,0.013 L2.596,0.013 L3.458,0.013 L4.482,0.013 L12.293,0.013 L14.418,0.013 L14.697,0.013 L14.975,0.013 L15.180,0.013 C15.676,0.013 16.078,0.432 16.076,0.948 L16.076,3.503 L15.886,3.503 L15.608,3.503 ZM4.870,7.537 C6.789,7.537 8.451,8.652 9.241,10.273 C9.560,10.922 9.739,11.653 9.739,12.425 C9.739,12.820 9.693,13.205 9.604,13.573 C9.090,15.717 7.166,17.312 4.870,17.312 C2.180,17.312 0.000,15.125 0.000,12.425 C0.000,9.726 2.180,7.537 4.870,7.537 ZM1.978,12.788 C1.978,13.067 2.204,13.294 2.482,13.294 L4.005,13.294 L4.005,14.821 C4.005,15.100 4.230,15.327 4.509,15.327 L5.230,15.327 C5.509,15.327 5.735,15.100 5.735,14.821 L5.735,13.294 L6.858,13.294 L7.257,13.294 C7.535,13.294 7.761,13.067 7.761,12.788 L7.761,12.063 C7.761,11.974 7.737,11.893 7.699,11.820 C7.614,11.665 7.449,11.558 7.257,11.558 L5.735,11.558 L5.735,10.030 C5.735,9.750 5.509,9.524 5.230,9.524 L4.509,9.524 C4.230,9.524 4.005,9.750 4.005,10.030 L4.005,11.558 L2.482,11.558 C2.204,11.558 1.978,11.784 1.978,12.063 L1.978,12.788 ZM16.076,9.765 L16.076,12.376 C16.076,12.893 15.674,13.312 15.178,13.312 L11.899,13.312 C11.947,12.983 12.000,12.655 12.000,12.312 C12.000,11.411 11.815,10.556 11.505,9.765 L16.076,9.765 Z" />
    </symbol>
    <symbol id="ballance02" width="14px" height="14px">
        <path
              d="M13.767,0.000 L0.233,0.000 C0.105,0.000 -0.000,0.104 -0.000,0.233 L-0.000,13.767 C-0.000,13.896 0.105,14.000 0.233,14.000 L13.767,14.000 C13.895,14.000 14.000,13.896 14.000,13.767 L14.000,0.233 C14.000,0.104 13.895,0.000 13.767,0.000 ZM4.360,11.860 L3.484,11.399 L2.607,11.860 L2.775,10.884 L2.065,10.193 L3.045,10.050 L3.484,9.162 L3.922,10.050 L4.902,10.193 L4.193,10.884 L4.360,11.860 ZM4.193,7.280 L4.360,8.257 L3.483,7.796 L2.607,8.257 L2.774,7.280 L2.065,6.589 L3.045,6.447 L3.483,5.559 L3.922,6.447 L4.902,6.589 L4.193,7.280 ZM4.193,3.761 L4.360,4.737 L3.483,4.276 L2.607,4.737 L2.774,3.761 L2.065,3.070 L3.045,2.927 L3.483,2.039 L3.922,2.927 L4.902,3.070 L4.193,3.761 ZM10.967,11.200 L5.367,11.200 L5.367,10.267 L10.967,10.267 L10.967,11.200 ZM10.967,7.700 L5.367,7.700 L5.367,6.767 L10.967,6.767 L10.967,7.700 ZM10.967,4.200 L5.367,4.200 L5.367,3.267 L10.967,3.267 L10.967,4.200 Z"/>
    </symbol>
    <symbol id="ballance03" width="13px" height="13px">
        <path
              d="M2.138,2.564 C1.962,2.812 1.837,2.857 1.837,2.647 L1.837,2.267 C1.837,1.721 1.426,1.279 0.918,1.279 C0.410,1.279 -0.002,1.721 -0.002,2.267 L-0.002,5.653 C-0.002,6.199 0.410,6.641 0.918,6.641 L4.070,6.641 C4.578,6.641 4.990,6.199 4.990,5.653 C4.990,5.108 4.578,4.666 4.070,4.666 C4.070,4.666 3.918,4.666 3.731,4.666 C3.543,4.666 3.490,4.435 3.649,4.175 C4.372,2.993 5.612,2.257 6.951,2.257 C9.129,2.257 10.901,4.160 10.901,6.500 C10.901,8.839 9.129,10.742 6.951,10.742 C6.371,10.742 5.900,11.248 5.900,11.871 C5.900,12.495 6.371,13.000 6.951,13.000 C10.288,13.000 13.003,10.084 13.003,6.500 C13.003,2.916 10.288,-0.000 6.951,-0.000 C5.044,-0.000 3.268,0.974 2.138,2.564 Z"/>
    </symbol>
    <symbol id="ballance04" width="16px" height="18px">
        <path
              d="M4.229,18.000 C3.075,15.504 3.690,14.073 4.576,12.726 C5.547,11.250 5.797,9.789 5.797,9.789 C5.797,9.789 6.560,10.821 6.255,12.435 C7.603,10.874 7.857,8.387 7.653,7.434 C10.700,9.649 12.003,14.445 10.248,18.000 C19.582,12.506 12.569,4.286 11.349,3.360 C11.756,4.286 11.833,5.853 11.011,6.614 C9.619,1.125 6.178,-0.000 6.178,-0.000 C6.585,2.831 4.703,5.926 2.888,8.239 C2.825,7.111 2.757,6.332 2.186,5.252 C2.058,7.302 0.552,8.974 0.144,11.028 C-0.409,13.810 0.558,15.848 4.229,18.000 Z"/>
    </symbol>
    <symbol id="arrowdown" width="10px" height="6px">
        <path fill-rule="evenodd"  fill="rgb(64, 67, 78)"
              d="M9.993,5.160 L9.187,5.993 L4.936,1.605 L0.853,5.819 L0.007,4.946 L4.792,0.007 L5.326,0.558 L5.430,0.450 L9.993,5.160 Z"/>
    </symbol>
    <symbol id="b1png" width="16px" height="14px">
        <path fill-rule="evenodd"  fill="rgb(255, 222, 0)"
              d="M15.707,9.551 C15.617,9.637 15.511,9.704 15.393,9.746 C15.301,9.777 15.204,9.796 15.102,9.796 L15.078,9.796 L9.746,9.796 C9.250,9.796 8.847,9.377 8.847,8.860 L8.847,6.823 L8.847,6.533 L8.847,6.243 L8.847,5.777 C8.847,5.260 9.250,4.841 9.746,4.841 L13.777,4.841 L14.782,4.841 L15.060,4.841 L15.078,4.841 L15.102,4.841 C15.204,4.841 15.301,4.860 15.393,4.892 C15.511,4.935 15.617,5.000 15.707,5.086 C15.887,5.257 16.000,5.504 16.000,5.777 L16.000,8.860 C16.000,9.133 15.887,9.381 15.707,9.551 ZM14.608,4.191 L14.329,4.191 L9.744,4.191 C9.683,4.191 9.622,4.195 9.562,4.203 C9.207,4.246 8.888,4.418 8.651,4.673 C8.384,4.959 8.218,5.350 8.218,5.781 L8.218,6.425 L8.218,6.715 L8.218,7.005 L8.218,8.862 C8.218,9.740 8.903,10.453 9.746,10.453 L15.076,10.453 L15.076,13.064 C15.076,13.581 14.674,14.000 14.178,14.000 L0.898,14.000 C0.402,14.000 0.000,13.581 0.000,13.064 L0.000,2.816 L0.000,1.749 L0.000,1.637 C0.000,1.552 0.013,1.470 0.032,1.391 C0.065,1.266 0.122,1.152 0.198,1.053 C0.363,0.837 0.616,0.701 0.900,0.701 L1.436,0.701 L1.596,0.701 L2.458,0.701 L3.482,0.701 L11.293,0.701 L13.418,0.701 L13.697,0.701 L13.975,0.701 L14.180,0.701 C14.676,0.701 15.078,1.120 15.076,1.637 L15.076,4.191 L14.886,4.191 L14.608,4.191 Z"/>
    </symbol>
    <symbol id="b2png"  width="19px" height="15px">
        <path fill-rule="evenodd"  fill="rgb(255, 222, 0)"
              d="M10.330,10.534 C10.340,10.395 10.346,10.255 10.346,10.113 C10.346,9.373 10.201,8.653 9.915,7.975 C9.848,7.815 9.773,7.661 9.693,7.509 L16.847,0.330 C17.240,-0.064 17.879,-0.064 18.272,0.330 L18.674,0.731 C19.067,1.125 19.067,1.767 18.674,2.161 L10.330,10.534 ZM9.346,5.091 C7.945,5.091 6.809,3.952 6.809,2.546 C6.809,1.140 7.945,0.000 9.346,0.000 C10.747,0.000 11.883,1.140 11.883,2.546 C11.883,3.952 10.747,5.091 9.346,5.091 ZM9.241,7.961 C9.560,8.610 9.739,9.341 9.739,10.113 C9.739,10.508 9.693,10.893 9.604,11.261 C9.090,13.405 7.166,15.000 4.870,15.000 C2.180,15.000 0.000,12.813 0.000,10.113 C0.000,7.414 2.180,5.225 4.870,5.225 C6.789,5.225 8.451,6.340 9.241,7.961 ZM7.761,9.751 C7.761,9.662 7.737,9.581 7.699,9.508 C7.614,9.353 7.449,9.246 7.257,9.246 L5.735,9.246 L5.735,7.718 C5.735,7.439 5.509,7.212 5.231,7.212 L4.509,7.212 C4.230,7.212 4.005,7.439 4.005,7.718 L4.005,9.246 L2.482,9.246 C2.204,9.246 1.978,9.472 1.978,9.751 L1.978,10.476 C1.978,10.755 2.204,10.982 2.482,10.982 L4.005,10.982 L4.005,12.509 C4.005,12.788 4.230,13.015 4.509,13.015 L5.231,13.015 C5.509,13.015 5.735,12.788 5.735,12.509 L5.735,10.982 L6.858,10.982 L7.257,10.982 C7.535,10.982 7.761,10.755 7.761,10.476 L7.761,9.751 ZM16.464,7.143 C17.865,7.143 19.000,8.283 19.000,9.689 C19.000,11.094 17.865,12.234 16.464,12.234 C15.063,12.234 13.927,11.094 13.927,9.689 C13.927,8.283 15.063,7.143 16.464,7.143 Z"/>
    </symbol>
    <symbol id="filter" width="26px" height="23px">
        <path fill-rule="evenodd"  fill="rgb(64, 67, 78)"  d="M25.241,-0.000 L0.759,-0.000 C0.340,-0.000 0.000,0.345 0.000,0.770 L0.000,5.766 C0.000,6.191 0.340,6.536 0.759,6.536 L2.601,6.536 L10.129,16.271 L10.129,22.230 C10.129,22.501 10.269,22.752 10.498,22.891 C10.618,22.964 10.753,23.000 10.888,23.000 C11.011,23.000 11.135,22.970 11.247,22.909 L15.470,20.615 C15.717,20.481 15.871,20.221 15.871,19.937 L15.871,16.271 L23.399,6.536 L25.241,6.536 C25.660,6.536 26.000,6.191 26.000,5.766 L26.000,0.770 C26.000,0.345 25.660,-0.000 25.241,-0.000 ZM14.514,15.530 C14.409,15.666 14.352,15.833 14.352,16.005 L14.352,19.476 L11.648,20.945 L11.648,16.005 C11.648,15.833 11.591,15.666 11.486,15.530 L4.530,6.536 L21.470,6.536 L14.514,15.530 ZM24.481,4.996 L1.519,4.996 L1.519,1.539 L24.481,1.539 L24.481,4.996 L24.481,4.996 Z"/>
    </symbol>
    <symbol id="dellcross" width="9px" height="9px">
        <path fill-rule="evenodd"  d="M9.010,8.278 L8.278,9.010 L4.500,5.233 L0.722,9.010 L-0.010,8.278 L3.767,4.500 L-0.010,0.722 L0.722,-0.010 L4.500,3.767 L8.278,-0.010 L9.010,0.722 L5.233,4.500 L9.010,8.278 Z"/>
    </symbol>
    <symbol id="inminus" width="8px" height="2px">
        <path fill-rule="evenodd" d="M5.000,-0.000 L7.001,-0.000 C7.136,-0.000 7.253,0.049 7.352,0.148 C7.451,0.247 7.501,0.364 7.501,0.500 L7.501,1.500 C7.501,1.635 7.451,1.753 7.352,1.852 C7.253,1.951 7.136,2.000 7.000,2.000 L5.000,2.000 M5.000,2.000 L1.000,2.000 C0.864,2.000 0.747,1.951 0.648,1.852 C0.549,1.753 0.500,1.635 0.500,1.500 L0.500,0.500 C0.500,0.364 0.549,0.247 0.648,0.148 C0.747,0.049 0.864,-0.000 1.000,-0.000 L5.000,-0.000 "/>
    </symbol>
    <symbol id="inplus"  width="8px" height="8px">
        <path fill-rule="evenodd" d="M7.501,4.500 C7.501,4.635 7.451,4.753 7.352,4.852 C7.253,4.951 7.136,5.000 7.000,5.000 L5.000,5.000 L5.000,7.000 C5.000,7.136 4.951,7.253 4.852,7.352 C4.753,7.451 4.636,7.500 4.500,7.500 L3.500,7.500 C3.365,7.500 3.247,7.451 3.148,7.352 C3.049,7.253 3.000,7.136 3.000,7.000 L3.000,5.000 L1.000,5.000 C0.864,5.000 0.747,4.951 0.648,4.852 C0.549,4.753 0.500,4.635 0.500,4.500 L0.500,3.500 C0.500,3.364 0.549,3.247 0.648,3.148 C0.747,3.049 0.864,3.000 1.000,3.000 L3.000,3.000 L3.000,1.000 C3.000,0.864 3.049,0.747 3.148,0.648 C3.247,0.549 3.365,0.499 3.500,0.499 L4.500,0.499 C4.636,0.499 4.753,0.549 4.852,0.648 C4.951,0.747 5.000,0.864 5.000,1.000 L5.000,3.000 L7.001,3.000 C7.136,3.000 7.253,3.049 7.352,3.148 C7.451,3.247 7.501,3.364 7.501,3.500 L7.501,4.500 Z"/>
    </symbol>
    <symbol id="delbutt" width="14px" height="14px">
        <path fill-rule="evenodd"  fill="rgb(64, 67, 78)"
              d="M7.000,0.000 C3.150,0.000 -0.000,3.150 -0.000,7.000 C-0.000,10.850 3.150,14.000 7.000,14.000 C10.850,14.000 14.000,10.850 14.000,7.000 C14.000,3.150 10.850,0.000 7.000,0.000 ZM10.500,9.520 L9.520,10.500 L7.000,7.980 L4.480,10.500 L3.500,9.520 L6.020,7.000 L3.500,4.480 L4.480,3.500 L7.000,6.020 L9.520,3.500 L10.500,4.480 L7.980,7.000 L10.500,9.520 Z"/>
    </symbol>
</svg>


