<svg xmlns="http://www.w3.org/2000/svg" xmlns:xlink="http://www.w3.org/1999/xlink" width="0" height="0" style="position:absolute">
    <symbol id="sale01"  viewBox="0 0 25 25">

        <g>
            <circle cx="12.5" cy="12.5" r="12.5" fill="#ff6749"/>
            <path fill="#ffffff" d="M8.773,17.840 C8.687,17.940 8.564,17.991 8.439,17.991 C8.341,17.991 8.243,17.959 8.161,17.894 C7.977,17.744 7.952,17.478 8.106,17.298 L16.786,7.161 C16.939,6.982 17.212,6.957 17.397,7.107 C17.581,7.256 17.606,7.522 17.453,7.702 L8.773,17.840 ZM10.175,11.233 C8.979,11.233 8.005,10.285 8.005,9.121 C8.005,7.956 8.979,7.009 10.175,7.009 C11.372,7.009 12.345,7.956 12.345,9.121 C12.345,10.285 11.372,11.233 10.175,11.233 ZM10.175,7.854 C9.458,7.854 8.873,8.422 8.873,9.121 C8.873,9.820 9.458,10.388 10.175,10.388 C10.893,10.388 11.477,9.820 11.477,9.121 C11.477,8.422 10.893,7.854 10.175,7.854 ZM15.817,13.767 C17.014,13.767 17.987,14.715 17.987,15.879 C17.987,17.044 17.014,17.991 15.817,17.991 C14.621,17.991 13.647,17.044 13.647,15.879 C13.647,14.715 14.621,13.767 15.817,13.767 ZM15.817,17.147 C16.535,17.147 17.119,16.578 17.119,15.879 C17.119,15.181 16.535,14.612 15.817,14.612 C15.099,14.612 14.515,15.181 14.515,15.879 C14.515,16.578 15.099,17.147 15.817,17.147 Z" />
        </g>
    </symbol>
    <symbol  id="sale02" width="25" height="25" viewBox="0 0 25 25">
        <g>
            <circle cx="12.5" cy="12.5" r="12.5" fill="#78bb46"/>
            <path fill="#ffffff" d="M21.976,10.645 L20.388,15.643 C20.388,15.644 20.387,15.645 20.387,15.646 C20.380,15.668 20.370,15.689 20.360,15.709 C20.357,15.716 20.354,15.722 20.351,15.728 C20.341,15.747 20.329,15.765 20.316,15.783 C20.312,15.788 20.308,15.794 20.303,15.799 C20.290,15.815 20.277,15.831 20.262,15.846 C20.260,15.848 20.258,15.850 20.256,15.852 C20.239,15.868 20.220,15.883 20.200,15.897 C20.196,15.900 20.193,15.903 20.189,15.905 C20.169,15.919 20.148,15.931 20.125,15.942 C20.123,15.943 20.121,15.944 20.119,15.945 C20.098,15.955 20.076,15.964 20.054,15.971 C20.050,15.972 20.046,15.974 20.043,15.975 C20.039,15.976 20.036,15.977 20.033,15.978 C20.019,15.982 20.004,15.984 19.990,15.987 C19.980,15.989 19.971,15.992 19.961,15.993 C19.934,15.997 19.907,15.999 19.881,15.999 C19.854,15.999 19.828,15.997 19.801,15.993 C19.791,15.992 19.781,15.989 19.771,15.987 C19.757,15.984 19.743,15.982 19.729,15.978 C19.726,15.977 19.722,15.976 19.719,15.975 C19.715,15.974 19.712,15.972 19.708,15.971 C19.686,15.964 19.664,15.955 19.643,15.945 C19.641,15.944 19.639,15.943 19.637,15.942 C19.614,15.931 19.593,15.919 19.573,15.905 C19.569,15.903 19.565,15.900 19.562,15.897 C19.542,15.883 19.523,15.868 19.506,15.852 C19.504,15.850 19.502,15.848 19.500,15.846 C19.485,15.831 19.471,15.815 19.458,15.799 C19.454,15.794 19.450,15.788 19.446,15.783 C19.433,15.765 19.421,15.747 19.411,15.728 C19.408,15.722 19.404,15.716 19.401,15.709 C19.391,15.689 19.382,15.668 19.375,15.646 C19.375,15.645 19.374,15.644 19.374,15.643 L18.293,12.241 L17.212,15.643 C17.212,15.644 17.211,15.645 17.211,15.646 C17.203,15.668 17.194,15.689 17.184,15.709 C17.181,15.716 17.178,15.722 17.175,15.728 C17.164,15.747 17.153,15.765 17.140,15.783 C17.136,15.788 17.132,15.794 17.127,15.799 C17.114,15.816 17.100,15.831 17.085,15.846 C17.083,15.848 17.082,15.850 17.080,15.852 C17.063,15.868 17.044,15.883 17.024,15.897 C17.020,15.900 17.016,15.903 17.013,15.905 C16.993,15.919 16.971,15.931 16.949,15.943 C16.947,15.944 16.945,15.944 16.942,15.945 C16.922,15.955 16.900,15.964 16.877,15.971 C16.874,15.972 16.870,15.974 16.866,15.975 C16.863,15.976 16.860,15.977 16.857,15.978 C16.842,15.982 16.828,15.984 16.814,15.987 C16.804,15.989 16.794,15.992 16.784,15.993 C16.758,15.997 16.731,15.999 16.705,15.999 C16.678,15.999 16.651,15.997 16.625,15.993 C16.615,15.992 16.605,15.989 16.595,15.987 C16.581,15.984 16.567,15.982 16.553,15.978 C16.549,15.977 16.546,15.976 16.543,15.975 C16.539,15.974 16.535,15.972 16.532,15.971 C16.509,15.964 16.487,15.955 16.467,15.945 C16.465,15.944 16.462,15.944 16.460,15.942 C16.438,15.931 16.417,15.919 16.396,15.905 C16.393,15.903 16.389,15.900 16.385,15.897 C16.366,15.883 16.347,15.868 16.329,15.852 C16.327,15.850 16.326,15.848 16.324,15.846 C16.309,15.831 16.295,15.816 16.282,15.799 C16.278,15.794 16.273,15.789 16.269,15.783 C16.256,15.765 16.245,15.747 16.235,15.728 C16.231,15.722 16.228,15.716 16.225,15.709 C16.215,15.689 16.206,15.668 16.199,15.646 C16.198,15.645 16.198,15.644 16.197,15.643 L14.609,10.645 C14.526,10.380 14.685,10.101 14.965,10.022 C15.245,9.943 15.540,10.093 15.624,10.357 L16.705,13.759 L17.786,10.357 C17.786,10.356 17.787,10.354 17.787,10.353 C17.788,10.352 17.788,10.351 17.788,10.350 C17.865,10.120 18.102,9.978 18.349,10.004 C18.352,10.005 18.356,10.005 18.360,10.006 C18.372,10.007 18.385,10.009 18.397,10.011 C18.409,10.013 18.420,10.016 18.431,10.019 C18.436,10.020 18.440,10.021 18.445,10.022 C18.445,10.022 18.446,10.023 18.446,10.023 C18.461,10.027 18.475,10.032 18.488,10.037 C18.491,10.038 18.494,10.039 18.497,10.040 C18.512,10.046 18.528,10.053 18.543,10.060 C18.543,10.061 18.543,10.061 18.544,10.061 C18.559,10.069 18.574,10.077 18.588,10.086 C18.590,10.087 18.591,10.088 18.592,10.089 C18.686,10.149 18.760,10.239 18.797,10.350 C18.797,10.351 18.798,10.352 18.798,10.353 C18.799,10.354 18.799,10.356 18.800,10.357 L19.881,13.759 L20.962,10.357 C21.045,10.093 21.340,9.942 21.621,10.022 C21.901,10.101 22.060,10.380 21.976,10.645 ZM13.327,14.999 C13.620,14.999 13.856,15.223 13.856,15.499 C13.856,15.775 13.620,15.999 13.327,15.999 L10.352,15.999 C10.060,15.999 9.823,15.775 9.823,15.499 L9.823,10.501 C9.823,10.225 10.060,10.001 10.352,10.001 L13.327,10.001 C13.620,10.001 13.856,10.225 13.856,10.501 C13.856,10.777 13.620,11.001 13.327,11.001 L10.882,11.001 L10.882,12.500 L13.327,12.500 C13.620,12.500 13.856,12.724 13.856,13.000 C13.856,13.276 13.620,13.500 13.327,13.500 L10.882,13.500 L10.882,14.999 L13.327,14.999 ZM8.233,15.539 C8.232,15.546 8.231,15.554 8.230,15.561 C8.229,15.569 8.228,15.578 8.226,15.586 C8.225,15.594 8.223,15.603 8.221,15.611 C8.219,15.618 8.218,15.625 8.216,15.632 C8.213,15.641 8.210,15.650 8.207,15.659 C8.205,15.665 8.202,15.671 8.200,15.677 C8.196,15.686 8.193,15.695 8.188,15.703 C8.185,15.710 8.182,15.716 8.179,15.722 C8.175,15.730 8.170,15.738 8.166,15.746 C8.162,15.752 8.157,15.759 8.153,15.765 C8.148,15.772 8.144,15.779 8.139,15.786 C8.134,15.792 8.129,15.799 8.123,15.806 C8.118,15.812 8.113,15.818 8.108,15.824 C8.102,15.830 8.096,15.836 8.090,15.842 C8.084,15.848 8.078,15.854 8.072,15.860 C8.066,15.865 8.060,15.870 8.054,15.875 C8.047,15.881 8.039,15.887 8.031,15.893 C8.026,15.897 8.020,15.900 8.015,15.904 C8.006,15.911 7.996,15.917 7.985,15.923 C7.983,15.924 7.981,15.926 7.978,15.927 C7.977,15.928 7.975,15.929 7.974,15.930 C7.935,15.951 7.894,15.968 7.851,15.979 C7.846,15.981 7.840,15.982 7.835,15.983 C7.819,15.987 7.803,15.990 7.787,15.992 C7.781,15.993 7.775,15.994 7.769,15.995 C7.749,15.997 7.729,15.999 7.708,15.999 C7.707,15.999 7.707,15.999 7.706,15.999 C7.706,15.999 7.706,15.999 7.706,15.999 C7.706,15.999 7.706,15.999 7.706,15.999 C7.684,15.999 7.664,15.997 7.643,15.995 C7.639,15.995 7.634,15.994 7.630,15.993 C7.613,15.991 7.596,15.988 7.580,15.984 C7.576,15.983 7.571,15.982 7.566,15.981 C7.549,15.976 7.532,15.971 7.516,15.965 C7.513,15.964 7.510,15.963 7.507,15.962 C7.487,15.955 7.468,15.946 7.450,15.937 C7.448,15.935 7.445,15.934 7.443,15.933 C7.428,15.924 7.413,15.916 7.399,15.906 C7.394,15.902 7.388,15.899 7.383,15.895 C7.371,15.886 7.360,15.877 7.349,15.868 C7.345,15.864 7.340,15.860 7.336,15.856 C7.321,15.843 7.307,15.828 7.294,15.813 C7.292,15.811 7.290,15.808 7.288,15.806 C7.276,15.792 7.266,15.777 7.256,15.761 C7.254,15.760 7.253,15.758 7.252,15.756 L5.059,12.305 L5.059,15.499 C5.059,15.775 4.822,15.999 4.529,15.999 C4.237,15.999 4.000,15.775 4.000,15.499 L4.000,10.501 C4.000,10.497 4.000,10.494 4.001,10.490 C4.001,10.480 4.001,10.471 4.002,10.461 C4.003,10.453 4.003,10.446 4.004,10.438 C4.006,10.430 4.007,10.422 4.008,10.414 C4.010,10.405 4.012,10.397 4.014,10.389 C4.015,10.382 4.017,10.375 4.019,10.368 C4.022,10.359 4.025,10.350 4.028,10.341 C4.030,10.335 4.033,10.329 4.035,10.323 C4.039,10.314 4.042,10.305 4.046,10.296 C4.049,10.290 4.053,10.284 4.056,10.278 C4.060,10.270 4.064,10.262 4.069,10.254 C4.073,10.248 4.077,10.241 4.082,10.235 C4.086,10.228 4.091,10.221 4.096,10.214 C4.101,10.207 4.106,10.201 4.112,10.194 C4.117,10.188 4.122,10.182 4.127,10.176 C4.133,10.170 4.139,10.164 4.145,10.158 C4.151,10.152 4.157,10.146 4.163,10.140 C4.169,10.135 4.175,10.130 4.181,10.125 C4.188,10.119 4.196,10.113 4.204,10.107 C4.209,10.103 4.214,10.100 4.220,10.096 C4.229,10.089 4.239,10.083 4.250,10.077 C4.252,10.076 4.254,10.074 4.257,10.073 C4.259,10.071 4.261,10.071 4.263,10.069 C4.274,10.063 4.285,10.058 4.297,10.052 C4.301,10.050 4.306,10.048 4.310,10.046 C4.321,10.041 4.332,10.037 4.344,10.033 C4.349,10.031 4.355,10.029 4.360,10.027 C4.370,10.024 4.381,10.021 4.391,10.019 C4.398,10.017 4.405,10.015 4.413,10.014 C4.421,10.012 4.430,10.010 4.439,10.009 C4.448,10.007 4.457,10.006 4.466,10.005 C4.473,10.004 4.481,10.004 4.488,10.003 C4.499,10.002 4.509,10.002 4.520,10.001 C4.523,10.001 4.526,10.001 4.529,10.001 C4.533,10.001 4.537,10.001 4.541,10.002 C4.551,10.002 4.562,10.002 4.572,10.003 C4.580,10.004 4.587,10.004 4.595,10.005 C4.604,10.006 4.613,10.008 4.622,10.009 C4.631,10.011 4.639,10.012 4.648,10.014 C4.655,10.016 4.663,10.018 4.671,10.020 C4.680,10.022 4.689,10.024 4.698,10.027 C4.705,10.030 4.712,10.032 4.719,10.035 C4.728,10.038 4.737,10.041 4.745,10.045 C4.753,10.048 4.760,10.051 4.767,10.054 C4.775,10.058 4.782,10.062 4.790,10.066 C4.798,10.070 4.805,10.074 4.812,10.079 C4.819,10.083 4.826,10.087 4.833,10.091 C4.840,10.096 4.847,10.102 4.855,10.107 C4.861,10.112 4.867,10.116 4.873,10.121 C4.880,10.127 4.886,10.132 4.893,10.138 C4.899,10.144 4.905,10.149 4.911,10.155 C4.917,10.160 4.922,10.166 4.927,10.172 C4.934,10.179 4.940,10.186 4.946,10.194 C4.950,10.199 4.954,10.204 4.958,10.209 C4.965,10.218 4.972,10.227 4.978,10.236 C4.979,10.239 4.981,10.241 4.983,10.243 L7.176,13.695 L7.176,10.501 C7.176,10.225 7.413,10.001 7.705,10.001 C7.998,10.001 8.235,10.225 8.235,10.501 L8.235,15.499 C8.235,15.503 8.234,15.506 8.234,15.510 C8.234,15.519 8.234,15.529 8.233,15.539 Z" />
        </g>
    </symbol>
    <symbol id="heart01" width="21px" height="18px">
        <path fill-rule="evenodd"  fill="rgb(255, 200, 0)" d="M19.304,1.671 C18.204,0.599 16.748,0.013 15.194,0.013 C13.641,0.013 12.181,0.603 11.081,1.675 L10.507,2.235 L9.923,1.667 C8.824,0.595 7.359,-0.000 5.806,-0.000 C4.256,-0.000 2.796,0.590 1.701,1.658 C0.601,2.730 -0.004,4.154 0.000,5.669 C0.000,7.183 0.610,8.603 1.710,9.675 L10.070,17.826 C10.186,17.939 10.342,18.000 10.493,18.000 C10.645,18.000 10.801,17.944 10.916,17.831 L19.295,9.692 C20.394,8.620 21.000,7.196 21.000,5.682 C21.004,4.167 20.403,2.743 19.304,1.671 ZM18.449,8.863 L10.493,16.589 L2.556,8.850 C1.683,8.000 1.202,6.871 1.202,5.669 C1.202,4.466 1.679,3.338 2.551,2.491 C3.419,1.645 4.577,1.176 5.806,1.176 C7.039,1.176 8.201,1.645 9.073,2.496 L10.079,3.477 C10.315,3.707 10.694,3.707 10.930,3.477 L11.927,2.505 C12.799,1.654 13.961,1.185 15.190,1.185 C16.419,1.185 17.576,1.654 18.449,2.500 C19.321,3.351 19.798,4.479 19.798,5.682 C19.802,6.884 19.321,8.013 18.449,8.863 Z"/>
    </symbol>
    <symbol id="heart02" width="21px" height="18px">
        <path fill-rule="evenodd"  fill="rgb(255, 200, 0)"
              d="M19.304,1.671 C18.204,0.599 16.748,0.013 15.194,0.013 C13.641,0.013 12.181,0.603 11.081,1.675 L10.507,2.235 L9.924,1.667 C8.824,0.595 7.359,-0.000 5.806,-0.000 C4.256,-0.000 2.796,0.590 1.701,1.658 C0.601,2.730 -0.004,4.154 0.000,5.669 C0.000,7.183 0.610,8.603 1.710,9.675 L10.070,17.826 C10.186,17.939 10.342,18.000 10.493,18.000 C10.645,18.000 10.800,17.944 10.916,17.831 L19.295,9.692 C20.394,8.620 21.000,7.196 21.000,5.682 C21.004,4.167 20.403,2.743 19.304,1.671 Z"/>
    </symbol>
    <symbol id="aspect01" width="19" height="19" viewBox="0 0 19 19">
        <g>
            <path d="M15.697,9.466 C15.610,9.541 15.495,9.577 15.382,9.559 C15.100,9.519 14.866,9.500 14.646,9.500 C11.809,9.500 9.501,11.809 9.501,14.646 C9.501,14.866 9.520,15.100 9.560,15.381 C9.576,15.495 9.542,15.610 9.467,15.697 C9.392,15.783 9.283,15.833 9.168,15.833 L0.397,15.833 C0.178,15.833 0.001,15.656 0.001,15.438 L0.001,5.937 C0.001,5.719 0.178,5.542 0.397,5.542 L5.147,5.542 C5.366,5.542 5.543,5.719 5.543,5.937 L5.543,7.521 C5.543,7.739 5.720,7.917 5.938,7.917 L9.896,7.917 C10.115,7.917 10.292,7.739 10.292,7.521 L10.291,5.938 C10.291,5.833 10.332,5.732 10.407,5.658 C10.481,5.583 10.581,5.542 10.686,5.542 L15.438,5.542 C15.657,5.542 15.834,5.719 15.834,5.937 L15.834,9.167 C15.834,9.282 15.784,9.391 15.697,9.466 ZM15.438,4.750 L10.685,4.750 C10.467,4.750 10.290,4.573 10.290,4.355 L10.289,3.949 L9.973,0.431 C9.963,0.320 10.000,0.211 10.075,0.129 C10.150,0.047 10.256,-0.000 10.367,-0.000 L13.289,-0.000 C13.434,-0.000 13.568,0.079 13.637,0.207 L15.786,4.165 C15.852,4.288 15.849,4.437 15.778,4.557 C15.706,4.677 15.577,4.750 15.438,4.750 ZM5.147,4.750 L0.397,4.750 C0.257,4.750 0.128,4.677 0.057,4.557 C-0.015,4.437 -0.017,4.288 0.049,4.165 L2.198,0.207 C2.267,0.079 2.401,-0.000 2.546,-0.000 L5.469,-0.000 C5.580,-0.000 5.686,0.047 5.761,0.129 C5.836,0.211 5.873,0.320 5.863,0.431 L5.543,4.354 C5.543,4.573 5.366,4.750 5.147,4.750 Z" fill-rule="evenodd" fill="#40434e"/>
            <path d="M14.646,10.292 C12.245,10.292 10.292,12.245 10.292,14.646 C10.292,17.047 12.245,19.000 14.646,19.000 C17.047,19.000 19.000,17.047 19.000,14.646 C19.000,12.245 17.047,10.292 14.646,10.292 ZM14.646,17.417 C14.428,17.417 14.250,17.239 14.250,17.021 C14.250,16.802 14.428,16.625 14.646,16.625 C14.865,16.625 15.042,16.802 15.042,17.021 C15.042,17.239 14.865,17.417 14.646,17.417 ZM15.042,15.438 C15.042,15.656 14.865,15.833 14.646,15.833 C14.427,15.833 14.250,15.656 14.250,15.438 L14.250,12.271 C14.250,12.052 14.427,11.875 14.646,11.875 C14.865,11.875 15.042,12.052 15.042,12.271 L15.042,15.438 Z" fill-rule="evenodd" fill="#ffde00"/>
        </g>
    </symbol>
    <symbol  id="aspect02" width="18" height="20" viewBox="0 0 18 20">
        <g>
            <path d="M17.507,15.728 L17.023,15.231 C17.205,15.139 17.332,14.944 17.332,14.717 L17.332,14.006 L17.332,11.002 L17.332,5.437 C17.332,5.121 17.088,4.864 16.788,4.864 L6.904,4.864 L6.233,4.176 L16.788,4.176 C17.458,4.176 18.003,4.742 18.003,5.437 L18.003,14.717 C18.003,15.132 17.806,15.497 17.507,15.728 ZM13.730,14.006 L14.982,15.289 L15.652,15.976 L17.563,17.934 L17.837,20.005 L13.906,15.977 L13.235,15.289 L11.983,14.006 L9.051,11.002 L3.059,4.864 L2.388,4.176 L0.330,2.066 L0.055,-0.005 L4.136,4.176 L4.807,4.864 L10.798,11.002 L13.730,14.006 ZM0.518,4.408 L1.006,4.908 C0.810,4.995 0.672,5.199 0.672,5.437 L0.672,11.002 L0.672,14.006 L0.672,14.716 C0.672,15.032 0.916,15.289 1.216,15.289 L11.138,15.289 L11.809,15.977 L1.216,15.977 C0.546,15.977 0.001,15.411 0.001,14.716 L0.001,5.437 C0.001,5.012 0.206,4.637 0.518,4.408 Z" fill-rule="evenode" fill="#2d303b"/>
            <path d="M15.827,14.006 L12.895,11.002 L17.332,11.002 L17.332,14.006 L15.827,14.006 ZM0.672,11.002 L6.954,11.002 L9.886,14.006 L0.672,14.006 L0.672,11.002 Z" fill-rule="evenode" fill="#ffde00"/>
        </g>
    </symbol>
    <symbol id="aspect03" width="17" height="17" viewBox="0 0 17 17">
        <g>
            <path d="M13.832,8.500 C13.832,8.732 13.909,9.041 13.909,9.273 C13.909,10.895 13.291,12.364 12.286,13.445 C12.055,12.827 11.514,12.364 10.818,12.364 L10.045,12.364 L10.045,10.045 C10.045,9.582 9.736,9.273 9.273,9.273 L4.636,9.273 L4.636,7.727 L6.182,7.727 C6.645,7.727 6.955,7.418 6.955,6.955 L6.955,5.409 L8.500,5.409 C9.350,5.409 10.045,4.714 10.045,3.864 L10.045,1.932 C9.350,1.700 8.500,1.545 7.727,1.545 C3.477,1.545 -0.000,5.023 -0.000,9.273 C-0.000,13.523 3.477,17.000 7.727,17.000 C11.977,17.000 15.455,13.523 15.455,9.273 C15.455,9.041 15.455,8.732 15.377,8.500 L13.832,8.500 ZM6.955,15.377 C3.941,14.991 1.545,12.364 1.545,9.273 C1.545,8.809 1.623,8.345 1.700,7.882 L5.409,11.591 L5.409,12.364 C5.409,13.214 6.105,13.909 6.955,13.909 L6.955,15.377 Z" fill-rule="evenode" fill="#40434e"/>
            <path d="M16.227,2.318 L16.227,1.932 C16.227,0.850 15.377,-0.000 14.295,-0.000 C13.214,-0.000 12.364,0.850 12.364,1.932 L12.364,2.318 C11.900,2.318 11.591,2.627 11.591,3.091 L11.591,6.182 C11.591,6.645 11.900,6.955 12.364,6.955 L16.227,6.955 C16.691,6.955 17.000,6.645 17.000,6.182 L17.000,3.091 C17.000,2.627 16.691,2.318 16.227,2.318 ZM15.609,2.318 L12.982,2.318 L12.982,1.932 C12.982,1.236 13.600,0.618 14.295,0.618 C14.991,0.618 15.609,1.236 15.609,1.932 L15.609,2.318 L15.609,2.318 Z" fill-rule="evenode" fill="#fbdb02"/>
        </g>
    </symbol>
    <symbol id="aspect04" width="23" height="16" viewBox="0 0 23 16">
        <g>
            <path d="M22.543,12.677 L21.088,12.677 C21.128,12.864 21.151,13.056 21.151,13.254 C21.151,14.768 19.919,16.000 18.405,16.000 C16.891,16.000 15.658,14.768 15.658,13.254 C15.658,13.056 15.682,12.864 15.721,12.677 L12.363,12.677 L11.649,12.677 L8.055,12.677 C8.095,12.864 8.117,13.056 8.117,13.254 C8.117,14.768 6.886,16.000 5.371,16.000 C3.857,16.000 2.625,14.768 2.625,13.254 C2.625,13.056 2.648,12.864 2.688,12.677 L0.479,12.677 C0.214,12.677 0.000,12.463 0.000,12.198 L0.000,11.386 C0.000,11.122 0.214,10.907 0.479,10.907 L3.967,10.907 C4.379,10.659 4.856,10.508 5.371,10.508 C5.886,10.508 6.364,10.659 6.776,10.907 L9.832,10.907 L10.820,11.964 C11.046,12.206 11.353,12.329 11.660,12.329 C11.942,12.329 12.223,12.226 12.445,12.019 C12.909,11.585 12.934,10.857 12.500,10.393 L11.704,9.542 L13.073,2.509 C13.114,2.294 13.303,2.139 13.522,2.139 L18.235,2.139 C18.428,2.139 18.601,2.260 18.666,2.441 L20.357,7.110 C20.422,7.289 20.592,7.410 20.784,7.411 L21.212,7.415 C22.202,7.423 23.000,8.227 23.000,9.217 L23.000,12.220 C23.000,12.473 22.795,12.677 22.543,12.677 ZM5.371,12.041 C4.703,12.041 4.158,12.585 4.158,13.254 C4.158,13.923 4.703,14.467 5.371,14.467 C6.041,14.467 6.584,13.923 6.584,13.254 C6.584,12.585 6.041,12.041 5.371,12.041 ZM17.627,3.659 C17.600,3.569 17.518,3.508 17.425,3.508 L14.519,3.508 C14.417,3.508 14.329,3.582 14.312,3.683 L13.998,5.574 C13.987,5.635 14.004,5.698 14.044,5.745 C14.084,5.792 14.143,5.819 14.204,5.819 L17.982,5.819 C18.048,5.819 18.110,5.788 18.150,5.735 C18.190,5.682 18.202,5.613 18.183,5.549 L17.627,3.659 ZM18.404,12.041 C17.736,12.041 17.192,12.585 17.192,13.254 C17.192,13.923 17.736,14.467 18.404,14.467 C19.074,14.467 19.617,13.923 19.617,13.254 C19.617,12.585 19.074,12.041 18.404,12.041 ZM11.922,11.459 C11.847,11.528 11.754,11.562 11.660,11.562 C11.558,11.562 11.455,11.521 11.380,11.440 L1.285,0.645 C1.141,0.490 1.149,0.248 1.304,0.103 C1.458,-0.041 1.701,-0.034 1.845,0.121 L11.940,10.917 C12.084,11.071 12.077,11.314 11.922,11.459 Z" fill-rule="evenode" fill="#40434e"/>
            <path d="M7.586,5.138 L10.254,5.138 C10.519,5.138 10.733,5.353 10.733,5.617 L10.733,8.504 L7.586,5.138 ZM9.209,4.178 L6.688,4.178 L4.898,2.264 L4.898,1.811 C4.898,1.546 5.113,1.332 5.377,1.332 L9.209,1.332 C9.474,1.332 9.688,1.546 9.688,1.811 L9.688,3.699 C9.688,3.963 9.474,4.178 9.209,4.178 ZM3.519,9.973 L0.479,9.973 C0.214,9.973 -0.000,9.759 0.000,9.494 L0.000,7.382 C0.000,7.117 0.214,6.903 0.479,6.903 L3.519,6.903 C3.784,6.903 3.998,7.117 3.998,7.382 L3.998,9.494 C3.998,9.759 3.784,9.973 3.519,9.973 ZM3.519,6.024 L2.208,6.024 C1.944,6.024 1.729,5.810 1.729,5.545 L1.729,2.241 L3.998,4.668 L3.998,5.545 C3.998,5.810 3.784,6.024 3.519,6.024 ZM3.519,0.550 C3.784,0.550 3.998,0.764 3.998,1.029 L3.998,1.301 L3.296,0.550 L3.519,0.550 ZM5.377,9.973 C5.113,9.973 4.898,9.759 4.898,9.494 L4.898,5.631 L8.959,9.973 L5.377,9.973 Z" fill-rule="evenode" fill="#fbdb02"/>
        </g>
    </symbol>
    <symbol  id="screpca" width="19px" height="20px">
        <path fill-rule="evenodd"  fill="rgb(64, 67, 78)"
              d="M17.643,13.325 L9.758,5.721 C9.206,5.171 8.532,4.896 7.736,4.896 C6.994,4.896 6.365,5.145 5.849,5.642 C5.333,6.140 5.075,6.746 5.075,7.462 C5.075,8.229 5.360,8.880 5.930,9.412 L11.495,14.778 C11.585,14.865 11.685,14.909 11.793,14.909 C11.938,14.909 12.151,14.773 12.431,14.503 C12.711,14.233 12.852,14.027 12.852,13.888 C12.852,13.783 12.806,13.687 12.716,13.600 L7.152,8.234 C6.926,7.998 6.813,7.741 6.813,7.462 C6.813,7.208 6.899,6.999 7.070,6.833 C7.242,6.667 7.460,6.585 7.722,6.585 C8.030,6.585 8.301,6.689 8.536,6.899 L16.421,14.503 C16.991,15.052 17.276,15.685 17.276,16.400 C17.276,16.959 17.086,17.421 16.706,17.788 C16.326,18.154 15.847,18.338 15.268,18.338 C14.526,18.338 13.870,18.063 13.300,17.513 L2.768,7.343 C2.081,6.680 1.737,5.891 1.737,4.974 C1.737,4.049 2.067,3.260 2.728,2.605 C3.388,1.951 4.198,1.624 5.157,1.624 C6.080,1.624 6.899,1.960 7.613,2.631 L15.838,10.576 C15.928,10.663 16.032,10.707 16.150,10.707 C16.295,10.707 16.505,10.574 16.781,10.308 C17.057,10.041 17.195,9.839 17.195,9.699 C17.195,9.594 17.149,9.498 17.059,9.411 L8.848,1.480 C7.808,0.494 6.573,0.001 5.143,0.001 C3.705,0.001 2.488,0.485 1.493,1.454 C0.497,2.422 -0.000,3.600 -0.000,4.987 C-0.000,6.348 0.511,7.531 1.533,8.534 L12.078,18.691 C12.983,19.563 14.046,19.999 15.268,19.999 C16.326,19.999 17.213,19.655 17.928,18.965 C18.642,18.276 19.000,17.421 19.000,16.400 C19.000,15.205 18.547,14.179 17.643,13.325 Z"/>
    </symbol>
    <symbol id="pluss" width="14px" height="14px">
        <path fill-rule="evenodd"  fill="rgb(64, 67, 78)" d="M11.950,2.050 C9.227,-0.672 4.773,-0.672 2.050,2.050 C-0.672,4.773 -0.672,9.227 2.050,11.950 C4.773,14.672 9.227,14.672 11.950,11.950 C14.672,9.227 14.672,4.773 11.950,2.050 ZM7.693,11.257 L6.307,11.257 L6.307,7.693 L2.743,7.693 L2.743,6.307 L6.307,6.307 L6.307,2.743 L7.693,2.743 L7.693,6.307 L11.257,6.307 L11.257,7.693 L7.693,7.693 L7.693,11.257 Z"/>
    </symbol>
</svg>


